<?xml version="1.0" encoding="UTF-8"?>
<svg id="Calque_1" data-name="Calque 1" xmlns="http://www.w3.org/2000/svg" viewBox="0 0 1024 1024">
  <defs>
    <style>
      .cls-1 {
        stroke-width: 0px;
      }
    </style>
  </defs>
  <path class="cls-1" d="m583.25,891.54c-23.27-8.79-44.27-32.97-63.35-48.61-9.59-7.86-19.93-15.99-27.06-26.33-8.64-12.53-6.1-26.14-12.65-38.67-9.27-17.75-39.6-18.36-57.1-26.91-24.17-11.82-45.58-30.78-67.2-46.54-31.86-23.22-103.59-75.37-60.51-119.45,14.07-14.4,37.49-21.93,55.74-29.59,11.21-4.7,22.93-9,34.67-12.18,10.36-2.8,35.21-1.65,41.72-10.48,14.09-19.1-19.14-37.09-30.21-47.65-21.84-20.84-36.99-47.18-41.27-77.25-4.13-29.05-1.69-58.09,15.59-82.3,13.73-19.22,40.33-53.52,67.46-52.03,21.6,1.18,44.4,20.13,63.03,29.6,27.41,13.93,61.89,19.76,83.56,42.9,34.32,36.66,30.42,110.62,27.41,157.37-2.21,34.38-21.41,59.26-29.57,91.54-8.69,34.39-3.83,75.09-4.95,110.4-1.14,36.05-4.35,72.43-1.77,108.49,1.02,14.21,3.17,28.87,6.94,42.65,1.42,5.21,7.89,16.27,7.26,21.47-.88,7.2-6.84,6.38-7.73,13.59Zm-171.81-513.03c5.45,36.58,10.24,84.59,46.7,104.93,29.7,16.57,72.88.31,83.51-32.3,13.71-42.04-23.27-67.55-55.02-84.63-13.46-7.24-42.1-26.49-57.94-25.61-19.68,1.09-16.57,23.05-17.25,37.61Zm75.88,229.63c-.08,0-.17-.02-.25-.03,0-20.37-20.98-3.45-30.78,2.11-14.83,8.43-29.47,17.18-44.35,25.54-19.93,11.2-72.07,39.99-48.44,66.29,23.64,26.29,66.38,9.36,91.55-3.46,12.65-6.44,19.01-7.21,23.79-22.18,6.49-20.37,5.91-47.08,8.47-68.28Z"/>
  <path class="cls-1" d="m727.67,208.45c-85.46,5.07-172.42-1.48-258.02-2.15-21.79-.17-43.58-.34-65.37-.23-18.97.1-47.35,7.82-65.17,2.67-14.22-4.1-7.49-10.09-4.33-25.15,2.96-14.06,1.13-41.48,15.02-47.87,13.25-6.09,41.74-.57,56.04-.42,21.06.23,42.12.47,63.18.56,44.4.19,88.81-.02,133.22-.44,20.36-.19,40.71-.6,61.07-1.05,15.41-.33,39.08-4.87,53.41,1.35,14.47,6.28,16.32,26.09,20.05,40.72,4.38,17.13,12.66,32.01-9.12,32.01Z"/>
</svg>