<?xml version="1.0" encoding="UTF-8"?>
<svg id="Calque_1" data-name="Calque 1" xmlns="http://www.w3.org/2000/svg" viewBox="0 0 1024 1024">
  <defs>
    <style>
      .cls-1 {
        stroke-width: 0px;
      }
    </style>
  </defs>
  <path class="cls-1" d="m639.68,189.83c-6.99,13.36,12.49,46.71,17.68,59.19,5.18,12.45,12.36,18.21,1.61,24.97-7.38,4.64-33.76.29-42.78.37-10.69.09-21.39.19-32.08.26-21.49.15-42.97.27-64.46.2-25.63-.08-51.27-.42-76.9-.71-10.46-.12-38.31-5.51-45.34,3.63-8.13,10.57-1.19,54.12-1.16,68.26.04,21.61.05,43.21.93,64.81,3.64,89.22,7.26,180.03,2.28,269.21-2.29,40.91-2.36,76.42-29.65,108.65-19.2,22.68-52.13,58.07-85.94,48.83,5.82-9.22,15.4-14.15,20.88-23.82,5.43-9.58,7.07-22.11,8.62-32.83,3.34-23.13,4.02-47,4.74-70.33,1.58-51.64,1.84-103.37,1.75-155.03-.08-48.95-1.52-97.93-1.03-146.88.22-22.82,1.07-45.63,1.41-68.45.19-12.52,6.37-44.68-2.18-54.96-9.36-11.25-31.65-6.03-43.81-18.72-14.16-14.78-27.94-35.9-33.74-55.73-7.51-25.72,3.46-22.31,26.6-22.41,24.76-.11,49.53-.07,74.29-.12,48.75-.1,97.47-1.19,146.22-1.22,49.15-.03,103.58-5.99,152.05,2.84Z"/>
  <path class="cls-1" d="m602.39,502.2c0,32.42-4.63,54.09-26.02,79.41-21.63,25.6-28.46,44-14.1,76.2,11.93,26.75,27.14,43.14,57.61,45.74,30,2.56,50.89-21.21,65.24-45.14,35.58-59.33,10.95-136.31,40.34-197.2,6.9-14.3,28.45-49.11,47.17-34.53,24.3,18.93,7.89,76.28,6.58,101.31-1.69,32.3.02,66.43-7.31,98.14-6.2,26.83-30.01,55.19-48.74,75.07-11.29,11.98-24.57,22.27-34.85,35.24-9.43,11.9-14.41,21.21-29.11,27.85-26.23,11.87-64.66,11.56-90.42-1.93-57.15-29.93-70.2-107.28-56.81-164.8,6.35-27.28,34.71-50.19,33.88-78.63-.71-24.07-32.81-56.12-50.06-71.2-11.86-10.38-26.09-16.34-41.58-18.56-9.12-1.31-35.25,3.29-41.29-4.34-18.62-23.53,40.9-49.47,54.8-51.7,74.04-11.85,136.69,57.37,134.68,129.07Z"/>
</svg>