<?xml version="1.0" encoding="UTF-8"?>
<svg id="Calque_1" data-name="Calque 1" xmlns="http://www.w3.org/2000/svg" viewBox="0 0 1024 1024">
  <defs>
    <style>
      .cls-1 {
        stroke-width: 0px;
      }
    </style>
  </defs>
  <path class="cls-1" d="m668.6,491.91c-6.92,8.89-24.93,7.01-34.42,13.84-16.07,11.57-12.54,31.89-12.95,50.72-.95,43.89-1.65,87.78-1.81,131.68-.15,39.69-8.59,94.43,5.57,132.2,5.66,15.09,34.49,26.37,36.68,39.82,2.28,13.94-23.72-.46-31.2-3.44-17.34-6.92-31.16-18.81-47.75-27-18.86-9.31-37.29-14.74-46.39-35.25-7.73-17.43-8.55-38.82-12.99-57.36-3.85-16.04-11.15-26.41-17.95-40.93-16.16-34.54-32.81-59.9-69.45-75.93-38.92-17.03-69.05,14.15-87.22,45.8-22.77,39.67,2.27,89,27.1,122.24,27.46,36.76,65.11,62.88,101.42,89.49-.12.35-.23.7-.35,1.05-35.83-12-63.53-30.56-90.42-57.38-16.1-16.06-29.96-33.69-44.68-50.94-15.49-18.16-34.06-33.24-49.2-51.79-24.7-30.27-60.04-74.64-47.02-116.71,11.37-36.72,59.51-64.26,93.5-75.16,15.41-4.94,29.72-6.5,15.88-22.25-14.6-16.61-39.86-32.6-58.47-44.67-18.86-12.22-37.97-22.39-50.12-41.97-5.41-8.71-24.37-41.4-17.48-51.49,5.3-7.76,48.58-7.99,57.93-6.39,23.46,4,44.58,19,68.51,23.05,58.23,9.86,39.16-59.27,14-85.46-13.17-13.71-27.34-23.17-41.2-35.64-15.41-13.86-3.69-33.96,9.37-48.4,23.67-26.14,85.9-34.96,117.25-20.31,17.06,7.98,27.36,26.87,46.61,30.73,24.09,4.83,46.45-16.17,65.01-28.27,15.45-10.07,24.02-18.81,42.79-17.89,19.47.95,45.14,7.63,61.57-6.18,12.61-10.6,15.68-31.91,36.13-25.27,20.73,6.73,32.4,30.66,54.71,34.71,16.48,2.99,43.51-7.55,32.5,18.91-8.31,19.95-31.58,31.6-38.67,52.76-7.81,23.28-4.18,54.28-3.91,78.5.3,26.9.67,53.79,1.06,80.68.78,53.92,1.63,107.85,2.07,161.77.51,63.27.34,126.54.58,189.81.05,13.44.12,26.88.25,40.33.07,7.11,4.38,31.17,1.04,37.5-7.45,14.12-38.83-22.22-47.47-29.58-9.31-7.93-25.91-17.71-31.49-28.29-5.09-9.65-4.57-23.78-5.04-34.62-1.31-30.06-.55-60.36-.69-90.44-.25-53.4,8.63-114.34-3.17-166.56Zm-142.95,173.85c13.68-6.61,6.58-45.32,6.35-58.28-.39-22.44-.36-44.98-.12-67.43.51-47.6,2.49-95.18,2.77-142.78.13-21.89-.06-43.78.65-65.66.53-16.4,9.81-53.11-4.75-66.34-10.57-9.61-37.23-6.04-47.54.88-14.61,9.81-15.13,31.89-19.28,47.64-5.96,22.64-15.4,41.17-25.79,61.88-8.62,17.19-6.59,32.67-6.32,51.44.36,24.68-4.06,38.03-9.22,61.39-3.45,15.64-5.29,16.75-15.54,28.74-20.29,23.74,25.2,65.51,43.54,83.02,13.73,13.11,27.75,25.18,40.91,38.56,10.64,10.82,21.09,19.34,34.35,26.95Zm143.9-414.94c-21.58,4.96-43.71-.03-48.4,26.19-4.44,24.8,1.12,53.09,1.69,78.19.3,13.19-6.47,66.43,5.78,75.09,5.12,3.62,17.76-1.97,24.31-.38,6.15,1.49,11.16,8.06,16.92,8.06,1.49-61.99-.12-123.99-.31-187.14Z"/>
</svg>