<?xml version="1.0" encoding="UTF-8"?>
<svg id="Calque_1" data-name="Calque 1" xmlns="http://www.w3.org/2000/svg" viewBox="0 0 1024 1024">
  <defs>
    <style>
      .cls-1 {
        stroke-width: 0px;
      }
    </style>
  </defs>
  <path class="cls-1" d="m725.37,835.75c-25.55,3.02-64.24-31.73-84.15-44.97-11.85-7.88-23.33-17.51-35.67-24.56-15.48-8.84-33.59-9.42-49.83-16.8-27.01-12.28-50.46-32.85-62.49-59.5-6.11-13.53-8.08-14.63-22.55-8.06-15.65,7.11-31.37,19.17-44.65,30.13-5.31-6.73,9.11-22.36,7.46-30.94-2.35-12.21-17.93-17.32-27.54-24-10.94-7.61-21.52-15.48-33.76-21.11-9.38-4.31-26.64-5.31-30.25-16.56,6.59-10.35,38.17-7.19,50.45-13.75,12.89-6.88,33.21-24.66,24.25-40.73-6.66-11.95-31.96-22.84-44.06-28.92-17.23-8.66-36.47-13.04-52.08-24.9-66.78-50.74-57.96-161.78,10.75-204.72,6.93,4.02,2.15,22.39,2.89,29.17,1.32,12.05,6.69,23.27,9.76,34.91,2.56,9.71,6.67,22.15,6.78,32.1.18,16.98-7.78,34.82-9.72,51.6-2.25,19.45,12.85,46.67,37.96,39.94,5.27-1.41,16.15-15.87,20.19-19.4,10.1-8.81,21.26-15.91,31.33-24.72,15.04-13.16,43.71-33.51,52.01-52.22,7.2-16.23-3.31-18.8-16.6-29.97-9.26-7.78-19.7-15.4-28.27-23.84-15.24-15-32.52-32.47-31.47-55.23.2-4.45,2.73-24.96,9.09-26.84,6.86-2.02,24.85,19.7,28.96,23.74,3.95,3.89,10.25,13.93,16.97,13.97,9.42.05,17.08-16.48,22.64-23.09,13.4-15.93,35.98-43.63,58.34-46.68,24.93-3.4,47.46,17.62,71.76,1.18,13.23-8.95,32.35-45.83,48.82-42.69,6.99,1.33,25.17,25.94,30.02,30.64,9.85,9.53,19.95,18.84,30.27,27.86,5.76,5.03,25.47,16.89,26.19,24.81.91,10.14-16.19,15.88-22.97,21.7-18.05,15.5-33.8,37.2-34.84,61.19-1.49,34.25,3.61,70.83,7.53,104.87,7.28,63.2,7.38,127.24,9.93,190.77,1.4,34.87,4.69,71.03.48,105.72-4.28,35.21-4.74,51.49,16.09,79.93Zm-199.26-270.67c.02.24.05.48.07.72,20.48-2.24,38.07-12.83,58.08-17.74,19.24-4.72,20.99-6.32,22.86-26.98,1.02-11.25,9.41-94.23-2.33-94.82-8.22-.41-27.3,30.73-31.79,36.67-12.58,16.67-24.26,34.04-37.45,50.26-9.07,11.15-20.29,19.76-26.41,33.03-9.53,20.64-1.87,20.57,16.97,18.85Zm84.8,75.53c.21,0,.42,0,.63,0,0-14.48,1.82-18.79-12.84-17.38-10.01.96-24.56,9.01-31.83,15.97-16.46,15.74-10.27,43.1-6.12,63.81,2.96,14.76,28.4,48.53,45.94,31.91,7.22-6.85,3.3-36.07,3.43-44.25.27-16.69.52-33.38.78-50.07Z"/>
</svg>