<?xml version="1.0" encoding="UTF-8"?>
<svg id="Calque_1" data-name="Calque 1" xmlns="http://www.w3.org/2000/svg" viewBox="0 0 1024 1024">
  <defs>
    <style>
      .cls-1 {
        stroke-width: 0px;
      }
    </style>
  </defs>
  <path class="cls-1" d="m365.9,199.7c27.53,0,54.18-1.01,81.18,4.34,21.98,4.35,43.61-3.34,66.06-4,22.7-.67,46.88-3.25,68.34,5.01,10.65,4.1,13.48,6.47,24.6,3.07,10.99-3.35,22.78-9.2,33.57-13.41,15.51-6.05,28.3-24.91,41.45-11.25,4.36,4.54,1.15,8.29,8.13,12.45,9.47,5.64,34.01,4.07,44.67,4.94,18.63,1.52,41.72-2.31,53.83,14.51,6.9,9.57,22.03,56.56,16.7,67.67-6.38,13.29-46.73,5.89-60.09,5.96-23.96.14-43.88-2.12-54.94,21.8-8.19,17.73-21.66,46.11-2.47,61.28,16.73,13.22,47.01-.03,62.29,13.21,7.83,6.78,8.51,41.71.35,48.75-14.81,12.79-58.3,2.5-75.81,1.76-44.41-1.88-113.86-12.54-154.81,8.86-12.43,6.5-41.02,28.07-40.9,43.23.09,11.74,22.61,44.49,31.4,52.21,17.61,15.48,34.82,9.39,53.83,1.49,25.81-10.73,47.75-12.68,75.1-7.57,21.88,4.08,38.02,7.24,56.28,20.86,19.24,14.35,29.68,33.93,46.24,50.53,13.64,13.67,24.77,6.35,19.96,25.74-5.17,20.84-9.56,42.9-17.63,63.01-20.14,50.17-63.28,71.93-105.57,100.95-38.23,26.23-79.08,61.23-129.74,47.01-34.48-9.68-81.42-44.86-76.52-84.45,5.71-46.13,37.63-83,61.82-120.65,9.25-14.4,32.08-42.73,20.12-59.05-6.25-8.53-25.22-12.18-34.11-19.62-10.59-8.87-18.32-21.31-27.37-31.67-6.51-7.44-35.06-42.12-47.53-23.92-12.22,17.83,38.27,37.97,26.71,55.6-11.22,17.11-42.92-17.16-48.85-25.11-15.49-20.77-31.98-37.87-56.42-48.46-21.99-9.53-45.05-12.44-63.18-30.13-13.8-13.47-38.53-43.94-44.11-62.45,13.26-3.38,31.09.12,45.06-.38,19.62-.7,38.13-3.73,57.46-6.66,33.74-5.12,65.82-8.26,100.04-9.16,34.48-.9,63.17-3.49,95.49-15.43,10.52-3.89,20.88-5.95,17.01-22.01-3.07-12.74-15.6-11.81-25.79-16.19-26.64-11.45-51.51-32.4-81.13-34.9-33.47-2.82-77.71,10.41-109.53-.5-23.18-7.95-40.3-47.72-39.07-70.59,1.74-32.28,65.36-18.46,87.9-17.97v1.28Zm292.32,506.86c-1.15-41.92-38.19-85.35-81.17-89.69-37.91-3.83-66.98,36.41-64.52,72.1,2.96,42.85,47.66,63.47,82.37,77.94,17.58,7.33,32.93,8.9,49.43-3.45,19.22-14.39,14.95-35.72,13.89-56.9Zm-71.62-395.35c-3.54,13.06-12.62,20.54-10.58,34.22,1.8,12.07,11.64,19.12,24.65,16.03,30.23-7.18-.83-42.06-14.07-50.25Z"/>
</svg>