<?xml version="1.0" encoding="UTF-8"?>
<svg id="Calque_1" data-name="Calque 1" xmlns="http://www.w3.org/2000/svg" viewBox="0 0 1024 1024">
  <defs>
    <style>
      .cls-1 {
        stroke-width: 0px;
      }
    </style>
  </defs>
  <path class="cls-1" d="m764.39,617.02c5.78,8.03-3.94,23.51-5.33,31.84-2.21,13.24-1.63,26.94-3.37,40.26-3.58,27.26-9.52,51.29-27.02,72.94-31.46,38.91-84.18,54.96-125.58,82.1-31.32,20.53-101.33,68.93-136.71,38.57-20.08-17.23-37.6-39.12-47.18-63.81-11.93-30.76-10.17-50.52,2.88-79.85,10.78-24.23,25.34-41.86,42.53-61.83,14.49-16.84,38.92-41.51,41.75-64.8,3.95-32.55-25.33-10.52-39.79-1.61-18.85,11.62-41.47,20.89-62.93,25.82-58.81,13.51-92.16-69.06-104.35-112.76-13.43-48.17-19.83-113.52,1.86-160.17,22.02-47.35,71.68-84.42,125.61-72.02,55.12,12.67,73.82,76.09,72.87,125.65-.54,28.14-7.11,56.55,2.58,83.97,4.79,13.57,13.42,25.44,19.04,38.7,5.44,12.84,8.05,27.13,16.93,38.25,13.26,16.6,30.49,31.43,50.67,38.37,18.65,6.42,54.81,17.78,69.99.4,12.56-14.38,15.51-47.73,8.91-64.75-13.45-34.66-40.2-22.33-63.19-8.69-14.97,8.88-47.08,18.62-57.49-1.62-11.15-21.66,14.41-50.42,32.27-57.14,46.75-17.59,112.89,4.58,123.64,55.92,9.93,47.43-17.84,114.43-58.91,142.15-25.63,17.3-54.98,18.56-80.63,1.48-18.3-12.19-43.63-32.04-62.84-11.74-19.13,20.22-18.96,61.73-7.58,85.65,10.76,22.62,39.16,43.54,62.1,52.36,26.32,10.12,55.93,8.1,81.06-4.27,26.09-12.83,28.22-35.41,34.23-61.16,7.02-30.08,25.98-47.1,48.88-66.85,10.74-9.26,20.62-17.16,28.62-28.95,7.07-10.42,9.39-22.54,16.49-32.42Zm-336.44-21.38c9.62-1.17,19.74-4.04,28.46-8.53,15.33-7.89,15.92-12.07,13.07-26.65-5.41-27.58-13.97-50.97-14.55-80.02-.63-31.36,8.62-56.51,13.49-86.32,2.97-18.18-3.51-42.72-25.32-44.58-56.11-4.78-89.35,66.52-93.89,111.81-5.86,58.55,11.06,127.97,78.74,134.29Z"/>
  <path class="cls-1" d="m488.34,206.52c-61.63,1.08-123.25,2.09-184.88,3.45-6.9.15-35.18,4.75-41.37.45-6.92-4.8-3.46-25.22-3.27-33.52.15-7-1.94-31.98,2.76-37.67,6.47-7.81,30.05-3.65,40.19-3.54,58.67.63,117.32.38,175.99.08,62.62-.32,126.03,3.06,188.38-1.53,20-1.47,47.99-8.49,63.44,8.07,16.08,17.24,12.73,48-9.09,58.57-21.03,10.18-36.71-3.97-38.14,26.25-1.56,32.98-.31,66.37-.4,99.39-.04,14.72-6.58,51.1,7.22,60.65,6.18,4.27,16.03-2.59,24.32,5.56,7.08,6.97,13.9,22.72,8.24,29.81-8.58,10.75-63.23,2.02-76.09,2.03-16.58.02-63.29,8.2-63.33-15.09-.02-11.18,13.82-17.21,19.78-24.03,9.8-11.2,9.38-21.76,9.61-36.28.47-30.53-.47-61.1-.83-91.63-.11-9.04,4.72-35.35.68-44.01-4.75-10.18-13.65-7.37-24.37-7.4-32.95-.06-65.91.25-98.86.25,0,.04,0,.09,0,.13Z"/>
</svg>