<?xml version="1.0" encoding="UTF-8"?>
<svg id="Calque_1" data-name="Calque 1" xmlns="http://www.w3.org/2000/svg" viewBox="0 0 1024 1024">
  <defs>
    <style>
      .cls-1 {
        stroke-width: 0px;
      }
    </style>
  </defs>
  <path class="cls-1" d="m731.24,651.9c-4.57,55.94-12.08,95.08-61.12,127.81-36.92,24.64-72.58,48.6-108.29,75.01-41.68,30.82-79.76,50.44-124.07,13.93-30.57-25.19-63.05-63.22-48.81-105.24,16.45-48.55,41.56-84.26,74.51-122.85,13.47-15.78,24.24-31.99,33.33-50.76,10.1-20.85,15.61-39.98,37.04-52.39,19.52-11.3,41.12-6.43,62.33-3.78,22.09,2.76,45.96,3.53,67.36,10.01,50.1,15.16,66.57,60.63,66.57,108.2.38.02.76.04,1.14.06Zm-260.56,61.5l-.94.02c1.64,27.56,6.12,37.56,23.9,57.63,15.61,17.62,39.44,35.44,63.12,39.75,50.39,9.17,88.09-29.91,82.43-78.51-6.4-54.88-22.63-104.46-82.07-120.28-50.37-13.4-86.43,60.68-86.43,101.39Z"/>
  <path class="cls-1" d="m293.46,460.18c10.96,5.67,20.89,16.1,32.42,20.06,16.97,5.83,20.47-4.06,28.37-17.12,13.25-21.88,28.92-53.89,49.7-69.27,24.74-18.3,60.97-13.26,89.66-11.66,17.94,1,75.82-2.05,87.32,14.87,9.66-15.32,5.84-39.16,6.05-56.4.2-16.62.26-33.24.24-49.86-.02-26.4,10.38-63.2-22.49-68.65-22.75-3.78-81.54,8.76-83.31-24.39-.65-12.15,10.88-45.33,19.08-54.57,7.33-8.27,20.77-7.6,31.33-7.63,20.2-.07,40.48,2.67,60.73,2.88,16.62.17,36.65-2.8,51.64,5.77,10.09,5.77,22.54,20.28,24.89,32.21,2.41,12.2-6.66,27.29-9.49,39.22-8.65,36.44-4.41,77.25-4.46,114.42-.03,17.82-.98,35.97.61,53.75,1.72,19.22,2.77,21.46,21.47,14.87,8.16,10.49,17.01,24.38,4.31,35.15-9.96,8.45-38.2,3.43-50.95,3.73-35.69.84-70.55-.5-106.24,2.15-20.34,1.51-72.51-1.06-70.24,27.25,1.21,15.03,41.89,62.74,18.22,71.29-26.13,9.44-41.6-43.8-68.82-42.57-35.92,1.62,8.36,39.01,8.47,50.56.11,11.01-21.05,17.61-29.13,17.61-15.47-.01-26-9.46-35.47-20.14-22.4-25.26-31.7-57.03-54.61-82.3.23-.41.46-.82.7-1.24Z"/>
</svg>