<?xml version="1.0" encoding="UTF-8"?>
<svg id="Calque_1" data-name="Calque 1" xmlns="http://www.w3.org/2000/svg" viewBox="0 0 1024 1024">
  <defs>
    <style>
      .cls-1 {
        stroke-width: 0px;
      }
    </style>
  </defs>
  <path class="cls-1" d="m333.4,914.66c-12.21-60.27-4.37-128.95-4.45-190.24-.08-62.45-.16-124.89-.26-187.34-.11-65.91-.22-131.81-.33-197.72-.05-29.29-.09-58.58-.13-87.88-.02-17.14,8.52-51.61-9.1-57.67-12.02-4.13-31.53.96-44.12-.36-14.94-1.57-10.75-1.41-17.16-10.95-4.31-6.43-28.19-54.78-23.11-61.58,6.54-8.77,55.83-1.74,65.34-1.74,31.02,0,62.04-.06,93.06.03,63.73.2,127.43.6,191.16.08,55.58-.46,114.46,3.9,169.46-5.59,24.03-4.14,46.06-13.41,31.59,20.48-5.14,12.03-12.66,22.02-16.66,34.66-3.51,11.13-1.01,13.08-12.34,17.86-19.73,8.33-56.77,1.95-77.8,2.24-32.22.46-64.44.63-96.66.72-30.35.08-60.7.04-91.05-.2-25.32-.2-63.6-8.15-87.66.02-18.52,6.3-10.15,41.23-10.15,58.47,0,31.61-.9,63.32-.11,94.92.18,7.3-2.04,20.22,5.61,23.69,8.4,3.81,22.03-6.53,28.09-11.07,18.8-14.07,33.86-32.82,51.8-47.99,18.98-16.05,31.8-27.74,57.04-29.89,29.1-2.48,61.57,3.05,89.92,9.48,112.43,25.52,118.61,184.13,75.6,268.82-12.58,24.77-34.23,47.86-60.55,57.96-32.09,12.31-67.6,2.45-100.46-.26-31.07-2.56-56.15-7.06-84.13-21.06-12.85-6.43-23.77-12.57-35.17-21.59-5.09-4.03-18.95-20.1-27.4-17.52-10.65,3.25-3.99,78.07-3.99,88.82-.02,34.57-.05,69.15-.2,103.72-.13,28.26,6.58,67.61-8.97,92.37-15.63,24.9-29.4,50.93-45.1,75.95-.54.12-1.07.23-1.61.35Zm243.82-383.8c0,.05,0,.1,0,.15,34.51,0,61.17-5.53,79.82-38.13,14.75-25.77,11.06-57.32-6.95-79.7-20.25-25.16-38.58-40.53-70.74-47.01-33.47-6.74-77.09-13.46-110.7-5.63-11.14,2.6-26.82,9.97-36.57,15.82-7.21,4.32-12.51,12.67-18.9,18.02-3.47,2.9-11.36,6.19-13.83,8.92-9.3,10.3-5.5,28.88-5.64,44-.18,19.97-.47,24.85,14.83,36.12,10.73,7.91,15.93,19.6,26.67,26.74,10.63,7.07,26.66,12.3,38.97,15.37,32.96,8.24,69.32,5.33,103.03,5.33Z"/>
</svg>