<?xml version="1.0" encoding="UTF-8"?>
<svg id="Calque_1" data-name="Calque 1" xmlns="http://www.w3.org/2000/svg" viewBox="0 0 1024 1024">
  <defs>
    <style>
      .cls-1 {
        stroke-width: 0px;
      }
    </style>
  </defs>
  <path class="cls-1" d="m744.95,367.1c-13,42.25-49.15,93.99-97.35,96.3-25.83,1.24-49-18.65-73.23-16.54-22.15,1.93-29.32,26.67-16.84,43.3,14.13,18.84,42.08,18.03,61.73,26.93,23.53,10.65,53.53,32.48,60.49,58.8,13.67,51.63-39.65,101.12-78.61,124.16-21.35,12.63-47.05,27.46-72.46,27.5-29.84.05-61.91-15.46-86.85-30.51-10.34-6.24-21.12-11.57-31.65-17.45-6.33-3.54-16.67-15.11-22.53-16.72-13.84-3.81-10.94,15.13-10.98,26.32-.06,17.51.19,35.06-.62,52.56-1.37,29.66-3.51,48.04-23.12,70.85-8.8,10.23-42.08,47.73-53.51,36.81-4.81-4.59-.02-35.39.16-42.83.36-14.49.72-28.97.96-43.46.56-33.39.14-66.78.74-100.16,1.28-71.05,3.21-142.03,3.37-213.1.08-34.96-.29-69.98,1.08-104.92.59-15.07-.35-32.9,3.43-47.49,3.78-14.6,12.6-22.11,21.49-33.86-13.58-5.9-36.42,1.21-48.01-6.34-9.42-6.14-13.72-36.07-18.53-46.51-2.72-5.89-17.86-24.2-15.29-31.61,2.85-8.21,56.81-3.26,64.97-3.33,88.1-.75,176.2-.94,264.3-.97,40.73-.02,81.45-.08,122.18.1,18.56.08,48.9-5.61,66.28.47,17.15,6,5.56,13.27-1.86,28.05-6.6,13.14-10.73,36.1-24.05,43.72-12.36,7.07-40.49,6.46-54.74,7.99-43.12,4.63-87.11,4.03-130.41,4.37-40.33.32-80.65.41-120.98.59-11.25.05-42.49-5.45-51.91,2.61-12.57,10.76-11.5,45.8-10.9,60.59,1.61,39.56,6.93,78.68,7.19,118.43.28,43.03-2.63,86.73.65,129.7,1.9,24.86,9.69,16.41,29.52,24.78,16.49,6.96,29.35,22.38,44.49,31.97,29.35,18.61,69.23,46.97,104.3,50.4,42.82,4.2,53.17-28.21,26.9-56.72-11.7-12.7-25.67-23.06-39.39-33.45-16.05-12.14-42.51-24.5-50.49-43.84-6.79-16.48-3.1-40.06-1.76-57.25,1.96-25.04,2.2-42.26-9.2-65.15-7.65-15.35-17.87-31.96-21.88-48.8-2.09-8.8-7.61-7.61-.73-14.95,5.31-5.67,21.2-4.96,28.21-5.27,42.07-1.87,89.68-3.22,131.07,6.34,22.29,5.15,39.81,15.72,63.17,16.34,22.64.6,39.76-4.54,61.19-8.77Z"/>
</svg>