<?xml version="1.0" encoding="UTF-8"?>
<svg id="Calque_1" data-name="Calque 1" xmlns="http://www.w3.org/2000/svg" viewBox="0 0 1024 1024">
  <defs>
    <style>
      .cls-1 {
        stroke-width: 0px;
      }
    </style>
  </defs>
  <path class="cls-1" d="m338.28,701.65c34.73-26.26,68.86-47.22,92.3-85.28,19.93-32.36,30.93-71.28,35.22-108.81,2.28-19.95-10.62-34.54-25.7-47.16-8.19-6.86-33.14-22.62-43.08-8.79-8.71,12.12,12.62,34.62,19.79,42.06,13.83,14.34,27.56,19.83,31.09,40.62-11.46,10.2-23.75,26.34-38.74,31.45-19.1,6.51-31.25-7.52-43.86-19.76-29.17-28.29-40.73-50.57-37.61-92.13,1.04-13.85-.43-28.38,11.05-35.48,10.49-6.49,26.37-5.51,37.97-13.56,11.16-7.75,20.14-18.66,31.09-26.72,12.33-9.07,30.44-19.42,27.72-38.17-5.01-34.52-62.48-51.06-54.69-91.5,2.57-13.35,9.55-18.27,21.36-13.32,7.85,3.3,12.37,17.76,21.77,19.42,11.27,1.99,15.5-6.34,23.15-14.09,10.81-10.95,22.23-21.72,34.49-31.08,16.27-12.41,24.81-8.5,40.7,3.57,14.65,11.13,26.76,24.69,39.06,38.27,10.61,11.72,22.49,32.87,39.7,34.15,6.66.49,30.36-11.37,35.13-7.44,8.66,7.15-7.58,27.82-12.4,35.97-16.24,27.44-62.37,62.08-48.16,98.3,11.16,28.43,44.87,53.74,66.36,74.21,15.14,14.42,29.4,30.21,43.11,45.98,14.61,16.81,16.12,23.9,1.32,42.26-10.38,12.89-47.18,61.02-65.95,52.4-11.88-5.45-19.45-30.59-27.8-40.71-9.1-11.02-29.96-39.41-44.75-41.99-16.49-2.87-8.23,12.9-4.87,25.31,4.83,17.81,8.48,35.34,10.96,53.64,2.16,15.94,3.22,32.13,7.64,47.65,4.93,17.31,16.3,34.03,8.85,52.4-15.09,37.21-39.39,63.31-73.23,84.63-10.68,6.73-27.09,23.43-32.04,7.9-2.12-6.64,2.87-19.49,3.29-26.48.85-14.25-.98-28.59-1.92-42.78-1.25-18.97,2.8-110.63-24.63-106.4-16.17,2.49-36.47,28.61-49.82,37.67-14.76,10.02-35.36,23.46-53.51,25-.12-.4-.24-.81-.36-1.21Z"/>
</svg>