<?xml version="1.0" encoding="UTF-8"?>
<svg id="Calque_1" data-name="Calque 1" xmlns="http://www.w3.org/2000/svg" viewBox="0 0 1024 1024">
  <defs>
    <style>
      .cls-1 {
        stroke-width: 0px;
      }
    </style>
  </defs>
  <path class="cls-1" d="m366.55,463.86c0,47.82-1.33,95.82.53,143.61,1.53,39.34,9.34,69.88,35.79,99.85,23.34,26.45,57.39,25.04,81.4.55,28.43-29.01,34.5-68.69,32.88-107.73-1.63-39.17-1.81-84.23-13.36-121.83-5.06-16.46-15.68-32.14-7.36-49.61,7.99-16.77,24.54-17.8,41.49-14.78,39.63,7.07,66.64,14.38,105.24-2.35,13.88-6.02,25.35-13.31,38.05-21.5,12.02-7.74,28.69-23.25,41.94-27.4-1.7,16.91-21.04,39.52-29.64,54.67-10.25,18.05-22.14,34.28-36.28,49.5-13.87,14.93-29.89,24.71-46.2,36.65-19.04,13.94-26.36,30.91-31.05,53.77-9.18,44.76-12.34,85.63-40.03,123.94-25.42,35.17-63.37,67.74-100.36,90.15-17.03,10.31-33.66,19.96-53.56,23.25-21.04,3.48-41.28.74-60.01,12.06-6.91,4.17-30.91,27.47-40.02,17.86-4.51-4.75,2.86-14.86,4.29-19.54,3.8-12.43,4.27-25.38,4.64-38.28,2.9-102.61,1.27-205.74,2.11-308.43.19-23.25.37-46.5.56-69.76.21-25.24-3.96-56.22,2.68-80.84,4.03-14.94,11.16-17.41-6.41-20.18-16.75-2.65-57.24,10.6-71.28-1.5-10.45-9-27.97-75.1-18.65-85.55,6.01-6.73,49.79-.87,59.25-.86,24.23.02,48.45.05,72.68.06,102.23.05,204.45-.19,306.68-.07,53.49.06,107.29-1.38,160.75.4,19.74.66,20.94,2.88,18.45,23.27-1.27,10.4-3.69,20.54-5.78,30.79-1.05,5.16-1.59,24.21-4.44,27.77-7.66,9.56-49.79,5.57-62.92,6.16-23.34,1.05-46.11.73-69.44,0-57.15-1.77-114.66.44-171.84.84-28.72.2-57.45.47-86.17.51-16.35.02-46.74-7.63-53.24,8.61-3.57,8.92-.17,26.6-.23,36.33-.08,13.84-.17,27.68-.24,41.52-.17,29.36-.32,58.73-.32,88.09-.19,0-.38,0-.57,0Z"/>
</svg>