<?xml version="1.0" encoding="UTF-8"?>
<svg id="Calque_1" data-name="Calque 1" xmlns="http://www.w3.org/2000/svg" viewBox="0 0 1024 1024">
  <defs>
    <style>
      .cls-1 {
        stroke-width: 0px;
      }
    </style>
  </defs>
  <path class="cls-1" d="m731.53,687.52c-10.38,21.65-28.48,40.7-45.1,57.96-15.74,16.34-29.93,34.62-45.98,50.35-41.27,40.45-106.7,42.87-160.04,26.78-23.49-7.08-44.73-20.45-62.95-36.83-7-6.29-14.12-13.6-18.3-22.07-5.32-10.77-2.99-22.06-15.76-26.21-17.25-5.62-54.01,9.67-67,20.55-17.67,14.8-24.72,40.3-40.63,56.72-.53-.23-1.05-.47-1.58-.7,0-35.45,33.15-73.18,63.45-87.4,35.79-16.8,70.06-37.51,99.39-64.39,12.72-11.66,25.08-27.26,32.38-43.09,9.39-20.37-1.71-23.77-11.68-39.3-18.84-29.35-28.41-71.97-31.97-106.21-4.24-40.86,13.6-75.38,47.96-97.07,17.29-10.91,35.85-14.18,56.1-14.31,11.52-.07,23.12.76,34.59,1.76,5.21.45,20.32,5.42,25.03,3.55,13.08-5.19,8.82-31.3,8.8-43.42-.02-16.01,4.58-39.88-12.19-45.5-18.94-6.35-50.62.4-70.99.56-27.34.22-54.69.45-82.04.31-52.21-.27-104.41-1.7-156.63-1.98-10.18-.05-34.61,4.69-43.73-.21-9.44-5.07-3.38-3.25-2.52-16.17,1.23-18.65-2.41-47.22-9.02-64.18,9.25-9.61,58.2-2.11,71.5-2.18,28.36-.15,56.72-.16,85.08-.16,58.74,0,117.48.03,176.23.06,58.4.03,116.81-.16,175.21.3,26.79.21,26.8,12.14,40.21,33.69,10.82,17.39,22.19,34.65,33.51,51.71-25.54,0-51.1-1.51-76.66-1.74-24.68-.22-58.44-7.03-81.97-1.12,3.64,13.59,13.73,23.45,16.14,38.05,2.7,16.42,1.24,34.24,1.66,50.8.32,12.44,4.32,29.1,1.68,40.93-3.31,14.81-8.15,11.69-26.8,12.37-31.54,1.15-63.3.12-94.86.15-28.5.02-77.63-9.42-82.64,28.54-4.91,37.22,17.74,56.69,35.18,85.88,15.7,26.29,21.24,49.61,47.87,68.43,20.63,14.58,54.34,26.51,80.04,20.46,24.89-5.86,20.69-47.48,17.58-67.85-4.33-28.38-21.36-46.49-48.13-28.76-22.65,14.99-57.18,33.56-69.36-3.52-2.54-7.73-5.96-25.86-2.33-33.76,5.92-12.89,15.56-11.51,28.69-13.16,28.84-3.63,61.39-7.46,86.8,9.77,49.49,33.57,49.04,110.46,17.65,156.08-35.9,52.18-90.9,54.42-137.24,14.8-11.24-9.61-14.36-13.46-28.27-4.55-12.08,7.74-20.16,18.76-18.41,33.76,3.79,32.39,39.19,45.54,65.83,52.19,35.6,8.89,66.64,17.11,100.41-.51,31.63-16.51,63.63-32.98,94.73-50.46.36.1.72.2,1.09.31Z"/>
  <path class="cls-1" d="m273.19,518.66c.7-36.96,1.73-73.71.21-110.67-.37-9.01-8.11-49.21,3.23-55.8,7.18-4.18,22.67,15.46,25.87,21.93,16.55,33.42,6.24,86.81,7.85,122.94,1.51,33.82,11.97,80.16,42.7,100.27,15.34,10.04,36.75,9.28,53.82,5.17,9.27-2.23,39.72-21,44.37-8.39,5.17,14-59.17,56.3-70.53,62.29-28.78,15.17-65.12,3.18-83.75-22.28-24.68-33.73-20.79-76.21-23.77-115.47Z"/>
</svg>