<?xml version="1.0" encoding="UTF-8"?>
<svg id="Calque_1" data-name="Calque 1" xmlns="http://www.w3.org/2000/svg" viewBox="0 0 1024 1024">
  <defs>
    <style>
      .cls-1 {
        stroke-width: 0px;
      }
    </style>
  </defs>
  <path class="cls-1" d="m710.29,891.47c-19.41-3.68-35.86-35.06-45.99-49.85-17.64-25.76-17.65-47.32-18.03-77.84-.73-58.44,3.05-120.48-6.75-178.1-21.92-1.92-51.13,15.16-68.05,27.93-22.13,16.7-45.49,12.23-70.61-1.22-51.22-27.41-67.96-90.3-94.28-137.26-17.93-31.99-16-62.3-16.45-98.23-.46-36.83-.78-73.67-.95-110.51-.04-9.26,4.31-35.06-2.97-43.1-6.17-6.82-23.19-4.35-31.61-9.31-20.72-12.19-37.96-40.89-44.05-63.83-4.08-15.35-1.31-15.09,14.36-15.37,15.95-.28,31.96.29,47.92.15,29.46-.27,67.23-6.95,95.53,3.3,20.36,7.38,36.78,41.04,24.14,61.57-5.64,9.17-12.65,5.16-20.07,9.69-15.78,9.62-11.34,34.24-11.59,50.75-.5,32.06-1.28,64.1,2.38,96.01,1.51,13.14,5.72,18.66,10.2,29.3,6.72,15.94,6.16,33.41,10.44,50.81,11.82,48.17,46.78,118.85,96.55,136.99,20.1,7.33,51.5-.98,58.8-21.71,5.3-15.05,2.84-37.9,3.63-53.56.9-17.87,3.48-36.75,1.86-54.65-2.67-29.44-21.34-61.81-44.36-79.98-13.33-10.53-29.24-20.61-46.45-20.79-7.6-.08-44,13.81-46.19,11.5-4.34-4.59,42.65-58.23,48.48-65.87,20.79-27.23,45.73-8.07,67.66,10.07,47.04,38.92,84.39,100.46,89.22,162.27,5.56,71.17-1.63,145.47-1.89,216.94-.26,70.85,3.88,143.21-.87,213.89Z"/>
</svg>