<?xml version="1.0" encoding="UTF-8"?>
<svg id="Calque_1" data-name="Calque 1" xmlns="http://www.w3.org/2000/svg" viewBox="0 0 1024 1024">
  <defs>
    <style>
      .cls-1 {
        stroke-width: 0px;
      }
    </style>
  </defs>
  <path class="cls-1" d="m481.54,297.9c-44.4-27.85-40.54,113.31-40.68,131.65-.5,63.53-1.94,126.79-1.24,190.36.34,30.41-.62,60.69-2,91.06-1.54,33.84-13.26,48.94-35.55,73.57-15.26,16.87-32.64,34.73-52.03,46.74-13.34,8.27-54.31,27.26-30.93-1.04,38.26-46.34,28.21-108.57,29.09-165.87.96-62.91,2.56-125.8,3.97-188.7.64-28.66.71-57.28.77-85.95.06-28.43,4.85-55.02-6.76-82.04-5.55-12.94-13.22-25.18-23.48-34.94-5.64-5.37-19.63-10.12-22.65-16.76-8.12-17.83,29.27-32.73,41.78-43.6,10.11-8.78,19.07-22.87,30.7-29.42,16.9-9.53,22.08-1.69,35.05,11.63,19.59,20.1,39.2,50.33,69.83,42.06,16.04-4.33,38.48-18.47,37.89,10.39-.49,23.83-17.45,37.08-33.74,50.85Z"/>
  <path class="cls-1" d="m491.9,723.85c-.65-21.9,26.25-34.49,39.98-47.68,17.44-16.75,30.09-37.51,47.6-54.16,33.15-31.51,59.85-69.63,23.15-110.99-14.87-16.76-29.57-30.89-41.1-50.28-13.53-22.76-26.87-40.68-44.9-60.24-15.11-16.4-29.21-26.34-30.91-49.93-1.6-22.09,7.26-39.11,26.84-50.36,12.61-7.25,29.92-18.72,44.6-22.63,26.13-6.96,41.72-5.87,60.14,13.05,5.37,5.52,13.99,18.07,21.22,21.47,11.12,5.22,15.02-.02,25.76-3.93,29.57-10.74,29.09,13.94,15.21,32.98-11.03,15.14-39.57,39.07-41.05,58.81-1.32,17.54,26.19,30.57,37.82,39.97,11.78,9.52,43.59,28.03,48.15,42.43,4.62,14.6-14.82,41.2-22.19,53.03-29.66,47.57-82.78,76.72-116.74,121.37-14.6,19.2-29.2,36.62-47.9,51.96-11.03,9.04-42.88,47.16-45.67,15.13Z"/>
  <path class="cls-1" d="m492.91,507.99c-25.27-2.47-52.68-8.57-44.41-41.15,7.09-27.98,31.18-32.94,55.46-24.78,16.97,5.7,40.43,23.53,40.92,43.28.67,26.41-34.12,22.17-51.86,21.37-.04.43-.07.86-.11,1.29Z"/>
</svg>