<?xml version="1.0" encoding="UTF-8"?>
<svg id="Calque_1" data-name="Calque 1" xmlns="http://www.w3.org/2000/svg" viewBox="0 0 1024 1024">
  <defs>
    <style>
      .cls-1 {
        stroke-width: 0px;
      }
    </style>
  </defs>
  <path class="cls-1" d="m353.23,319.75c-13.2-12.37-7.35-62.82-6.16-79.81.65-9.3,5.92-18.77-2.68-23.3-9.78-5.15-35.24-.17-46.26-.1-29.39.2-58.83-.42-88.21.25-4.48.1-27.4,4.49-30.83.05-1.91-2.47,4.19-30.17,4.97-33.8,1.89-8.86,5.58-24.6,10.73-32.31,6.88-10.3,9.79-9.6,22.83-10.03,30.94-1.01,62.02-.38,92.97-.56,63.25-.37,126.5-.7,189.75-.94,59.22-.22,118.44.47,177.65.2,26.92-.12,53.84-1.11,80.76-1.29,13.93-.09,27.85.11,41.78.48,5.14.14,39.92-3.12,43.74,2.51,4.85,7.13-9.81,29.29-12.75,36.11-2.23,5.16-8.12,29.59-11.81,32.96-12.51,11.46-54.52,4.35-71.31,4.15-16.61-.19-66.5-9.59-79.27,2.64-11.46,10.97-1.81,59.88-1.58,75.41,1.88,124.6-3.95,249.24-3.2,373.89.37,60.85.51,121.69,1.19,182.54.12,10.8,6.58,40.84-9.63,37.09-14.37-3.32-45.55-56.71-50.11-68.31-8.37-21.27-3.98-50.24-3.84-72.8.21-33.37.72-66.73,1.12-100.1.11-8.99,4.89-35.13-.06-42.34-6.66-9.7-15.34-4.03-26.35-.79-18.4,5.42-51.05,7.97-56.51,28.95-2.12,8.15,7.34,27.35-4.7,27.95-8.3.41-17.46-20.02-19.42-25.68-7.95-22.94-3.86-40.6,17.8-50.42,25.4-11.53,52.08-21.72,76.55-35.14,22.37-12.27,14.4-39.67,13.78-63.28-.37-13.95,3.34-39.54-2.09-52.81-4.62-11.3-11.76-9.88-23.59-11.2-33.35-3.7-66.04-6.64-99.63-6.11-29.25.46-62.49-3.33-87.59,14.07-24.13,16.73-43.78,39.82-53.37,67.82-19.83,57.89-9.64,129.93,14.63,184.29,12.29,27.53,32.01,51.25,55.59,70.15,19.38,15.53,53.17,23.25,66.13,43.97-34.48,15.54-75.3-14.02-101.33-34.95-33.56-26.98-61.12-57.18-74.37-98.83-13.45-42.3-12.07-84.51-10.83-128.32,1.22-43.18,8.41-81.97,31.14-119.31,19.81-32.55,47.78-61.33,82.96-76.35,40.73-17.38,88.36-13.02,131.74-8.15,14.28,1.6,41.51,10.26,55.14,5.86,14.05-4.54,11-41.02,11.03-54.79.03-14.25,5.06-44.94-.68-57.72-6.45-14.36-39.67-8.12-53.92-8.2-25.99-.15-51.99-.38-77.98-.26-17.63.08-47.7-4.13-61.52,6.18-9.4,7.01-10.25,18.68-15.42,29.36-11.69,24.15-26.44,46.46-37.01,71.11Z"/>
</svg>