<?xml version="1.0" encoding="UTF-8"?>
<svg id="Calque_1" data-name="Calque 1" xmlns="http://www.w3.org/2000/svg" viewBox="0 0 1024 1024">
  <defs>
    <style>
      .cls-1 {
        stroke-width: 0px;
      }
    </style>
  </defs>
  <path class="cls-1" d="m372.36,860.26c5.26-12.26,13.79-22.39,18.61-34.99,5.16-13.48,7.45-28.21,10.71-42.25,6.76-29.1,13.97-58.11,29.21-84.17,21.94-37.52,90.68-75.29,133.73-71.56,25.98-19.22,58.07-58.66,39.37-92.59-8.84-16.05-22-29.38-31.04-46-8.77-16.13-18.04-34.62-34.55-43.49-14.05-7.55-21.52-9.66-22.64,8.08-1.21,19.2,5.71,39.37,9.28,58.05,7.13,37.32-19.83,75.27-57.76,84.92-43.38,11.04-27.19-56.35-47.21-74.4-31.41-28.32-79.33-9.93-114.74-6.97-42.26,3.53-90.64-12.56-119.08-44.73-21.84-24.7-50.67-81.13-32.87-112.85,6.81,27.79,14.92,42.77,40.23,57.59,22.53,13.19,45.34,19.52,70.77,10.4,23.75-8.52,46.86-36.92,73.53-26.86,24.45,9.23,33.81,36.34,50.75,53.91,7.82,8.11,12.99,13.51,19.29,22.42,3.15,4.45,9.8,18.99,17.5,16.82,9.81-2.77,8.8-68.61,9.33-78.64,2.92-55.47,1.73-112.06,36.63-157.81-20.6-6.8-45.46-4.1-67.03-3.72-21.74.39-48.86-2.99-70.05,2.45-20.71,5.31-20.38,21.49-30.31,37.04-12.33,19.32-31.86,14.04-51.31,11.91-16.92-1.85-34.41,6.64-50.46,3.46-11.24-2.23-11.72-.51-6.86-14.06,2.85-7.95,8.43-14.94,13.53-21.5,24.33-31.32,59.12-47.64,81.33-80.84,12.97-19.38,16.67-26.54,40.77-26.97,25.2-.45,50.5.29,75.7.38,50.47.18,100.94.24,151.41.31,51.2.07,103.58-3.24,154.67,0,21.71,1.38,20.24,7.24,23.44,28.35,2.88,18.99,2.52,45.84,22.94,54.94-.05.36-.1.72-.15,1.08-42.34,6.45-89.06,1.77-131.88,2.14-38.06.33-84.46-6.53-120.99,4.49.99,22.45-3.08,77.27,20.78,86.72,14.64,5.8,42.24,2.18,57.84,2.92,23.78,1.11,47.57,1.77,71.37,2.18,43.93.75,87.88.58,131.81.57,9.58,0,40.03-5.4,48.13,1.88,5.44,4.89,2.82,12.52,3.84,19.45,1.55,10.6,6.35,20.34,9.63,30.47-52.23,3.64-106.2-.8-158.55-1.85-25.35-.51-51.14-1.41-76.42.95-12.32,1.15-56.42,1.28-59.92,16.03-2.7,11.41,24.02,33.27,30.25,44.05,7.32,12.66,14.85,44.75,29.98,49.83,17.87,6.01,9.57-25.46,15.9-38.09,11.12-22.19,40.26-23.22,62.11-24.49,50.37-2.91,80.28,2.18,92.99,54.19,12.09,49.45-6.24,94.5-39.21,131.05-13.75,15.24-26.94,22.98-48.05,23.82-26.13,1.05-45.33-15.74-68.89-23.71-24.76-8.38-23.31,11.23-15.76,30.56,7.72,19.76,22.08,29.95,41.1,38.54,24.03,10.85,58.59,22.83,84.9,12.84,19.93-7.57,41.56-27.38,56.26-42.59,34.47-35.66,36.36-94.36,78.34-122.85,7.01,6.62-12.02,39.69-14.74,47.46-7,19.97-9.29,39.88-15.06,59.94-10.4,36.13-44.44,57.95-70.95,80.95-14.95,12.97-23.11,26.08-41.44,35.02-17.97,8.77-36.25,17.01-56.07,20.25-41.86,6.84-76.02,1.73-110.21-24.27-29.71-22.58-49.97-40.49-30.7-76.09,3.68-6.8,28.71-39.7,22.94-46.08-8.14-8.99-35.49,15.26-39.92,20.54-24.97,29.77-33.22,73.64-47.9,108.9-15.71,37.72-55.49,78.21-96.66,88.15-.51-.53-1.02-1.05-1.53-1.58Zm264.07-323.33c-1.7,38.57,33.87,58.96,68.28,58.95,13.54,0,32.14-1.42,42.01-11.17,13.83-13.67,13.61-38.89,11.83-56.45-3.77-37.19-29.85-58.57-62.82-35.85-16.1,11.1-27.18,18.13-45.09,25.69-11.74,4.96-14.22,5.34-14.22,18.84Z"/>
</svg>