<?xml version="1.0" encoding="UTF-8"?>
<svg id="Calque_1" data-name="Calque 1" xmlns="http://www.w3.org/2000/svg" viewBox="0 0 1024 1024">
  <defs>
    <style>
      .cls-1 {
        stroke-width: 0px;
      }
    </style>
  </defs>
  <path class="cls-1" d="m745.84,554.01c13.65,26.49,6.4,68.82,4.91,97.73-1.69,32.74-8.2,56.61-33.82,79.26-20.83,18.41-51.45,27.95-76.3,39.89-23.85,11.47-41.09,32.63-63.41,47.28-53.67,35.25-114.56,39.5-166.47-2.54-20.75-16.81-37.48-49.69-66.32-48.94-33.9.89-44.9,26.6-68.55,43.45-5.37-46.95,81.12-88.68,113-110.59,26.15-17.97,47.42-43.96,68.65-67.43,12.21-13.5,51.34-49.66,34.44-69.31-17.94-20.86-39.05,5.43-53.54,15.2-21.41,14.43-56.87,36.18-83.47,31.6-57.97-9.98-66.48-100.36-84.95-142.8.5-.36,1-.73,1.5-1.09,12.26,12.69,16.42,28.67,31.81,39.45,16.25,11.38,36.66,13.35,54.29,21.64,29.71,13.98,62.98,22.32,95.94,16.98-1.81-.76-3.62-1.51-6.06-2.53,14.95-14-48.01-81.37-59.29-89.09-14.45-9.9-13.03-16.47-6.88-34.17,6.51-18.75,15.4-39.3,34.84-46.98,41.25-16.31,95.5-9.04,138.84-8.92,51.69.14,103.46,1.78,155.13.45,27.01-.69,21.95,1.19,25.93,23.65,1.69,9.51,8.57,13.07,1.3,19.45-8.16,7.16-38.6,2.86-47.91,2.76-52.59-.57-105.14-1.28-157.73-.36-24.48.43-49.14,3.21-72.88-4.09-15.35-4.72-31.8-8.98-33.7,14.1-1.61,19.5,19.49,27.54,32.26,37.51,15.71,12.26,27.77,29.09,36.92,46.67,16.54,31.74,28.94,69.58,60.14,90.88,16.34,11.16,43.62,12.79,62.67,12.91,25.96.17,35.71-13.44,41.16-38.42,6.33-29.03-12.78-98.58-54.54-73.86-9.33,5.53-14.82,18.23-24.57,23.31-7.79,4.06-21.26,4.22-29.93,4.85-25.57,1.86-30.64-14.37-30.41-38.57.23-24.37,12.97-25.7,35.63-28.13,25.84-2.76,56.45-3.49,82.17.37,40.23,6.03,57.56,54.5,53.43,90.83-4.8,42.22-23.2,74.08-52.4,104.45-12.54,13.04-29.49,29.06-48.49,30.96-24.15,2.41-40.87-13.93-59.76-25.32-12.27-7.4-33.32-23.95-47.33-16.48-21.6,11.51-29.19,43.23-26.07,65.05,6.58,46.13,78.53,61.47,117.32,60.41,23.26-.64,52.26-4.65,69.73-21.38,16.48-15.77,34.28-39.54,47.2-58.4,27.63-40.36,45.97-82.7,53.79-131.04.59-.21,1.18-.42,1.76-.64Z"/>
  <path class="cls-1" d="m669.74,262.2c-18.5,0-37,.12-55.51.2-17.51.07-41.55-4.06-58.46.37-12.86,3.37-11.64,6.87-11.86,20.72-.28,17.72.96,19.9-11.12,32.75,5.24,5.02-9.4,15.6-13.39,16.41-10.64,2.15-14.9-5.53-20.2-12.86,16.13-14.97-70.98-41.7-80.94-50.74-16.08-14.6-21.36-36.19-26.2-56.63-6.36-26.83-2.57-33.76,25.48-33.02,55.85,1.48,111.95-2.59,167.78-.82,42,1.34,59.51,53.64,84.77,82.03-.12.53-.23,1.07-.35,1.6Z"/>
</svg>