<?xml version="1.0" encoding="UTF-8"?>
<svg id="Calque_1" data-name="Calque 1" xmlns="http://www.w3.org/2000/svg" viewBox="0 0 1024 1024">
  <defs>
    <style>
      .cls-1 {
        stroke-width: 0px;
      }
    </style>
  </defs>
  <path class="cls-1" d="m660.82,553.73c.2-16.52-28.83-21.02-39.79-26.49-17.57-8.77-33.24-21.36-47.41-34.86-31.98-30.48-49.81-67.27-66.08-107.63-7.08-17.57-14.53-35.02-21.16-52.76-5.48-14.67-18.4-37.78-13.88-53.74,3.9-13.79,22.68-28.13,32.54-38.07,15.79-15.91,24.88-33.26,45.68-19.24,27.84,18.76,52.24,42.27,88.66,39.18,35.3-3,72.03-24.69,101.83-42.26,17.68-10.42,22.71-10.2,39.37,1.55,12.59,8.88,25.29,9.44,37.95,16.31,32.45,17.61-22.59,73.74-35.51,91.45-24.81,34.03-15.61,67.1-.14,103.81,17.16,40.73,31.36,73.34,34.34,118.19,2.72,40.96,2.73,82.1,3.92,123.12.64,21.95,1.6,43.89,2.56,65.83.52,11.82,10.19,65.52,1.77,73.5-14.87,14.08-55.75-47.18-62.9-59.41-19.3-32.99-22.25-71.09-23.45-108.48-.73-22.58,11.07-97.41-15.06-106.45-10.2-3.53-37.35,4.77-42.39,14.88-6.28,12.6,7.5,44.49,9.59,58.33,3.28,21.7,1.14,28.96-16.49,42.15-16.19,12.11-30.68,17.74-48.82,25.61-15.58,6.77-28.03,18.84-44.51,14.79-17.9-4.39-33.11-21.45-44.06-35.12-7.19-8.96-30.22-32.07-29.73-44,.71-17.35,30.05-21.32,42.45-23.01,42.04-5.73,74.7-14.45,110.71-37.17Zm8.29-92.73c20.9-1.57,40.08-2.46,39.02-28.52-.76-18.7-12.14-37.77-23.08-52.25-16.8-22.25-49.12-52.3-77.98-56.75-44.28-6.84-30.48,58.15-21.3,82.02,14.62,37.99,42.68,55.93,83.34,55.51Z"/>
  <path class="cls-1" d="m269.66,304.06c38.93,7.85,94.27,49.23,91.38,94.55-2.11,33.22-42.14,98.66-81.1,97.5-19.33-.57-38.69-29.3-49.96-43.19-13.4-16.52-29.88-41.69-33.63-63.01-8.39-47.69,26.28-85.47,73.21-85.47.03-.13.07-.25.1-.38Z"/>
</svg>