<?xml version="1.0" encoding="UTF-8"?>
<svg id="Calque_1" data-name="Calque 1" xmlns="http://www.w3.org/2000/svg" viewBox="0 0 1024 1024">
  <defs>
    <style>
      .cls-1 {
        stroke-width: 0px;
      }
    </style>
  </defs>
  <path class="cls-1" d="m640.44,710.78c-8.31,37.95-32.21,90.58-79.05,90.11-49.99-.5-69.58-59.59-93.09-92.41-12.93-18.05-27.12-34.06-39.89-9.05-11.75,23-19.55,47.78-32.25,70.41-19.5,34.76-67.66,54.6-102.88,69.15-6.65-18.73,29.23-49.54,37.99-65.22,12.13-21.7,21.31-48.87,22.12-73.84,1.66-51.06-10.42-102.36-9.26-153.86,1.24-55.19,2.53-110.37,2.75-165.57.09-23.97,5.69-52.3-.37-75.7-2.33-8.99-6.79-16.44-13.53-22.8-5.14-4.85-21.3-9.86-23.61-15.99-5.44-14.46,24.89-31.95,35.44-41.88,10.28-9.68,32.6-39.71,47.74-39.09,14.62.6,34.6,30.1,44.2,40.12,15.48,16.15,28.88,27.81,51.54,31.2,24.28,3.64,50.47,6.18,75.04,7,11.82.39,17.68-3.19,28.68-5.59,13.3-2.9,9.22-2.91,18.74,7.24,7.34,7.82,14.84,20.26,19.83,29.76,3.02,5.75,6.51,27.58,11.92,29.64,9.31,3.55,42.17-36,48.58-42.35,17.76,5.64,12.02,42.2,9.29,55.3-5.36,25.65-20.53,36.41-40.06,51.8-23.06,18.16-34.7,26.82-20.77,55.43,9.07,18.63,21.28,35.98,32.27,53.54,12.26,19.59,22.61,40.1,34.45,59.91,9.08,15.19,27.87,35.44,24.96,54.19-2.51,16.17-23.59,35.91-35.41,47.13-14.57,13.82-31.14,38.18-49.56,46.15-5.14-18.52-4.39-35.98-12.99-54.6-7.09-15.34-16.72-29.78-27.17-43-13.02-16.48-48.82-76.23-69.49-40.64-14.32,24.66,21.91,61.4,33.91,81.09,16.34,26.81,33.47,66.77,69.93,62.44Zm-205.41-368.63c-2.82,53.93,2.26,111.9,5.63,165.89,1.32,21.06,1.99,49.97,27.9,53.13,10.42,1.27,18.3,1.1,28.75,3.29,9.79,2.05,19.31,2.21,28.47-2.54,38.77-20.11,12.14-96.52-9.77-120.43-16.94-18.49-34.14-36.05-49.83-55.72-11.24-14.09-17.84-31.53-31.14-43.61Z"/>
</svg>