<?xml version="1.0" encoding="UTF-8"?>
<svg id="Calque_1" data-name="Calque 1" xmlns="http://www.w3.org/2000/svg" viewBox="0 0 1024 1024">
  <defs>
    <style>
      .cls-1 {
        stroke-width: 0px;
      }
    </style>
  </defs>
  <path class="cls-1" d="m867.62,183.21c-16.47,14.14-27.45,32.73-40.02,50.2-4.76,6.62-10.13,19.56-15.18,24.42-8.7,8.37-21.94,5.44-34.56,5.07-13.66-.4-27.33-1.39-40.93-2.73-5.05-.49-22.62-5.68-27.17-2.28-9.22,6.91.92,58.05,1.36,69.93,1.03,27.65,1.87,55.31,2.74,82.97.82,25.75,6.92,59.06-4.25,83.28-19.9,43.19-68.07,59.55-80.57,107.13-14.1,53.66-41.87,81.11-87.29,111.56-43.26,29-87.71,35.55-136.8,14.92-17.3-7.27-43.41-20.12-55.68-34.69-23.05-27.37,14.77-21.15,29.13-17.21,37.97,10.44,119.43,22.24,142.37-20.99,28.05-52.87-84.85-61.82-68.48-114.94,6.8-22.05,31.94-30.81,33.77-55.58,1.87-25.32-19.66-53.21-29.35-75.52,37.9,3.46,55.31,61.19,91.35,73.54,44.79,15.35,85.52-6.47,87.95-53.74,2.47-48.11.93-97.16.38-145.33-.21-18.34-.67-25.43-20.62-25.39-23.65.05-47.37,1.24-71.06,1.28-49.87.1-99.71.78-149.57,1.84-18.22.39-47.91-5.11-65.24.38-17.77,5.63-9.74,30.15-9.59,47.65.9,99.73-1.69,199.68,1.31,299.37,1.47,48.92,4.75,99.23.97,148.09-1.81,23.44-13.76,37.21-27.81,54.85-6.02,7.55-26.71,39.52-38.83,36.71-12.46-2.89-2.38-104.63-2.1-121.02.88-50.46,2.47-100.89,2.85-151.36.37-48.89.21-97.79.1-146.69-.11-49.45,5.35-101.67,1.47-150.79-.88-11.15,1.32-13.11-9.73-16.89-8.46-2.9-23.16-.07-32.18-.09-10.3-.02-55.5,4.84-59.85-3.04-.84-1.52,2.9-20.33,3-22.58.45-9.65.79-19.31,1.17-28.96.33-8.43-2.35-20.65,4.39-25.95,6.24-4.9,32.81-.74,39.79-.74,114.74-.02,229.49.21,344.23-.29,57.29-.25,114.58-.63,171.87-.97,16.12-.09,143.42-8.74,146.67,4.56Z"/>
</svg>