<?xml version="1.0" encoding="UTF-8"?>
<svg id="Calque_1" data-name="Calque 1" xmlns="http://www.w3.org/2000/svg" viewBox="0 0 1024 1024">
  <defs>
    <style>
      .cls-1 {
        stroke-width: 0px;
      }
    </style>
  </defs>
  <path class="cls-1" d="m587.91,393.26c5.6-42.61,2.67-88.84,1.78-131.81-.17-8.12-1.39-16.73-.31-24.77.72-5.34,7.4-16.56,5.15-21.58-4.69-10.46-50.66-5.01-60.34-5.1-96.61-.96-193.24.31-289.84-1.16-20.61-.31-36.99,7.33-41.8-14.11-2.68-11.97-2.09-25.33-3.29-37.54-.44-4.49-5.4-22.86-2.86-26.7,5.28-7.99,38.09-2.42,47.53-2.16,23.13.64,46.23,1.54,69.33,2.81,93.92,5.18,188.1,3.31,282.13,2.97,27.87-.1,55.75-.14,83.61-.64,21.09-.37,47.17-8.17,67.62-4.58,33.48,5.88,64.86,59.41,81.72,86.38-37.05,0-74.14-4.92-111.44-4.92-9.56,0-43.42-4.67-51.25,1.54-5.87,4.66,1.92,26.56,2.41,38.23,3.46,82.4,3.72,164.93,5.88,247.37,2.1,80.36,5.21,160.75,7.92,241.09,1.01,30.08-3.03,71.93,14.04,98.47,9.1,14.15,23.53,28.71,35.55,40.41,7.01,6.83,21.87,14.88,8.16,19.92-10.03,3.69-39.71-17.78-48.95-22.16-10.41-4.94-19.37-10.08-29.31-16.4-25.93-16.49-66.87-37.22-72.86-69.48-3.11-16.72-.31-22.13-19.54-14.65-14.64,5.7-27.59,12.92-43.31,15.64-39.18,6.8-61.77-15.86-85.5-43.21-22.18-25.57-43.97-42.45-72.55-58.88-16.41-9.44-29.65-25.78-41.06-40.52-9.77-12.61-20.61-16.31-31.84-26.43-19.31-17.39,18.01-34.98,28.19-49.48,9.17-13.06,20.17-28.84,20.24-45.48.08-18.79-13.83-30.76-23.72-45.17-44.8-65.29-12.25-151.57,60.46-178.65,42.28-15.75,73.74,16.59,106.07,38.86,31.86,21.94,66.43,37.62,101.98,51.88Zm-2.24,103.17c-.3-.02-.6-.03-.91-.05,0-18.18,6.96-53.36-7.6-68.26-9.83-10.05-29.52-5.51-42.21-10.45-11.83-4.6-20.42-15.59-31.99-20.87-18.29-8.34-37.77-6.61-55.54-.17-34.54,12.5-60.69,39.71-51.58,79.01,8.63,37.24,40.41,63.25,34.32,104.88-4.68,31.96-49.06,78.47-26.37,110.32,21.15,29.68,76.44,12.95,102.2,1.43,81.9-36.66,75.46-117.72,79.68-195.83Z"/>
</svg>