<?xml version="1.0" encoding="UTF-8"?>
<svg id="Calque_1" data-name="Calque 1" xmlns="http://www.w3.org/2000/svg" viewBox="0 0 1024 1024">
  <defs>
    <style>
      .cls-1 {
        stroke-width: 0px;
      }
    </style>
  </defs>
  <path class="cls-1" d="m262.79,812.72c-4.53-17.54,29.75-50.3,40.46-62.01,18.8-20.55,41.31-36.89,61.54-55.87,38.36-36,81.67-71.38,111.97-114.55,14.36-20.47,27.51-44.12,24.63-70.34-2.65-24.1-24.69-50.73-21.12-75.47,2.82-19.57,32.98-41.04,25.76-62.84-2.55-7.7-16.77-15.14-22.73-21-10.58-10.39-21.14-20.93-31.52-31.53-17.72-18.08-35.54-34.48-46.06-57.84-7.98-17.71-18.5-54.57-41.59-30.92-33.4,34.22-25.76,111.05-17.37,153.78,5.81,29.61,24.04,42.72,42.62,64.47,15.51,18.14,26.4,39.55,41.71,57.42,17.36,20.26,17.71,27.39.08,47.9-13.73,15.97-36.58,48.87-61.85,41.88-14.04-3.89-37.46-25.76-44.33-38.61-12.49-23.37-10.09-56.44-20.01-81.59-9.94-25.23-23.73-47.05-29.36-73.96-6.06-28.95-6.73-58.8-4.26-88.2,1.97-23.49.4-55.52,9.2-77.46,8.26-20.59,35.43-37.43,53.33-49.25,6.75-4.46,19.71-17.16,28.15-17.19,9.64-.03,21.22,13.94,27.04,20.26,12.36,13.42,25.12,55.79,46.32,48.37,17.09-5.98,34.6-34.51,49.76-45.96,4.21-3.18,18.61-16.95,23.83-16.53,7.27.58,16.6,13.51,25.01,16.32,27.5,9.2,49.8,7.09,71.61-12.05,10.08-8.85,11.65-16.91,24.73-10.79,11.78,5.5,22.79,25.61,33.69,34.41,8.36,6.75,17.94,12.05,26.01,19.14,12.08,10.62,13.76,14.12,5.76,27.58-12.24,20.59-25.29,44.7-40.23,63.59-15.48,19.59-39.71,34.21-53.04,55.2-13.7,21.57-.27,51.4,9.42,72.39,10.88,23.56,31.91,43.97,48.79,63.38,17.44,20.04,45.05,44.21,52.89,70.33,3.09,10.28-1.76,33.1,12.41,36.85,10.72,2.84,13.03-8.84,22.02-10.31,17.5-2.85,14.64,9.12,10.04,20.63-5.83,14.6-9.14,26.97-12.67,42.1-7.12,30.55-27.26,47.83-51.33,65.74-23.19,17.26-45.11,35.85-69.84,50.83-24.23,14.68-47.41,31.1-72.27,44.73-13.58,7.44-26.12,11.12-40.71,15.84-8.58,2.78-32.89,18.05-42.08,15.03,10.91-21.16,15.25-27.96,2.88-48.65-11.51-19.25-25.39-32.6-41.3-48.07-17.82-17.33-16.73-30.66-7.39-53.61,2.69-6.61,18.14-31.21,8.27-35.02-14.47-5.58-64.25,78.92-78.14,89.64-27.57,21.29-61.35,33.15-90.75,51.82Zm277.82-246.49c-7.08,20.26-3.76,40.41-6.62,61.42-2.92,21.52-8.21,41.08-2.41,62.81,10.11,37.86,42.21,72.62,83.46,68.56,46.06-4.53,30.37-68.18,17.97-96.75-19.39-44.66-57.17-65.84-92.41-96.04Z"/>
</svg>