<?xml version="1.0" encoding="UTF-8"?>
<svg id="Calque_1" data-name="Calque 1" xmlns="http://www.w3.org/2000/svg" viewBox="0 0 1024 1024">
  <defs>
    <style>
      .cls-1 {
        stroke-width: 0px;
      }
    </style>
  </defs>
  <path class="cls-1" d="m430.5,826.42c20.19-32.92,52.74-52.16,67.65-90.16,6.68-17.03,2.65-36.5-2.49-53.54-7.33-24.31-14.83-47.78-20.9-72.51-10.64-43.32-1.02-87.09,30.19-120.49,12.97-13.88,26.44-27.24,39.28-41.3,10.62-11.62,30.4-27.11,34.84-42.45,5.97-20.67-21.11-35.59-34.26-47.61-17.21-15.74-35.13-31.83-48.52-51.07-15.73-22.6-15.03-24.95,2.66-42.51,12.61-12.52,24.6-26.11,36.58-39.17,15.01-16.36,19.69-13.36,37.96-2.27,19.78,12.01,39.52,18.83,62.95,20.28,20.53,1.28,43.59.29,63.82-3.68,21.36-4.19,31.78-16.68,47.36-30.21,12-10.42,28.8-25.11,34.48-.22,3.99,17.47-15.31,22.54-14.62,39.98.45,11.37,3.25,28.5,5.24,39.69,2.06,11.63-1.08,11.73,8.94,7.59,17.29-7.14,31.89-36.75,41.45-51.39,19.78,6.72,8.25,31.16,7.63,46.17-.83,20.14-.91,36.64-14.03,53.58-21.8,28.15-58.94,43.25-77.84,73.54,29.02,21.25,54.5,46.79,80.69,71.41,13.09,12.3,31.52,26.55,39.26,43.13,7.74,16.57-2.87,24.35-14.36,36.71-21.45,23.07-49.83,53.63-80.21,64.58-19.21,6.92-11.92-1.47-12.01-16.23-.12-18.98-7.57-34.12-19.69-48.07-5.72-6.59-20.37-25.08-29.64-25.41-16.67-.58-1.32,19.3,2.53,30.18,10.45,29.53,30.14,64.67,23.6,95.96-6.23,29.8-14.47,72.56-33.12,96.92-17.72,23.14-51.88,46.67-77.43,60.32-5.68-13.92-.29-29.35.68-44.14,1.21-18.45.72-36.98-.52-55.42-2.24-33.52-9.42-68.61-7.38-102.11,1.18-19.49,7.06-38.18,13.52-56.46,5.52-15.64,12.56-25.47,2.54-39.77-10.15-14.49-41.7-54.26-62.1-38.74-20.42,15.53,13.27,62.66,13.5,84.06.41,38.12-7,81.3-15.89,118.38-6.6,27.52-19.8,54.28-40.78,73.78-15.16,14.1-31.66,25.94-49.27,36.7-10.93,6.68-28.8,23.8-42.28,21.98Z"/>
  <path class="cls-1" d="m162.54,390.79c-1.25-64.87,87.45-149.14,151.49-119.99,37.01,16.85,68.79,48.47,97.26,76.93,21.97,21.96,60.55,51,52.07,86.06-15.75,65.09-99.97,127.32-168.36,109.46-34.61-9.04-64.34-37.83-89.49-61.71-26.24-24.91-42.86-54.19-42.98-90.76Zm196.11-43.29c-30.7-2.14-70.04,37.81-88.47,58.04-11.41,12.53-48.3,80.92-3.66,66.7,31.78-10.13,58.55-42.52,81.51-64.69,17.16-16.56,58.52-54.7,10.62-60.05Z"/>
</svg>