<?xml version="1.0" encoding="UTF-8"?>
<svg id="Calque_1" data-name="Calque 1" xmlns="http://www.w3.org/2000/svg" viewBox="0 0 1024 1024">
  <defs>
    <style>
      .cls-1 {
        stroke-width: 0px;
      }
    </style>
  </defs>
  <path class="cls-1" d="m372.33,525.16c-14.82-.48-27.64,11.42-41.68,15.27-16.12,4.42-35,7.98-50.92,1.12-31.05-13.38-44.93-57.46-53.11-87.34-21.04-76.89-15.91-151.72,2.69-227.96-13.6-4.16-26.19-2.34-33.68-14.82-4.86-8.11-9.49-40.12-4.96-47.87,5.03-8.61,11.04-5.67,22.39-5.64,22.21.06,44.42.29,66.63.44,80.15.54,160.3,1.31,240.44,1.56,78.05.24,156.18-.68,234.23-1.73,16.95-.23,33.6-.9,50.45-2.68,15.22-1.61,32.49-8.95,30.14,10.13-1.74,14.06-13.51,33.49-20.96,45.42-8.34,13.36-21.49,17.53-26.27,33.31-9.38,30.95-5.86,69.29-8.72,101.35-3.38,37.96-10.36,75.18-12.26,113.34-1.83,36.7-2.5,73.45-5.2,110.11-1.35,18.27-.87,36.99-13.03,51.77-9.35,11.36-20.66,21.4-29.84,33.26-16.52,21.33-21.14,49.54-31.52,74.43-13.38,32.09-30.15,64.05-53.49,90.05-46.35,51.62-116.82,62.08-181.69,44.96-32.1-8.47-62.45-33.87-73.16-65.93-10.05-30.09-7.43-80.02,5.7-109.12,10.52-23.32,54.27-66.04,44.01-91-6.85-16.66-27.24-21.37-39.7-31.13-12.13-9.5-11.87-25.87-16.5-41.29Zm308.02,42.8l-.5-.05c0-24.31,2.61-43.79-12.13-63.81-12.66-17.2-26.63-28.82-43.18-42.09-14.6-11.71-34.57-23.57-45.95-38.39-14.31-18.64-9.98-30.31-37.38-33.68-24.2-2.98-48-3.59-71.89-9.18-22.81-5.34-30.3-6.94-48.7,7.47-17.39,13.62-19.76,26.07-29.53,45.19-8.93,17.48-17.81,30.85-19.98,51.63-2.26,21.65,3.08,30.79,19.1,41.12,11.52,7.43,18.12,16.81,27.69,28.04,19.54,22.91,48.32,42.37,78.2,48.18,28.35,5.51,74.82,4.13,84.33-29.15,4.95-17.33,6.87-44.78.63-61.84-3.45-9.44-16.19-32.28-27.7-31.76-12.18.55-21.01,22.07-28.58,30.2-10.22,10.98-26.06,21.08-41.73,19.13-27.53-3.44-58.95-47.08-60.18-73.53-1.68-35.9,60.02-15.74,81.29-14.54,16.13.9,40.09-9.21,54.59-5.37,12.08,3.2,21.07,22.35,28.57,31.41,22.46,27.12,40.26,60.04,36.53,96.27-3.36,32.63-21.05,65.79-43.64,89.18-12.82,13.28-29.75,21.61-47.11,27.02-17.78,5.54-26.57,1.67-43.66-3.72-16.61-5.24-37-13.27-49.13,1.96-8.44,10.59-14.22,32.32-17.39,45.42-21.43,88.74,128.49,87.86,169.82,43.84,25.31-26.95,45.01-63.52,65.08-94.53,21.69-33.51,20.97-65.69,22.51-104.42ZM265.59,226.36c-.11.4-.22.79-.33,1.19,7.03,4.77-10.68,39.88-12.36,49.3-3.96,22.16-3.91,45.59-2.46,68.01,2.22,34.48,12.9,95.68,47.42,114.06,49.41,26.31,61.27-28.15,78.21-59.42,15.91-29.37,50.11-62.77,80.77-76.68,15.56-7.06,35.36.52,52.57,3.9,10.07,1.98,19.22,5.32,28.66,9.16,11.47,4.67,11.79,8.57,17.03-2.86,6.64-14.47.72-42.86.35-58.34-.32-13.5,4.99-41.49-7.71-49.71-13.06-8.45-50.07-2.7-66.53-3.18-24.58-.71-49.16-.5-73.74-.21-46.7.55-95.69-2.45-141.88,4.78Zm357.98,104.77h-.16c0,12.14-.06,24.27-.11,36.4-.04,9.02-4.36,31.55,1.07,39.17,8.05,11.3,49.76,5.56,59.89-1.17,43.73-29.04,41.56-74.45,46.39-121.7,1.11-10.9,1.86-21.64,5.72-32,4.51-12.11,10.52-12.05-1.05-19.14-7.3-4.47-31.73-.72-40.43-.95-14.63-.39-29.28-1.17-43.92-1.26-7.85-.05-17.57-1.8-24.85,2.03-12.84,6.74-8.24,9.34-5.98,21.73,4.56,24.98,2.85,51.54,3.42,76.89Z"/>
</svg>