<?xml version="1.0" encoding="UTF-8"?>
<svg id="Calque_1" data-name="Calque 1" xmlns="http://www.w3.org/2000/svg" viewBox="0 0 1024 1024">
  <defs>
    <style>
      .cls-1 {
        stroke-width: 0px;
      }
    </style>
  </defs>
  <path class="cls-1" d="m368.5,765.6c8.61-22.78,32.15-35.08,51.01-48.58,20.71-14.83,39.96-31.87,58.66-49.17,34.96-32.34,66.29-71.03,94.66-109.28,12.14-16.37,26.05-39.19,23.42-60.84-2.92-24.03-30.73-33.06-48.72-42.88-19.76-10.79-36.77-25.9-59.42-9.81-20.19,14.34-18.31,31.57-.34,46.14,16.42,13.32,30.67,24.04,28.14,47.63-2.61,24.34-19.27,40.96-40.28,51.62-47.34,24.02-74.16-49-72.79-86.32,1.57-42.72,49.09-69.16,78.3-94.14,15.42-13.18,32.57-23.91,48.32-36.63,23.02-18.59,9.78-22.1-9.82-37.15-25.42-19.52-92.8-64.14-72.27-101.87,4.5-8.26,23.05-34.48,32.68-36.6,8.19-1.81,21.33,9.54,27.96,12.66,11.94,5.63,8.08,5.64,21.12,3.35,22.02-3.86,43.31-3.28,65.67-2.7,11.01.29,22.15,1.02,33.18.77,10.36-.24,24.1-6.25,33.99-5.06,16.62,2,26.26,27.86,32.39,42.35,2.2,5.2,3.72,24.37,7.87,26.89,8.31,5.04,22.48-11.78,29.38-18.67,12.68-12.63,24.85-34.88,30.74-7.35,5.09,23.8,4.39,50.07-11.11,69.79-12.84,16.34-33.1,27.8-48.84,41.18-23.53,20.01-15.26,27.81.07,50.97,24.2,36.55,54.35,69.5,82.69,102.94,30.12,35.55,58.39,71.38,43.96,120.49-14.46,49.22-66.3,70.06-107.04,94.33-20.83,12.41-41.78,22.26-60.79,37.53-19.09,15.33-37.8,33.65-58.53,46.71-22.96,14.47-40.03,17.01-62.92,4.79-21.43-11.44-42.77-25.92-58.85-44.58-14.75-17.12-18.46-32.23-44.18-31.62-27.85.66-45.05,8.86-67.06,24.17-.43-.36-.85-.71-1.28-1.07Zm364.2-88.33c-6.63-53.69-30.28-77.45-71.57-109.11-5.99-4.59-23.27-24.1-29.68-24.42-7.86-.4-12.07,11.24-14.76,19.24-6.14,18.27-5.77,33.58-10.31,52.26-5.88,24.21-17.12,45.08-10.12,70.54,5.23,19.04,20.61,42.06,38.51,51.25,35.26,18.1,100.45-19.46,97.92-59.75Z"/>
  <path class="cls-1" d="m380.34,477.09c-12.81,5.32-35.55-13.91-46.72-19.37-15.7-7.68-31.23-13.99-45.39-24.47-27.73-20.53-55.46-46.69-74.47-75.73-16.63-25.41-35.38-53.56-11.33-79,21.23-22.47,56.99-44.26,87.43-50.2,26.42-5.15,61.87,8.5,82.92,24.56,31.78,24.25.55,54.51-21.01,72.61-23.73,19.92-60.77,45.07-49.97,82.49,10.09,34.96,59.65,40.66,78.54,69.11Z"/>
</svg>