<?xml version="1.0" encoding="UTF-8"?>
<svg id="Calque_1" data-name="Calque 1" xmlns="http://www.w3.org/2000/svg" viewBox="0 0 1024 1024">
  <defs>
    <style>
      .cls-1 {
        stroke-width: 0px;
      }
    </style>
  </defs>
  <path class="cls-1" d="m726.27,842.4c-31.8-15.11-59.04-41.99-81.83-68.22-21.52-24.77-34.3-59.27-57.96-81.59-10.9-10.29-20.51-20.57-31.17-31.39-10.73-10.89-14.43-15.34-15.57,4.64-2.3,40.24-2.52,84.87-15.81,123.53-22.94,66.74-125.44,61.9-167.59,20.06-51.4-51.03-74.43-157.19-19.03-213.68,26.91-27.44,63.68-28.83,99.9-19.87,11.42,2.83,30.4,12.83,42.55,10.25,20.22-4.31,17.31-31.37,16.41-46.85-.76-13.09,1.98-41.77-4.85-52.92-7.85-12.82-28.93-8.45-42.05-8.51-42.17-.19-84.37,1.8-126.54,1.27-19.7-.25-23.25-1.36-24.84-21.68-.89-11.33-3.83-42.38,7.11-50.39,9.06-6.63,29.17-1.13,39.64-.85,25.83.7,51.71.47,77.55.36,33.87-.15,67.97.66,100.06-11.64,34.15-13.09,58.28-50.77,98.54-30.8,31.64,15.69,60.4,49.77,64.22,85.17,5.23,48.45-1.48,100.74-3,149.42-1.35,43.53-8.29,88.49-2.31,131.8,2.99,21.66,5.71,48.95,14.81,68.97,7.37,16.21,22.85,26.97,32.64,41.57-.29.45-.59.91-.88,1.36Zm-292.07-74.14c45.5.15,71.79-43.33,55.07-84.47-14.49-35.66-57.15-47.73-91.3-56.03-16.71-4.06-39.97-9.79-50.83,8.37-8.12,13.57-1.73,38.79,1.07,53.54,4.42,23.33,13.99,44.74,29.52,62.78,15.98,18.56,33.04,14.91,56.46,15.81Zm189.98-290.95c-.18-.01-.36-.02-.55-.03,0-20.89,3.22-50.32-14.01-66.1-15.75-14.43-31.32-6.67-40.32,9.97-11.23,20.74-5.88,43.97-7.16,66.51-1.46,25.64-10.71,49.51-17.02,74.2-3.57,13.94-10.53,54.15,1.35,65.87,7.38,7.28,49.54-4.42,56.96-10.61,15.3-12.77,14.72-40.18,16.23-58.09,2.3-27.2,3.24-54.44,4.52-81.7Z"/>
  <path class="cls-1" d="m354.25,201.15c85.02-5.26,170.02-11.06,255.04-16.06,16.67-.98,112.22-10.38,115.13,6.5,1.47,8.53-22.81,31.99-26.49,40.13-7.53,16.65-4.24,17.3-24.72,18.07-42.32,1.57-84.68,2.6-127.01,4.02-42.15,1.41-83.58-.74-123.81,11.14-20.43,6.03-74.47,9.37-87.58-12.74-3.46-5.84-12.73-30.61-12.69-37.04.1-17.03,15.75-14.46,32.1-14.46.01.15.02.3.03.45Z"/>
</svg>