<?xml version="1.0" encoding="UTF-8"?>
<svg id="Calque_1" data-name="Calque 1" xmlns="http://www.w3.org/2000/svg" viewBox="0 0 1024 1024">
  <defs>
    <style>
      .cls-1 {
        stroke-width: 0px;
      }
    </style>
  </defs>
  <path class="cls-1" d="m739.7,518.92c24.38,41.65,20.47,98.43,18.61,144.55-2.08,51.5-18.9,108.36-47.09,151.84-29.77,45.91-67.43,68.71-120.57,76.03-51.86,7.15-104.58,9.54-145.13-27.67-36.17-33.2-47.61-84.8-45.9-133.23,1.72-48.9,33.54-86,61.83-122.77,11.52-14.97,28.46-24.64,8.71-36.79-24.26-14.93-28.98,3.84-47.88,14.51-40.88,23.09-88.41,1.84-113.18-34.44-27.84-40.78-38.45-90.2-48.8-137.84-4.34-20.01-9.17-46.12-2.07-66.05,7.65-21.5,27.1-36.7,43.32-51.29,16.85-15.16,30.86-29.89,53.34-36.18,27.55-7.71,57.57-8.54,85.85-5.65,46.88,4.8,68.01,43.15,109.71,59.81,10.64,4.25,19.51,5.25,30.8,6.17,7.25.6,22.69,5.94,28.46,1.86,12.12-8.56,5.1-63.12,5.27-77.47.18-15.24,7.64-47.06-6.48-54.57-7.7-4.1-24.86-.36-33.9-.36-16.15,0-32.31-.01-48.46-.01-110.45,0-220.65,1.24-330.81,5.32-19.92.74-34.72,2.45-31.73-20.32,1.05-7.99.78-30.25,7.15-35.68,7.71-6.57,30.81-2.51,40.61-2.63,56.75-.69,113.52.73,170.25-.21,114.31-1.89,228.54-4.4,342.88-5.05,26.15-.15,57.36-5.34,82.88-.07,18.67,3.86,35.76,22.91,45.74,38.43,9.66,15.02,12.43,20.81-4.73,21.65-28.34,1.39-57.41-.55-85.82-.62-24.69-.05-51.56-3.15-76.04.24-12.08,1.67-11.66-1.03-15.83,8.67-3.71,8.63,2.72,35.37,2.75,45.58.08,25.9-1.06,51.95,1.05,77.8,1.21,14.77-.1,16.78,13.15,17.8,12.33.94,27.7-2.92,40.71-2.91,11.88,0,53.04-8.45,60.01,4.04,9.67,17.34-13.93,49.28-30.35,53.43-18.57,4.7-46.66-6.44-65.98-8.56-28.28-3.1-56.26-3.76-84.67-4.15-25.97-.35-50.42-4.25-75.92-8.66-24.98-4.32-41.71-9.34-56.68,13.66-12.16,18.69-27.48,45.25-28.68,67.86-1.14,21.64,12.06,48.48,24.01,65.98,25.88,37.88,58.59,63.66,106.6,64.77,17.78.41,52.25-.34,66.57-12.77,12.15-10.55,18.44-35.95,21-51.02,2.97-17.53-2.61-39.28-17.9-50.16-23.6-16.79-44.67-1.02-59.07,17.51-31,39.9-65.99,31.71-88.88-10.38-6.8-12.5-20.38-34.9-3.69-44.83,8.59-5.11,26.3-2.53,35.67-2.95,15.84-.7,31.67-1.46,47.51-2.07,47.22-1.81,96.47,5.25,117.84,53.5,18.88,42.64-7.85,92.6-31.26,129.16-24.57,38.37-70.12,65.76-116.58,52.99-20-5.5-42.08-16.96-63.3-11.97-23.02,5.42-29.45,36.72-32.62,57.33-7.48,48.63,15.29,99.4,66.7,106.67,23.32,3.3,47.26,1.64,70.72,1.21,27.18-.5,43.25-11.15,59.16-33.15,13-17.98,21.67-38.88,33.56-57.61,15.12-23.81,28.99-46.51,39.66-72.74,9.53-23.43,15.51-45.32,15.8-70.79.24-20.66-10.46-47.23,2.13-64.78Zm-366.84-202.59c0,.53-.01,1.07-.02,1.6-30.07,0-56.54-2.44-68.08,30.69-9.77,28.03-7.92,65.17-3.12,94.03,7.6,45.74,37.4,121.74,97.26,113.93,40.46-5.28,21.11-40.94,15.55-65.8-6.03-26.91,1.07-65.79,12.08-91.13,8.22-18.92,47.04-44.96,29.05-65.61-18.8-21.57-57.78-16.83-82.7-17.71Z"/>
</svg>