<?xml version="1.0" encoding="UTF-8"?>
<svg id="Calque_1" data-name="Calque 1" xmlns="http://www.w3.org/2000/svg" viewBox="0 0 1024 1024">
  <defs>
    <style>
      .cls-1 {
        stroke-width: 0px;
      }
    </style>
  </defs>
  <path class="cls-1" d="m289.92,401.87c20.09,8.29,35.48,10.85,45.25,31.6,10.69,22.7,18.36,46.77,27.7,69.99,8.8,21.86,25.78,39.98,41.48,57.3,8.81,9.72,34.4,30.23,47.08,28.42,16.84-2.4,34.5-31.04,30.84-46.2-5.25-21.73-28.33-46.67-39.09-66.7-12.31-22.91-26.46-43.18-44.01-62.45-8.41-9.23-15.8-10.06-24.69-16.5-7.82-5.67-8.83-14.28-20.72-13.62-.27-.33-.53-.67-.8-1,46.8-46.11,131.68-41.11,191.62-35.02,33.08,3.36,66.59-1.62,99.32,2.92,10.9,1.51,34.11,5.96,41.89,14.84,9.15,10.44,9.41,40.41,12.83,53.76-8.77,2.66-18.64-3.39-27.49-4.5-12.81-1.61-26.58-.14-39.46-.17-32.72-.08-65.53-.8-98.21.97-21.13,1.14-47.08-2.25-42.95,23.31,2.94,18.19,16.73,42.51,32.36,52.18,18.8,11.63,46.55,8.15,68.08,10,24.95,2.14,53.25,1.41,77.41,8.41,19.88,5.76,35,23.73,49.32,37.97,20.18,20.06,24.71,44.35,24.94,72.14.44,54.63-23.96,94.4-61.33,132.02-17.38,17.5-38.06,30.67-55.79,47.72-17.33,16.67-33.86,31.57-57.14,39.51-44.67,15.23-99,18.42-134.87-17.19-37.32-37.06-49.41-81.15-46.8-132.45.7-13.82,5.84-31.52-1.99-43.75-5-7.82-15.78-12.78-22.13-19.55-19.55-20.86-37.18-48.08-46.15-75.3-8-24.3-8.27-50.4-8.96-75.67-.4-14.63.58-31.7-3.53-45.87-3.02-10.38-10.58-16.68-15.41-26.03.46-.36.92-.72,1.38-1.09Zm300.84,369.8c31.02-1.94,45.34-11.01,56.93-40.57,8.27-21.08,16.56-54.46,8.14-76.51-6.92-18.1-30.08-29.65-45.5-39.9-20.22-13.43-44.67-29.23-69.74-30.96-24.98-1.72-48.77,10.46-67.21,27.01-23.05,20.69-25.91,39.97-14.99,68.53,19.08,49.93,76.71,95.84,132.37,92.39Z"/>
  <path class="cls-1" d="m628.55,301.44c-5.26,2.74-10.62,2.57-15.85.27,5.38-52.24-49.68-37.16-86.23-37.07-47.92.12-95.86.03-143.77,1.22-17.19.43-47.63,7.06-63.23-2.15-13.47-7.96-26.09-33.71-31.89-47.83-8.76-21.32-11.24-34.12,13.01-37.05,26.03-3.14,52.59-1.73,78.73-1.46,51.65.54,103.31-.32,154.95-.83,25.71-.26,51.43-.44,77.14-.47,19.47-.03,49.72-6.71,65.19,6.69,16.6,14.38,29.69,41.89,41.85,60.24,12.05,18.19,16.2,21.47-8.4,21.55-17.04.05-50.39-6.58-65.75.76-13.6,6.49-13.8,20.27-15.75,36.12Z"/>
</svg>