<?xml version="1.0" encoding="UTF-8"?>
<svg id="Calque_1" data-name="Calque 1" xmlns="http://www.w3.org/2000/svg" viewBox="0 0 1024 1024">
  <defs>
    <style>
      .cls-1 {
        stroke-width: 0px;
      }
    </style>
  </defs>
  <path class="cls-1" d="m490.36,288.24c-39.94-6.83-84.56-20.28-124-2-12.5,5.79-21.46,20.22-35.71,12.97-13.58-6.91-25.6-32.26-26.52-46.62-1.79-27.96,38.13-62.47,65.06-64.99,17.87-1.68,35.71,5.77,50.72,14.02,21.62,11.89,30,3.13,49.6-8.84,11.12-6.79,37.1-28.13,50.74-26.77,8.32.83,13.29,11.73,19.36,16.65,6.81,5.52,14.03,8.32,22.13,11.38,20.62,7.8,28.96,4.59,45.28-10.07,5.95-5.34,24.98-35.79,33.28-35.98,9.33-.22,27.34,28.14,34.94,34.08,9.46,7.4,39.31,11.4,43.96,22.07,4.76,10.93-14.42,29.73-20.04,38.53-12.57,19.7-24.49,36.51-26.81,60.31-5.35,54.84-.83,111.54-2.45,166.63-.61,20.9-1.51,36.12-20.89,45-16.47,7.54-25.68,12.32-33.14,28.9,34.03,33.88,66.67,60.49,79.37,109.04,11.54,44.1,4.69,95.06-18.17,134.25-20.09,34.44-39.38,67.45-78.55,81.47-25.44,9.1-52.13,7.26-78.71,7.34-21.88.07-45.46,2.49-66.47-5.1-43.68-15.78-66.59-62.97-85.7-101.95-21.64-44.13-34.34-89.52-35.69-138.79-.64-23.59-1.95-46.66,1.71-70.12,3.47-22.19,13.73-43.74,9.98-66.42-5.63-34.06-50.08-89.59-24.41-123.13,6.72,8.2,8.15,18.7,14.22,27.61,8.46,12.42,17.44,24.54,25.71,37.34,6.69,10.36,14.6,21.27,20.41,31.91,5.18,9.47,5.43,27.51,19.72,27.71.12-9.32-6.7-15.91-5.11-25.66,1.08-6.6,8.21-16.41,11.68-21.92,10.75-17.12,23.48-33.81,37.55-48.29,13.26-13.65,26.77-26.68,35.56-43.98,9.96-19.6,9.57-45.24,11.39-66.56Zm32.66,535.73c16.6-1.53,33.08-.78,47.14-10.51,13.39-9.26,25.68-23.69,35.09-36.82,19.74-27.54,25.9-59.02,19.19-92.07-6.16-30.35-23.8-61.73-46.71-82.81-20.3-18.68-53.85-25.29-80.12-31.48-17.87-4.21-65.61-9.64-79.5,3.9-9.05,8.82-8.88,39.06-9.28,50.92-.6,17.92.09,36.31,1.98,54.16,3.9,36.87,16,64.62,35.86,95.52,7.7,11.98,15.7,26.94,26.65,36.42,13.64,11.8,32.61,10.56,49.69,12.77Zm50.6-397.23c-26.06,4.56-59.32,20.19-70.78,46.27-13.94,31.73,31.81,39.96,53.95,47.57,9.1,3.13,19.51,9.42,28.9,10.66,19.7,2.59,11.4-14.2,10.02-28.73-1.66-17.48,2.39-75.26-22.1-75.76Zm10.91-12.15c.55-.08,1.09-.16,1.64-.25,7.98-13.79,4.11-37.45,4.15-52.7.04-17.99.05-35.98.06-53.97,0-7.72,3.06-22.42-4.12-28.12-7.58-6.02-31.54-.61-39.55,2.74-28.4,11.89-9.47,37.05-1.1,56.76,11.48,27.02,23.05,50.78,38.91,75.53Zm-181.22,105.45c4.55-3.42,3.41-22.43-3.01-20.51,2.34,7.45-.34,12.87,3.01,20.51Z"/>
</svg>