<?xml version="1.0" encoding="UTF-8"?>
<svg id="Calque_1" data-name="Calque 1" xmlns="http://www.w3.org/2000/svg" viewBox="0 0 1024 1024">
  <defs>
    <style>
      .cls-1 {
        stroke-width: 0px;
      }
    </style>
  </defs>
  <path class="cls-1" d="m355.24,729.93c12.16-20.95,17.68-34.67,16.81-59.48-.71-20.41-1-38.93,3.71-58.9,9.53-40.4,20.78-77.25,17.32-119.36-1.09-13.27-2.55-34.6-10.8-45.36-10.51-13.71-27.91-9.98-41.46-18.55-23.42-14.81-51.6-64.93-55.42-91.93,61.34,8.59,126.98.92,189-.72,24.27-.64,57.39-7.69,78.04,8.42,22.96,17.92,32.27,50.2,53.07,69.22,8.51-10.35,3.27-36.2,3.17-48.9-.19-24.79-.4-49.57-.62-74.36-.12-13.32,4.13-28.88-8.68-35.14-15.15-7.41-51.37.2-68.85.35-91.12.77-182.19-.85-273.29-2.25-5.29-.08-20.98,2.58-25.61-.05-8.07-4.58-3.74-6.68-4.48-15.81-1.31-16.2-6.84-38.67-15.79-52.01-10.39-15.49-11.98-14.7,9.97-15.31,23.79-.66,47.69-.02,71.49-.03,94.9-.02,189.8-.01,284.71-.02,52.22,0,104.43-.02,156.65-.11,27.1-.05,34.28,1.45,48.76,24.41,12.71,20.16,24.77,40.72,37.08,61.13-23.65,6.63-57.72.7-82.27.61-26.76-.1-57.95-5.62-84.11-1.66,2.66,11.23,11.83,18.44,15.6,29.2,3.65,10.43,2.48,21.79,2.41,32.63-.19,27.25-.51,54.51-.7,81.76-.35,50.91-.52,101.83-.69,152.74-.16,50.93-.45,101.87.38,152.79.8,48.71,9.35,103.05,2.09,151.26-18.5.62-37.15-36.25-46.68-48.98-14.1-18.82-16.59-30.55-16.86-53.93-.64-54.38.27-108.78-.27-163.17-.23-22.53.9-25.99-18.86-17.94-19.23,7.83-40.97,17.74-61.1,22.62-23.88,5.79-43.72-1.11-67.06-5.92-23.55-4.86-39.6,5.66-28.57,31.65,7.81,18.41,30.77,29.02,48.63,35.59,23.05,8.48,26.85,13.31,42.78,31.07,10.06,11.21,20.51,22.6,35.56,27.3,11.18,3.49,38.19.87,37.38,19.05-.7,15.62-34.88,1.09-45.35-.93-24.33-4.68-47.6-6.13-72.27-7.53-21.58-1.23-43.3-6.04-64.9-5.75-21,.28-39.27,8.18-59.21,13.3-.23-.34-.47-.68-.7-1.03Zm155.72-213.63c32.67-.48,79.09-12.43,68-54.14-10.29-38.7-39.31-54.83-77.01-54.31-15.95.22-47.12.33-60.51,11.34-12.8,10.52-9.22,28.52-5.11,42.92,12.2,42.78,33.83,50.13,74.63,54.19Z"/>
</svg>