<?xml version="1.0" encoding="UTF-8"?>
<svg id="Calque_1" data-name="Calque 1" xmlns="http://www.w3.org/2000/svg" viewBox="0 0 1024 1024">
  <defs>
    <style>
      .cls-1 {
        stroke-width: 0px;
      }
    </style>
  </defs>
  <path class="cls-1" d="m249.36,848.46c15.07-16.72,22.92-24.71,25.83-47.97,3.19-25.58,2.33-51.76,2.43-77.49.21-50.14-.15-100.29.26-150.43.4-48.92,1.02-97.84,1.56-146.76.28-25.28.69-50.57.48-75.85-.09-10.75-.41-21.5-.29-32.24.15-13.52,5.24-29.96,3.37-42.9-4.52-31.36-61.27,2.18-76.72-17.62-2.79-3.58-5.48-30.48-6.42-36.11-2.02-12.11-7.56-37.5,4.4-44.51,12.44-7.29,47.92-.2,62.16-.17,26.1.04,52.2.09,78.3.13,52.2.09,104.4.17,156.61.25,55.26.09,110.52.18,165.79.28,52.34.1,108.25-5.49,160.07,1.4-10.42,19.39-28.59,60.85-18.63,81.79-46.72,7.85-97.51,3.76-144.79,4.13-48.26.37-96.51.42-144.77.36-48.13-.06-96.29.33-144.42-.31-24.3-.33-24.16.9-23.64,24.86.59,27.45.69,54.89.71,82.35.05,49.33.05,98.67.34,148,.14,24.1.25,48.2.49,72.3.2,20.12-1.42,42.48,9.5,60.42,22.87,37.56,62.01,51.39,103.38,53.16,40.99,1.75,86.99,1.81,106.05-41.79,16.83-38.49-7.69-65.87-34.55-90.55-31.77-29.19-58.47-52.48-66.2-97.38-5.92-34.39-.51-86.01,29.65-108.6,41.41-31.03,85.93-.15,127.67,9.22,8.67,1.95,33.12-2.33,35.59,2.12,5.59,10.07-17.37,42.33-23.36,50.03-10.95,14.07-19.7,21.51-37.92,22.98-18.8,1.52-47.39-12.38-64.94-4.85-16.37,7.03-13.15,26.02-2.92,37.73,13.92,15.94,40.18,20.67,58.72,28.9,38.57,17.14,60.25,51.32,61.44,93.43,2.74,96.58-85.07,168.35-173.63,179.95-24.58,3.22-50.42,3.5-74.55-2.62-16.09-4.08-44.82-22.28-58.31-9.73-14.37,13.37-22.12,36.31-37.55,50.56-18.18,16.79-36.97,19.24-59.93,25.8-.43-.76-.85-1.51-1.28-2.27Z"/>
</svg>