<?xml version="1.0" encoding="UTF-8"?>
<svg id="Calque_1" data-name="Calque 1" xmlns="http://www.w3.org/2000/svg" viewBox="0 0 1024 1024">
  <defs>
    <style>
      .cls-1 {
        stroke-width: 0px;
      }
    </style>
  </defs>
  <path class="cls-1" d="m465.89,684.68c-18.4-.25-32.28,20.28-43.39,32.7-15.38,17.19-29.37,34.47-46.58,49.98-15.87,14.3-33.34,20.26-51.77,30.71-13.72,7.78-28.06,25-42.87,28.16-.11-19.01,22.49-44.35,34.38-57.96,18.91-21.66,45.02-35.67,68.13-52.26,36.56-26.25,73.84-61.88,98.32-99.88,10.72-16.64,20.77-38.54,10.47-56.59-11.77-20.61-28.44-41.35-44.99-58.68-11.64-12.18-40.82-23.76-35.76-42.95,5.72-21.69,39.35-45,56.81-56.84,15.65-10.62,32.69-17.54,13.85-33.82-18.23-15.75-37.54-29.93-55.03-47.1-13.75-13.5-25.68-27.86-25.71-48.2,0-5.84,1.71-27.76,8.5-29.74,8.12-2.37,26.23,21.06,31.45,26.13,22.24,21.65,28.56-.38,45.64-18.75,12.95-13.92,29.89-31.6,50.12-30.8,21.73.85,44.04,18.34,66.32,9.33,18.98-7.68,28.41-40.69,49.19-28.27,13.09,7.83,24.3,23.56,35.21,34.21,10.82,10.56,23.35,19.57,33.99,30.14,10.89,10.83,9.43,11.89-1.93,21.71-11.6,10.03-21.54,19.39-30.63,31.88-15.92,21.89-31.65,43.14-49.36,63.65-13.82,16-47.74,46.09-43.76,70.26,29.72-1.96,52.8,34.15,70.61,53.62,17.08,18.66,56.75,56.55,52.65,84.89-1.5,10.38-15.98,22.72-22.66,30.63-10.14,12.02-18.9,24.83-28.65,37.04-25.29,31.69-43.63-16.38-63.51-33.37-7.77-6.64-25.68-25.19-36.76-25.87-12.45-.77-8.03,12.24-7.03,22.1,3.59,35.13-12.37,68.44,14.1,97.79,21.01,23.3,48.9,40.08,80.69,28.37,29.82-10.98,53.4-49.95,86.79-51.36-.29,14.51-25.31,29.48-35.16,37.94-16.76,14.38-32.82,29.45-49.33,44.1-28,24.86-60.62,48.51-99.5,49.31-37.91.77-73.57-27.52-99.79-52.8-32.6-31.43,9.95-55.01,6.94-89.42Zm79.65-172.55c12.87,5.57,41.66-46.89,48.31-56.7-19.94,2.76-39.86,40.56-48.31,56.7Z"/>
  <path class="cls-1" d="m392.8,619.76c-30.2-3.31-71.8-24.1-74.99-58.08-3.24-34.53,25.84-67.2,11.88-99.57-15.74-36.5-26.97-63.48-23.68-104.08,1.34-16.48,3.48-28.68,13.07-42.58,2.78-4.03,13.47-20.21,17.24-20.27,8.06-.13,3.83,5.17,6.12,13.47,4.58,16.59,13.89,30.33,17.85,47.48,3.62,15.68,7.05,30.99,7.76,47.1.86,19.46-1.55,38.57,4.87,57.3,5.84,17.05,15.67,34.29,25.54,49.29,9.64,14.64,21.82,26.81,34.57,38.75,7.1,6.64,31.26,20.03,30.59,31.19-.56,9.31-22.22,21.38-29.12,26.26-13.2,9.33-25.96,11.3-41.71,13.75Z"/>
</svg>