<?xml version="1.0" encoding="UTF-8"?>
<svg id="Calque_1" data-name="Calque 1" xmlns="http://www.w3.org/2000/svg" viewBox="0 0 1024 1024">
  <defs>
    <style>
      .cls-1 {
        stroke-width: 0px;
      }
    </style>
  </defs>
  <path class="cls-1" d="m461.13,614.84c-19-3.65-39.4,31.27-48.07,43.84-14.16,20.52-26.98,42.41-43.9,60.84-21.25,23.16-64.78,60.39-97.43,57.12,14.08-32.54,46.06-57.42,70.31-82.99,12.3-12.97,25.6-25.24,35.49-40.22,2.83-4.28,12.37-15.65,10.35-21.24-2.4-6.65-13.28-2.83-17.33-4.47-13.54-5.49-22.45-23.37-30.36-34.48-9.06-12.73-28.82-30.08-30.15-45.8-3.21-38.02,40.01-74.96,63.53-98.53,12.3-12.33,23.69-25.42,35.61-38.1,9.48-10.09,35.03-25.41,33.76-40.16-.94-10.86-21.24-20.68-28.56-26.9-16.61-14.09-27.03-32.09-41.09-48.21-10.37-11.89-29.28-26.29-30.56-43.87-1.03-14.14,14.61-29.9,24.66-39.21,8.05-7.45,22.21-28.26,31.42-32.2,14.64-6.25,30.15,12.72,40.11,21.5,15.12,13.32,25.93,22.38,46.09,25.38,21.04,3.13,46.72,4.48,67.69,1.77,15.55-2.01,27-10.14,38.72-19.94,7.02-5.87,28.61-32.76,38.17-32.3,9.12.44,23.93,28.52,32.75,36.17,11.62,10.08,38.17,22.11,38.72,37.7.22,6.22-6.09,15.99-7.82,22.25-2.4,8.69-3.37,17.71-5.78,26.4-5.79,20.87-17.24,32.56-32.67,46.67-12.06,11.02-25.3,19.57-37.82,29.69-20.62,16.67-9.75,29.7,6.12,46.07,24.73,25.5,48.22,50.25,67.62,80.38,11.55,17.94,21.48,35.65,30.06,55.16,3.15,7.16,6.25,13.09,10.92,19.47,4.46,6.1,14.4,10.57,17.71,15.61,16.09,24.48-39.26,69.33-56.46,83.16-17.81,14.31-35.77,29.04-54.73,41.8-19.44,13.09-42.24,20.52-61.16,34.36-16.23,11.87-19.35,30.66-32.78,44.8-14.64,15.42-35.14,25.96-52.83,37.34-4.07,2.62-22.01,17.26-27.54,12.74-5.6-4.58,1.8-8.86,3.78-14.62,7.19-20.88,3.62-45.67,3.18-67.42-.97-47.86,4.52-103.53-9.71-149.58Zm101.09,18.33c-.19.03-.38.05-.56.08,2.5,36.8,1.43,98.01,54.35,81.57,45.93-14.27,36.4-58.43,16.64-90.81-11.35-18.59-27.77-34.27-42.09-50.56-7.94-9.03-30.24-45.26-41.2-47.36-14.57-2.8-.27,29.64,1.66,37.1,5.91,22.74,7.85,46.69,11.2,69.99Zm-155.91-21.49c.41.38.83.76,1.24,1.15,32.73-8.26,51.68-46.32,60.58-75.52,4.87-15.98,22.31-44.39,15.3-59.65-3.64-7.92-34.11-34.24-43.98-37.5-17.32-5.71-42.18,13.36-47.24,29.54-6.39,20.41,14.37,30.23,25.87,42.79,31.97,34.93,2.94,64.29-11.76,99.2Z"/>
</svg>