<?xml version="1.0" encoding="UTF-8"?>
<svg id="Calque_1" data-name="Calque 1" xmlns="http://www.w3.org/2000/svg" viewBox="0 0 1024 1024">
  <defs>
    <style>
      .cls-1 {
        stroke-width: 0px;
      }
    </style>
  </defs>
  <path class="cls-1" d="m287.51,841.1c22.58-20.22,40.39-39.53,49.93-68.92,11.12-34.27,7.79-56.97-2.3-90.48-9-29.91-20.81-60.49-2.85-89.33,8.6-13.81,23.32-21.37,31.96-34.73,9.99-15.45,7.43-34.68,8.78-52.16,5-64.69,64-121.08,115.42-154.29,54.4-35.14,115.98-31.63,170.48.53,59.65,35.2,69.42,108.18,69.41,171.85,0,31.86-9.43,64.48-26.72,91.4-17.34,27.01-51.75,47.59-64.98,76.98-11.12,24.68,19.17,53.78,29.21,75.43,13.92,30.02,22.55,61.8,43.1,88.24,3.11,4.01,19.84,17.58,17.82,23.41-2.29,6.63-36.36-4.18-42-5.31-33.93-6.82-48.16-24.42-65.77-53.39-9.91-16.3-18.64-30.79-24.63-48.97-4.78-14.53-5.75-35.49-22.95-39.44-14.93-3.42-43.96,8.57-59.27,11.31-19.45,3.48-38.03,4.7-57.7,4.31-19.01-.38-32.89-2.24-48,9.98-13.79,11.15-24.89,25.58-36.7,38.7-18.33,20.35-51.66,46.85-81.13,46.85-.37-.66-.73-1.31-1.1-1.97Zm282.53-429.64c0-.06,0-.12,0-.18-38.92,0-61.21,15.22-89.19,42.34-20.49,19.87-41.25,53.95-49.09,81.46-4.55,15.96-4.89,33.8-8.64,50.11-3.88,16.87-13.6,39.33-6.57,56.55,13.18,32.3,64.25,22.42,90.58,20.27,37.65-3.08,64.24-4.86,90.33-34.65,22.53-25.72,45.78-53.13,60.19-84.45,13.9-30.22,15.65-64.77-.7-94.58-18.07-32.93-53.23-36.89-86.9-36.89Z"/>
  <path class="cls-1" d="m774.38,218.78c-41.65,5.44-86.43,1.56-128.39,1.55-48.08-.02-96.16-.13-144.24-.07-47.35.05-94.7.3-142.04,1.16-21.56.39-43.13.86-64.69,1.3-18.83.38-43.26,5.04-61.43.49,3.73-11.57,3.47-23.56,3.2-35.57-.16-7.06-5.44-28.28-3.1-35.03,5.55-16.07,66.45-7.48,84.57-7.41,63.93.25,127.87,1.14,191.79,2.17,63.37,1.02,126.73,1.87,190.1,2.62,17.76.21,35.52.57,53.28.42,7.42-.06,31.59-4,36.94,2.91,2.97,3.83-7.17,20.11-8.83,25.51-4.13,13.44-6.52,25.91-7.15,39.96Z"/>
</svg>