<?xml version="1.0" encoding="UTF-8"?>
<svg id="Calque_1" data-name="Calque 1" xmlns="http://www.w3.org/2000/svg" viewBox="0 0 1024 1024">
  <defs>
    <style>
      .cls-1 {
        stroke-width: 0px;
      }
    </style>
  </defs>
  <path class="cls-1" d="m792.85,278.76c-18.28,1.45-36.97.19-55.31-.03-18.82-.22-46.71-6.52-64.37-1.77-16.94,4.55-2.31,11.74,3.21,25.34,7.86,19.36,4.72,45.16,5.11,65.43.87,45.27.77,90.58.51,135.86-.11,19.32,1.06,36.5-8.98,53.51-9.85,16.69-24.08,32.37-39.01,44.47-15.49,12.55-24.34,15.8-20.92,36.25,3.64,21.72,8.49,42.94,10.58,64.94,4.12,43.4,3.41,88.29-15.62,128.12-19.06,39.92-47.67,60.17-92.22,63.73-40.57,3.24-91.41,2.62-125.23-22.53-68.53-50.96-92.73-141.14-68.54-220.84,9.98-32.87,24.32-75.95,58.11-92.32,38.82-18.8,81.55,6.23,120.83-2.94,34.77-8.12,33.56-64.45,15.73-87.95-23.75-31.3-87.47-23.12-121.18-23.12-13.96,0-34.92,7.56-37.26-8.1-2.22-14.88,14.19-47.94,23.59-60.39,9.7-12.84,22.6-19.56,27.14-35.76,5.95-21.26-.31-39.86-10.39-58.46-4.94-9.12-9.86-18.14-16.2-26.38-4.66-6.07-15.17-13.66-16.35-21.84-2.44-17,10.3-35.4,25.84-38.12,24.19-4.23,51.67-.36,76.21-.27,27.39.09,54.78.2,82.18.28,52.98.16,105.97.17,158.95.2,26.17.01,32.17,1.05,46.31,23.25,12.57,19.72,24.34,39.94,37.26,59.44Zm-338.23,547.38c66.76,6.67,101.33-42.79,115.07-103.29,5.95-26.19,9.21-65.2-5.35-89.36-14.27-23.67-42.67-14.66-65.45-11.33-26.78,3.91-60.92,7.1-85.42,18.93-28.06,13.55-32.72,42.17-34.38,70.66-1.7,29.3,5.95,51.98,18.91,77.86,15.32,30.59,22.42,36.53,56.63,36.53Zm155.56-290c11.71-70.66,8.11-142.81,8.39-214.29.04-10.1,4.4-33.5-4.1-40.78-7.43-6.36-35.78-1.22-44.58-1.22-30.56.02-68.8-6.26-98.56.83-15.85,3.77-14.33,5.54-12.41,19.17,1.24,8.79,2.81,22.85,6.19,30.62,11.39,26.17,38.26,29.13,59.63,42.15,27.62,16.82,45.42,46.79,55.74,76.47,3.97,11.41,17.74,87.91,29.7,87.06Z"/>
</svg>