<?xml version="1.0" encoding="UTF-8"?>
<svg id="Calque_1" data-name="Calque 1" xmlns="http://www.w3.org/2000/svg" viewBox="0 0 1024 1024">
  <defs>
    <style>
      .cls-1 {
        stroke-width: 0px;
      }
    </style>
  </defs>
  <path class="cls-1" d="m281.95,840.11c10.07-28.87,32.56-56.3,47.18-83.38,10.74-19.89,26.43-55.3,46.26-67.23,26.06-15.69,55.17-12.63,79.76-34.27,22.95-20.19,44.91-44.51,64.95-67.63,8.86-10.22,20.52-24.03,24.47-37.38,4.54-15.35-3.65-20.96-14.78-31.82-19.63-19.14-29.53-41.61-44.64-64.12-7.99-11.89-15.94-20.92-13.68-35.44,2.37-15.21,12.21-25.07,9.25-41.55-5.48-30.5-36.03-46.04-57.76-63.38-8.51,21.49-4.33,48.36-4.18,71.14.17,25.93-1.83,51.88-1.26,77.75.6,27.46,2.56,54.91,3.7,82.35.94,22.82,5.9,51.44-6.92,71.89-9.51,15.17-30.45,33.81-44.19,45.28-19.51,16.29-29.27,3.65-34.58-17.07-12.17-47.48-5.86-102.56-4.55-151.14,1.44-53.53,7.82-109.03,4.42-162.46-1.45-22.92-14.23-31.07-31.33-44.13-18.21-13.9-29.1-25.16-12.3-44.63,13.71-15.89,33.92-25.86,49.38-39.87,5.99-5.43,12.89-17.31,20.62-19.64,12.71-3.84,20.77,9.69,28.99,18.07,8.6,8.77,30.71,41.13,43.88,41.36,13.1.23,38.27-24.94,49.8-32.4,25.24-16.33,28.82-12.32,49.4,7,20.71,19.44,34.86,29.91,59.32,11.36,9.16-6.94,19.28-22.12,30.98-19.83,8.82,1.72,23.84,23.47,30.18,30.06,11.27,11.74,46.42,33.98,47.1,50.72-13.73,2.01-24.96,2.31-35.85,11.81-15.36,13.4-27.54,33.83-40.99,49.3-11.18,12.86-31.4,30.76-35.82,47.61-4.96,18.87,9.13,37.38,10.27,55.9,1.01,16.42-10.27,34.12-18.54,47.98-9.46,15.87-19.75,27.92,2.71,32.62,37.62,7.87,70.85-7.71,104.46,17.43,11.95,8.94,20.6,24.3,33.49,31.43,5.03,2.79,13.32,1.8,17.33,5.76,5.85,5.79,2.88,19.1,2.72,26.65-.93,43.57-10.9,80.96-44.98,110.09-30.72,26.27-65.21,48.73-99.08,70.66-28.16,18.24-62.29,40.36-97.65,35.83-22.55-2.89-44.85-17.84-62.49-31.2-10.01-7.58-32.59-35.51-43.81-33.76-8.86,1.38-18.9,15.76-26.19,20.98-7.28,5.22-15.38,9.28-22.97,14.04-19.94,12.52-39.08,29.25-60.78,38.39-.43-.39-.85-.78-1.28-1.16Zm265.19-233.5c-16.68,1.38-35.73,23.16-43.1,37.07-10.75,20.32-1.08,34.64,6.45,54.21,13.66,35.52,44.37,72.37,86.65,67.92,42.26-4.45,59.12-46.45,45.06-84.57-13.53-36.7-62.01-59.26-95.06-74.63Z"/>
</svg>