<?xml version="1.0" encoding="UTF-8"?>
<svg id="Calque_1" data-name="Calque 1" xmlns="http://www.w3.org/2000/svg" viewBox="0 0 1024 1024">
  <defs>
    <style>
      .cls-1 {
        stroke-width: 0px;
      }
    </style>
  </defs>
  <path class="cls-1" d="m441.74,597.27c8.78-1.55,25.65-5.85,27.81,7.34,1.98,12.04-15.41,17.69-22.45,23.07-22.52,17.22-19.33,50.51-20.87,76.23-1.92,32.26-1.04,60.69-19.77,88.05-12.04,17.59-32.02,54.65-53.36,61.23-6.52-29.71-1.56-65.15-1.35-95.54.24-34.1.71-68.19,1.31-102.28,1.17-65.79-2.24-131.56-2.01-197.47.11-31.09.39-62.18-.04-93.26-.22-15.99-.79-31.96-1.54-47.93-.58-12.45,3.05-36.33-3.03-47.22-4.37-7.82-16.01-12.76-22.15-20.27-9.15-11.18-16.67-23.78-25.98-34.9-20.92-24.96-16.82-38.61,17.4-40.3,131.95-6.53,265.08-.97,397.17-1.3,6.84-.02,19.3-2.28,24.11,3.71,5.3,6.61-5.35,35.05-7.34,41.39-2.65,8.45-5.53,29.6-10.98,35.32-7.46,7.83-22.64,5.71-33.06,6.15-8.47.36-27.84-3.11-33.9,4.99-2.52,3.36-.46,27.95-.76,32.57-2,30.5,5.2,56.79-4.95,85.84-5.8,16.61-5.97,21.48-22.65,26.93-15.12,4.94-27.16,7.26-40.36,16.81-25.7,18.57-47.73,45.5-69.15,68.74-7.3,7.92-15.82,22.95-24.94,28.15-12.29,7.01-25.81-4.14-38.35.74-19.41,7.55-19.69,57.53-8.82,73.22Zm76.35-338.37c0,.42,0,.85,0,1.27-16.99,0-33.97-.15-50.96-.35-8.74-.11-28.46-4.49-35.52,1.86-12.07,10.85-2.91,64.92-2.78,80.5.22,27.78-5.73,66.52,3.21,93.02,8.68,25.77,40.94,2.36,55.32-9.21,21-16.91,39.35-36.62,59.64-54.3,17.84-15.54,44.8-25.75,59.66-44.23,11.09-13.8,19.47-55.46,1.85-66.36-9.83-6.08-32.33-2.2-42.86-2.2-15.85,0-31.7,0-47.55,0Z"/>
  <path class="cls-1" d="m559.55,659.67c-20.8-4.98-33.95-19.24-48.48-34.03-8.21-8.36-27.03-21.69-26.16-33.22.73-9.63,23.7-33.67,30.45-39.36,14.4-12.11,33.33-16.66,51.28-20.53,18.33-3.95,32.73-5.92,49.4,4.91,6.69,4.35,18.59,12.9,20.3,21,1.11,5.29-2.61,3.74-2.74,9.94-.8,38.64-40.73,77.35-74.04,91.28Z"/>
</svg>