<?xml version="1.0" encoding="UTF-8"?>
<svg id="Calque_1" data-name="Calque 1" xmlns="http://www.w3.org/2000/svg" viewBox="0 0 1024 1024">
  <defs>
    <style>
      .cls-1 {
        stroke-width: 0px;
      }
    </style>
  </defs>
  <path class="cls-1" d="m569.44,542.62c0,29,12.86,56.81,11.99,86.14-1.04,34.98-4.6,69.36-4.56,104.51.04,31.6,5.22,64.43-19.8,87.22-20.77,18.92-43.44,39.67-67.15,54.42-8.34-7.29-3.51-17.94-2.2-26.94,2.23-15.32,2.36-31.01,2.8-46.47.9-31.1.69-62.21.7-93.32,0-21.13,6.67-127.87-35.59-79.83-30.81,35.02-29.81,89.07-56.52,126.96-28.5,40.45-70.71,63.68-113.05,86.42-4.75-8.97,20.74-35.94,26.15-43.18,13.72-18.34,23.05-34.26,29.04-56.52,10.54-39.19,29.78-87.38,17.69-128.18-5.57-18.81-21.68-40.94-21.7-60.34-.02-22.45,9.47-50.03,14.69-71.89,4.57-19.17,11.59-33.28,25.32-47.42,8.44-8.69,32.71-40.87,45.09-40.55,16.65.43,16.93,24.45,12.49,35.26-4.64,11.28-13.91,15.67-11.85,29.58,1.33,8.98,8.11,13.06,11.98,20.56,8.57,16.61,13.41,42.26,12.4,60.75-.94,17.08-20.01,43.5-17.48,59.34,2.65,16.6,15.93,1.29,24.05-6.58,16.83-16.32,26.36-34.58,35.83-55.52,7.05-15.6,28.74-36.77,31.09-52.53,3.45-23.21-19.1-31.39-33.12-43.6-16.45-14.33-11.54-31.99,6.93-43.61,13.35-8.4,27.24-1.22,24.82-23.64-3.18-29.44-52.99-54.23-74-71.26-15.98-12.96-32.67-27.58-42.79-45.81-3.53-6.37-4.42-14.46-7.91-20.48-3.47-5.98-10.9-8.99-12.76-15.86-2.49-9.22,11.14-34.68,20.78-37.97,14.83-5.06,32.33,20.88,38.91,31.79,12.62,20.94,13.72,22.52,31.66,3.92,21.82-22.62,30.65-24.19,61.23-23.66,21.97.38,41.86-2.43,63.04-8.07,22.6-6.02,31.35-20.35,49.42-32.8,17.74-12.23,17.56,4.08,27.59,16.22,11.86,14.35,38.42,18.84,47.03,35.24,7.77,14.79-7.36,33.64-10.23,49.79-4.65,26.22-12.22,46.62-29.61,67.52-14.56,17.5-36.4,33.21-49.11,51.41-13.28,19.02,1.82,42.13,12.18,59.88,24.61,42.17,58.18,74.66,87.47,112.61,16.24,21.03-3.28,25.48-18.36,39.65-9.75,9.16-37.55,43.7-51.71,43.7-13.59,0-31.87-29.91-40.46-39.14-15.75-16.94-33.01-35.13-52.44-47.69Zm96.35-297.9c8.37-8.05,22.71-17.69,16.69-31.23-7.88,1.6-24.63,23.02-16.69,31.23Z"/>
</svg>