<?xml version="1.0" encoding="UTF-8"?>
<svg id="Calque_1" data-name="Calque 1" xmlns="http://www.w3.org/2000/svg" viewBox="0 0 1024 1024">
  <defs>
    <style>
      .cls-1 {
        stroke-width: 0px;
      }
    </style>
  </defs>
  <path class="cls-1" d="m434.77,725.58c15.19,19.74.8,42.01-7.02,61.25-8.92,21.95-14.36,31.17-39.64,31.89-59.59,1.69-40.96-51.95-39.92-91.47,2.93-110.9,3.67-223.83-2.19-334.61-2.35-44.39-3.47-89.21-34.33-123.51-12.31-13.68-26.96-34.15-16.42-52.91,7.82-13.92,31.8-29.39,47.33-31.69,21.69-3.21,45.92-.16,67.98-.56,26.65-.48,56.95-5.4,83.3-1.59,21.51,3.1,29.48,17.56,39.91,35.78,9.57,16.71,22.48,21.86,34.31,35.47-11.48,9.55-42.72,4.56-57.29,4.81-18.02.31-36.07.28-54.08.92-12.38.44-23.87-1.91-28.74,10.15-4.98,12.35,4.6,42.27,5,55.95.48,16.26-2.9,31.72-5.88,47.62-1.48,7.91-16.33,48.3-12.07,53.82,11.78,15.24,53.99-24.45,63.75-32.86,20.69-17.83,40.35-39.91,66.01-50.87,13-5.55,33.27-4.69,43.2-15.82,10.1-11.31,10.81-36.36,10.82-50.77.02-14.26-2.84-21.94,6.9-34.13,9.26-11.59,23-24.45,35.24-33.22,11.09-7.95,18.76-10.51,31.61-6.54,8.47,2.61,15.64,8.82,24.03,11.75,6.75,2.35,18.5,1.34,24.35,4.94,37.71,23.2-65.08,122.92-52.88,157.05,4.87,13.62,16.11,25.47,22.16,38.73,6.74,14.75,10.94,31.02,13.59,47.01,5.05,30.4,2.83,68.13-5.8,97.91-7.71,26.61-23.7,59.2-41.26,80.52-9.91,12.03-20.93,22.67-32.95,32.47-13.1,10.68-23.03,13.2-10.65,28.97,19.1,24.34,48.49,36.67,69.04,59.92,12.51,14.16,25.98,29.67,35.31,46.17,2.56,4.53,16.32,26.53,14.74,30.95-3.91,10.88-17.54-3.46-23.8-8.34-15.19-11.83-31.5-22.15-46.69-33.94-27.59-21.42-57.1-53.02-75.49-82.72-8.52-13.75-12.27-21.87-28.11-26.44-18.04-5.22-39.33-3.74-58.05-6.16-15.17-1.97-29.58-5.93-42.96-13.28-11.84-6.51-23.6-16.43-37.07-19.06-2.22,9.05,3.92,79.73,7.54,85.87,2.38-3.13,4.62-6.09,7.14-9.41Zm105.41-309.11c-12.81,0-26.07-1.67-37.48,4.54-10.31,5.62-19.55,17.66-27.95,25.92-22.63,22.25-44.09,46.75-53.7,77.62-5.46,17.55-14.71,60.63.52,74.3,15.44,13.86,55.5,12.89,75.08,12.91,27.75.04,75.78,10.9,99.76-3.77,19.5-11.93,35.15-40.56,36.86-62.67,2.17-28.22-3.83-65.34-19.21-89.33-18.68-29.14-41.45-35.17-73.88-39.54Z"/>
</svg>