<?xml version="1.0" encoding="UTF-8"?>
<svg id="Calque_1" data-name="Calque 1" xmlns="http://www.w3.org/2000/svg" viewBox="0 0 1024 1024">
  <defs>
    <style>
      .cls-1 {
        stroke-width: 0px;
      }
    </style>
  </defs>
  <path class="cls-1" d="m720.83,873.56c-26.66-14.97-52.98-29.36-75.26-50.61-17.25-16.45-36.42-48.5-63.16-43.25-13.23,2.6-19.17,7.37-33.39,1.65-14.27-5.74-28.1-17.92-40.2-27.28-10.95-8.47-21.88-17.42-30.81-28.06-9.15-10.9-12.75-29.59-21.72-38.92-7.62-7.92-11.49-4.51-22.45-2.36-15.53,3.05-27.87,2.69-42.96-2.41-28.36-9.59-49.7-27.97-74.48-43.69-8.6-5.46-18.73-10-12.18-20.38,5.43-8.61,33.85-19.51,42.7-24.38,27.43-15.1,52.97-32.92,80.54-47.9-6.46-16.83-20.35-26.14-34.78-36.09-22.75-15.68-44.99-33.92-63.24-54.9-28.15-32.37-38.56-87.79-10.42-123.67,14.62-18.64,36.4-25.25,53.33-39.92,4.52-3.92,6.73-13.7,12.73-15.16,9.37-2.28,28.65,16.48,35.4,21.71,16.2,12.55,23.84,12.09,34.25-3.5,11.95-17.88,27.06-33.79,42.7-48.51,19.45-18.31,34-17.25,57.34-25.61,22.44-8.04,42.01-32.94,58.97-49.11,19.59-18.68,24.65-30.07,48.92-10.7,9.46,7.55,18.06,16.11,27.37,23.83,8.97,7.43,22.17,13,28.34,22.96,11.72,18.89-8.66,34.93-20.6,48.19-19.03,21.13-32.78,45.08-49.33,68.12-25.63,35.69-57.51,73.9-50.08,120.48,4.22,26.42,19.49,44.95,38.56,62.94,22.42,21.15,32.58,41.95,36.02,72.79,2.66,23.84,5.57,60-15.58,75.3-10.33,7.47-24.36,15.73-35.92,21.1-11.69,5.43-23.76,6-33.26,15.97-4.99-6.73-11.25-23.04-19.85-24.63-14.33-2.66-16.22,23.74-16.97,32.14-1.09,12.21-.94,30.97,6.18,41.56,11.1,16.51,22.8,10.03,38.94,7.46,32.22-5.13,43.34,23.08,61.55,44.89,12.34,14.78,24.94,29.37,37.55,43.91,8.31,9.58,23.88,22.39,26.29,35.07-.35.33-.69.65-1.04.98Zm-337.33-432.35c0,14.36,2.24,35.64,20.28,38.25,17.09,2.47,31.47-18.7,41.13-29.86,17.68-20.43,56.49-51.51,34.02-79.42-10.72-13.32-29.99-20.5-45.83-24.85-15.65-4.31-15.65-4.08-21.42,10.1-10.78,26.52-30.3,56.32-28.18,85.78Zm190.25,14.32c-25.14,24.32-45.97,54.18-69.34,80.22-9.86,10.99-16.67,16.98-7.91,30.21,7.88,11.89,29.09,18.26,39.54,28.34,7.17,6.91,18.78,32.97,32.94,27.51,13.2-5.09,10.24-42.26,9.84-53.08-1.38-37.73-3.25-75.49-5.08-113.2Z"/>
</svg>