<?xml version="1.0" encoding="UTF-8"?>
<svg id="Calque_1" data-name="Calque 1" xmlns="http://www.w3.org/2000/svg" viewBox="0 0 1024 1024">
  <defs>
    <style>
      .cls-1 {
        stroke-width: 0px;
      }
    </style>
  </defs>
  <path class="cls-1" d="m250.89,409.04c24.93,28.87,50.94,53.22,78.02,79.88,25.06,24.67,42.5,57.13,81.08,61.54,3.78.43,18.95,1.72,21.85-1.37,5.86-6.23-1.29-4.14-3.25-9.31-5.53-14.64-19.91-28.58-28.88-41.34-10.62-15.12-27.57-31.1-30.91-49.72-3.41-19.03,6.79-38.51,16.63-54.14,9.16-14.54,20.74-21.69,34.2-31.82,16.07-12.09,30.36-21.42,14.07-39.24-28.53-31.19-58.19-48.98-62.13-94.7-1.24-14.38-.16-31.17,11.3-41.64,13.52-12.35,30.09-1.71,46.63-4.19,40.61-6.09,80.67-3.7,121.92-3.54,25.97.1,51.94.14,77.92.16,21.95.02,48.96-4.38,70.4.27,17.08,3.71,27.76,22.15,38.33,35.12,12.64,15.52,29.27,33.07,36.15,52-24.81-1.27-49.72-1.06-74.56-1.37-22.47-.28-45.04-3.36-67.16-3.36,5.69,12.14,14.24,18.09,21.61,28.27,8.43,11.64,6.39,24.92,6.7,38.6.19,8.29-3.01,33.75,5.47,37.56,10.51,4.71,32.98-8.65,45.98-5.09,11.67,3.2,43.25,41.6,32.72,49.32-6.71,4.92-34.4-2.87-42.22-2.54-16.8.7-32.42.72-49.34-.19-30.73-1.66-61.42-1.37-92.2-3.09-29.03-1.63-63.22-9.3-84.96,12.08-8.45,8.31-14.16,19.18-22.75,27.25-7.59,7.14-14.59,7.23-14.71,18.87-.1,9.76,14.11,24.47,19.38,32.71,9.25,14.46,16.82,25.37,29.92,35.98,7.67,6.22,14.57,18.08,23.76,8.19,6.1-6.56.13-28.81.79-37,2.51-30.86,33.18-36.26,58.9-46.53,58.56-23.39,115.86,57.33,104.54,111.71-3.07,14.77-10.77,23.91-17.44,36.92-6.36,12.42-8.93,23.45-17.85,34.75-14.15,17.94-46.94,30.34-69.66,26.6-22.64-3.73-48.29-31.71-72.99-20.54-22.53,10.19-25.08,55.44-18.93,75.1,9.17,29.27,56.34,43.18,82.4,48.65,31.43,6.59,65.39,3.77,78.44-28.91,6.3-15.76,5.34-32.79,10.37-48.58,4.91-15.41,15.41-29.42,24.66-42.61,10.85-15.48,23.26-26.76,39.39-36.68,9.16-5.63,19.51-17.15,29.29-19.32.9,7.73-3.98,16.44-5.52,24.34-2.31,11.89-1.87,24.11-3.5,36.05-3.08,22.58-10.88,45.5-25.12,63.5-28.77,36.36-74.78,57.41-108.75,88.48-35.42,32.39-78.29,51.93-125.73,32.28-44-18.23-77.13-52.28-64.07-101.47,5.39-20.3,12.53-41.04,23.6-59,12.5-20.28,30.02-37.11,41.75-57.95,11.94-21.21,14-37.39-7.31-50.74-22.5-14.1-23.38-6.86-46.07,2.13-94.99,37.63-140.9-99.03-173.26-161.64.37-.22.74-.45,1.11-.67Zm337.23-48.87c7.04-15.4,9.85-84.4-3.51-93.87-8.93-6.33-43.86-1.01-55.22-.91-11.53.1-40.01-4.84-47.1,7.01,6.89,8.46,15.48,15.1,21.31,24.72,6.9,11.39,6.9,26.57,13.88,37.17,12.72,19.33,49.95,21.25,70.65,25.87Zm41.68,187.96c.56-23.98-14.83-45.3-39.07-32.64-7.93,4.14-13.49,10.43-20.91,14.55-10.31,5.73-21.78,4.58-29.26,15-19.99,27.85,19.46,37.22,38.7,41.01,29.03,5.71,53.36-2.86,50.54-37.92Z"/>
</svg>