<?xml version="1.0" encoding="UTF-8"?>
<svg id="Calque_1" data-name="Calque 1" xmlns="http://www.w3.org/2000/svg" viewBox="0 0 1024 1024">
  <defs>
    <style>
      .cls-1 {
        stroke-width: 0px;
      }
    </style>
  </defs>
  <path class="cls-1" d="m348.27,648.7c-4.21-52.33-12.02-104.78-7.62-157.33,2.13-25.48,7.78-49.67,15.3-74.05,7.46-24.16,22.91-43.06,31.24-66.13,14.89-41.23-62.98-71.96-41.79-103.48,11.72-17.43,33.64-40.69,50.44-53.29,20.58-15.43,37.75,9.94,55.22,21.46,20.17,13.3,37.78,15.1,61.41,16.57,22,1.37,48.34,8.92,69.94,3.08,23.54-6.36,22.97-22.03,37.33,4.11,5.41,9.85,10.77,19.74,16.14,29.62,1.92,3.53,7.59,22.64,8.37,23.32,12.64,11.14,32.53-20.28,41.72-28.32,9.64-8.44,11.14-10.88,18.86-1.04,6.36,8.11,12.28,29.73,12.1,40.2-.37,22.16-17.05,39.18-32.39,52.99-14.05,12.65-48.69,27.93-47.53,49.3.96,17.65,23.76,36.5,33.98,49.53,13.22,16.85,24.99,33.72,36.71,51.53,11.03,16.77,20.1,32.23,29.39,49.99,5.38,10.3,9.59,11.69,6.7,21.51-2.29,7.77-14.1,15.93-19.44,21.27-13.58,13.58-30.2,36.38-47.62,44.57-22.21,10.44-20.75-22.45-31.94-36.3-13.68-16.93-29.54-32.1-42.94-49.35-7.15-9.21-23.7-41.45-36.72-42.97-20.52-2.4-5.39,28.7-1.81,37.67,9.57,23.98,14.05,50.32,17.53,75.85,3.17,23.31-2.98,47.14-5.72,70.33-2.92,24.74-4.74,47.46-19.77,68.16-10.25,14.11-22.13,25.39-35.77,36.05-13.39,10.46-31.5,31.93-32.29,3.17-1.39-50.34,10.37-104.82-.28-154.81-1.25-5.87-6.88-23.81-14.06-26.42-7.55-2.75-13.21,3.9-19.59,9.92-17.77,16.75-25.65,46.85-34.82,69.55-8.79,21.74-14.34,42.14-30.58,59.77-13.81,15-30.22,31.23-47.07,42.89-5.38,3.72-54.13,31.28-60.51,26.23-7.13-5.65,20.89-33.95,25.87-39.75,37.67-43.88,41.99-89.2,41.99-145.36Zm89.95-250.92c-.49-.31-.98-.63-1.47-.94-9.62,13.28-25.08,34.25-15.89,51.51,2.07,3.88,7.38,4.95,9.93,9.33,3.74,6.43,5.13,22.62,6.48,29.92,4.15,22.43,5.72,45.12,5.7,67.92-.01,13.76-11.41,45.82-5.49,57.71,24.21-21.41,38.66-49.1,55.43-76.65,5.83-9.57,11.24-18.13,18.72-26.38,3.47-3.83,9.04-10.97,12.98-14.28,2.69-2.26,9.77-1.67,11.79-4.97,11.73-19.09-28.2-43.7-41.97-53.66-16.82-12.16-37.11-31.9-56.2-39.51Z"/>
</svg>