<?xml version="1.0" encoding="UTF-8"?>
<svg id="Calque_1" data-name="Calque 1" xmlns="http://www.w3.org/2000/svg" viewBox="0 0 1024 1024">
  <defs>
    <style>
      .cls-1 {
        stroke-width: 0px;
      }
    </style>
  </defs>
  <path class="cls-1" d="m304.92,851.79c-4.88-9.77,24.55-43.94,28.54-55.28,7.73-21.99,9.38-45.17,10.22-68.3,1.76-48.59-.11-97.53-.99-146.12-.94-51.85-.97-103.73-1.59-155.59-.54-44.96,10.63-107.75-16.99-145.54-6.47-8.86-37.18-26.11-37.05-35.52.22-15.19,37.8-33.45,47.8-41.67,15.5-12.73,30.26-39.94,51.69-29.04,20.76,10.56,31.2,42.63,52.7,51.6,21.1,8.8,32.57-16.13,54.11-10.71,16.54,4.16,35.04,20.62,47.93,30.88,18.42,14.66,33.03,29.89,49.72,45.81,17.56,16.76,35.29,5.67,55.48,13.48-12.39,28.6-60.49,57.79-53.83,92.4,3.47,18.05,23.28,38.98,33.9,53.26,10.21,13.73,22.15,25.06,35.52,35.69,16.59,13.19,37.11,21.29,53.26,34.63,13.25,10.94,8.33,14.98,11.1,33.31,6.45,42.58,20.3,82.62-.58,124.38-18.35,36.7-55.69,58.58-88.89,79.98-32.42,20.89-64.96,44.31-98.31,63.5-41.48,23.88-79.64,14.71-123.12,3-19.68-5.3-31.77-6.7-50.32.68-20.34,8.1-39.19,19.62-60.3,25.18Zm137.7-204.57c8.36,55.58,35.92,105.25,93.84,118.31,48.09,10.85,118.27-15.13,113.42-73.28-2.62-31.41-16.6-51.87-40.83-70.75-17.47-13.61-46.66-41.4-68.13-46.27-18.01-4.09-43.53,13.31-59.1,21.79-20.48,11.15-39.33,24.37-39.2,50.19Zm-12.63-320.36c-17.1,51.83-6.56,119.25-4.61,173.13.58,16.21,1.21,32.42,2.01,48.61.37,7.64-2.24,31.99,4,37.33,13.11,11.22,49.45-19.25,58.82-27.46,18.38-16.1,31-29.09,34.74-53.76,3.83-25.27,5.08-48.67-8.03-71.38-11.85-20.52-31.57-33.98-46.14-52.31-13.8-17.36-23.91-40-40.78-54.16Z"/>
</svg>