<?xml version="1.0" encoding="UTF-8"?>
<svg id="Calque_1" data-name="Calque 1" xmlns="http://www.w3.org/2000/svg" viewBox="0 0 1024 1024">
  <defs>
    <style>
      .cls-1 {
        stroke-width: 0px;
      }
    </style>
  </defs>
  <path class="cls-1" d="m569.24,852.77c0-41.76-32.89-71.68-36.7-111.32-1.84-19.12,8.69-37.33,10.25-56.49,2-24.51-6.62-17.04-23.7-11.99.27-22.73,16.95-34.18,29.14-51.01,14.05-19.39,35.43-52.39,35.16-77.33-.28-25.61-78.83-108.13-93.73-58.55-6.86,22.83,18.26,30.35,30.29,43.87,17.1,19.22,6.9,41.91-10.16,58.05-14.43,13.64-30.09,23.27-48.69,11.48-19.82-12.57-45.31-33-36.92-57.61,3.76-11.04,31.2-47.63,25.76-57.8-8.91-16.69-46.23,2.62-60.77,3.76-49.08,3.85-93.05-36.45-126.18-67.63-19.31-18.17-36.98-37.93-50.41-60.84-11.55-19.69-31.59-43.12-17.16-64.88,23.91-36.07,77.39-60.75,115.78-77.83,25.09-11.16,38.17,1.42,60.71,11.16,23.86,10.31,26.74,25.56,19.31,51.79-13.54,47.82-77.41,59.62-86.09,110.07-7.71,44.79,67.78,64.18,100.26,63.49,24.04-.5,37.98-1.95,56.4-17.97,17.79-15.47,37.31-29.17,56.06-43.44,11.9-9.05,33.49-19.07,42.54-30.44,16.41-20.62-14.35-31.11-28.67-41.42-28.95-20.84-94.36-74.01-48.57-111.1,23.75-19.24,24.63,28.36,47.05,25.07,7.87-1.16,19.94-16.91,25.83-21.97,10.58-9.08,21.22-15.75,33.36-22.54,11.65-6.52,18.1-12.3,31.08-8.77,11.21,3.05,20.33,8.86,32.64,10.16,12.57,1.33,20.54-.64,31.24-7.63,16.96-11.07,17.49-19.11,31.4-2.01,8.16,10.03,16.47,24.91,28.14,31.25,9.6,5.22,22.03,2.93,29.41,13.23,12.28,17.14-7.32,53.99-17.29,69.49-26.54,41.3-89.93,72.57-95.41,124.43-2.74,25.95,26.91,28.73,43.17,44.45,21.13,20.45,44.57,38.78,64.74,60.14,15.12,16.02,38.44,39.11,38.61,62.95.07,10-12.44,27.72.88,33.72,9.68,4.36,17.5-7.37,25.3-8.36,2.64,13.48-11.7,28.7-17.91,39.37-7.19,12.34-14.05,24.71-23.41,35.6-20,23.29-46.07,43.99-71.57,60.81-24.48,16.14-48.15,32.02-69.42,52.15-23.48,22.22-53.58,36.88-81.74,52.44Zm167.37-149.98c-3.43-40.47-33.7-78.96-63.88-103.83-6.99-5.76-13.67-12.12-21.08-17.38-11.85-8.42-11.18-9.74-15.07,3.93-4.37,15.32,1.12,39.08,1.54,54.71.57,21.43,3.05,42.16,7.88,63.03,3.02,13.02,5.62,47.11,18.37,55.56,24.2,16.04,71.13-34.3,72.23-56.02Z"/>
</svg>