<?xml version="1.0" encoding="UTF-8"?>
<svg id="Calque_1" data-name="Calque 1" xmlns="http://www.w3.org/2000/svg" viewBox="0 0 1024 1024">
  <defs>
    <style>
      .cls-1 {
        stroke-width: 0px;
      }
    </style>
  </defs>
  <path class="cls-1" d="m765.41,867.37c-43.43-22.79-74.35-52.5-102.85-91.88-14.57-20.13-28.34-41.16-33.55-65.89-5.36-25.45,8.23-45.22-25.49-42.24-25.38,2.24-50.56,5.2-76.02,6.32-27.76,1.22-38.04,12.07-56.92,30.82-10.91,10.83-29.9,33.97-46.54,24.2-14.93-8.77-26-37.99-34.3-53.17-26.69-48.87-15.6-103.53-14.45-157.61,1.26-59.22,2.04-118.46,2.56-177.69.22-24.62-1.56-49.88.33-74.42.55-7.09,6.69-21.34.77-26.83-4.86-4.5-28.39.25-34.52.46-24.31.81-51.72,4.33-75.81,1.71-13.44-1.46-12.35,1.13-9.32-14.41,2.75-14.09,8.38-27.19,9.66-41.59.78-8.69-1.34-13.89,4.55-19.23,5.73-5.2,26.22-1.39,33.15-1.39,30.19,0,60.37.13,90.56-.09,58.05-.42,116.06-2.58,174.11-3.13,27.36-.26,54.72-.34,82.08-.61,14.87-.15,65-10.35,75.34,2.17,2.81,3.4,0,17.16.22,21.91.5,10.93,4.3,22.1,3.88,33.03-.5,13.17,4.34,12.61-10.15,16.44-12.44,3.3-30.54.22-43.2.13-55.2-.4-110.4-1.1-165.59-1.02-15.33.02-49.12-6.88-59.88,6.22-5.59,6.81-2.45,23.72-2.6,31.74-.3,15.33-.46,30.67-.54,46.01-.04,8.49-5.56,57.61,1.61,62,6.79,4.16,36.4-17.99,44.76-22.6,22.79-12.54,41.16-27.68,67.24-33.15,26.99-5.66,52.13-.77,77.83,8.09,52.81,18.2,90.62,48.99,109.02,102.56,19.07,55.52,7.52,109.86-21.81,159.2-11.45,19.27-38.69,37.35-44.19,59-5.73,22.54,15.17,55.03,21.86,76.66,7.84,25.35,13.48,50.22,25.57,74.15,9.14,18.06,31.81,43.2,33.82,63.2-.4.31-.81.63-1.21.94Zm-316.01-358.29c1.53,33.3,3.2,57.51,36.26,73.1,28.38,13.39,65.11,12.16,95.78,11.61,28.63-.51,58.41,2.45,79.76-19.83,21.29-22.23,28.81-51.74,17.74-80.47-21.84-56.63-71.03-92.89-131.39-90.8-32.67,1.13-56.42,1.31-77.3,27.32-19.86,24.75-19.45,47.96-20.86,79.07Z"/>
</svg>