<?xml version="1.0" encoding="UTF-8"?>
<svg id="Calque_1" data-name="Calque 1" xmlns="http://www.w3.org/2000/svg" viewBox="0 0 1024 1024">
  <defs>
    <style>
      .cls-1 {
        stroke-width: 0px;
      }
    </style>
  </defs>
  <path class="cls-1" d="m291.05,299.7c-13.9-8.65-33.34-5.89-49.23-6.21-16.28-.33-27.7,2.78-34.81-11.49-7.96-15.95-32.05-66.52-14.15-74.73,12.08-5.55,39.62.44,52.71.46,22.19.03,44.39.06,66.58.09,40.69.05,81.38.1,122.07.14,81.38.09,162.76.24,244.13.22,19.87,0,39.75-.11,59.62-.21,11.27-.06,25.86-2.49,36.36,2.36,25.54,11.82,50.86,58.94,63.3,82.77-28.2,4.41-59.88.65-88.52,1.07-22.48.33-49.37-5.91-70.76-2.49,7.19,17.88,27.87,26.31,32.04,44.49,5.57,24.24.56,56.34.79,81.35.46,50.17.69,100.34.86,150.51.07,21.15,2.31,41.75-10.18,59.63-11.99,17.17-26.79,28.49-34.85,48.55-15.93,39.67-18.85,77.89-51.95,107.75-33.88,30.55-72.5,42.47-117.91,30.55-40.35-10.6-80.58-38.63-100.99-75.72-19.02-34.57-24.29-81.13-7.26-117.49,7.93-16.93,29.83-35.78,29.06-55.44-.71-18.13-25.82-28.05-39.06-38.18-57.63-44.09-185.08-158.63-87.85-227.99Zm346.26,141.69c11.53-20.21,4.18-54.14,3.72-76.36-.3-14.48,6.26-53.69-3.05-64.62-8.79-10.32-42.51-3.43-54.23-3.41-23.59.04-45.89,1.67-69.49.27-48.97-2.91-98.49-1.35-147.53-1.74-9.55-.08-27.37-3.73-35.41,3.61-7.02,6.41-5.15,23.83-6.29,32.59-3.53,27.14-.03,37.71,17.54,58.16,59.21,14.47,120.92-1.27,178.35-18.3,27.36-8.11,47.19-9.42,68.63,12.85,17.12,17.79,38.89,33.73,47.76,56.94Zm-125.16,184.17c-.01-.31-.03-.63-.04-.94-21.05.92-56.73-5.3-71.97,12.01-12.72,14.44-12.16,40.07-9.97,58.02,6.69,54.71,41.38,58.22,88.69,49.21,40.71-7.75,79.85-26.59,91.28-70.28,15.63-59.72-60.64-47.1-97.99-48.01Zm120.09-154.9c-25.12-24.47-79.05-42.57-112.47-24.55-22.78,12.28-62.81,60.41-53.52,88.88,6.88,21.1,38.34,15.74,56.74,16.77,23.98,1.35,50.2,7.48,73.95,4.23,20.6-2.81,31.95-8.45,36.92-28.84,4.59-18.85,6.75-41.03,3.42-60.15-1.9,1.38-3.21,2.33-5.04,3.65Z"/>
</svg>