<?xml version="1.0" encoding="UTF-8"?>
<svg id="Calque_1" data-name="Calque 1" xmlns="http://www.w3.org/2000/svg" viewBox="0 0 1024 1024">
  <defs>
    <style>
      .cls-1 {
        stroke-width: 0px;
      }
    </style>
  </defs>
  <path class="cls-1" d="m380.3,183.64c76.51,0,153.02-.36,229.53-.58,35.4-.1,71.01,1.9,106.34,1.28,12.07-.21,32.95-8.62,31.05,8.51-1.02,9.18-24.15,33.63-29.9,42.75-14.37,22.83-30.64,38.51-36.56,65.11-7.89,35.44-20.52,65.87-39.65,96.61-17.06,27.41-36.15,42.13-64.19,58.23-26.96,15.48-63.8,25.18-87.72,44.73-19.78,16.16-12.89,67.74-12.79,92.61.15,37.35-.42,74.56-1.64,111.89-.98,30.03,1.79,55.84-15.57,81.4-8.73,12.85-17.69,25.83-27.22,38.1-9.47,12.2-13.97,25.68-22.14,11.72-5.64-9.65-2.56-35.29-3.29-47.25-1.03-16.75-1.33-33.48-1.58-50.25-.57-37.69-.72-75.39-.86-113.08-.27-72.87,1.16-145.71.69-218.59-.27-41.18-1.01-82.17,2.07-123.25,1.79-23.8-2.61-21.82-24.68-21.94-20.99-.12-42,.15-62.99.22-13.27.04-34.46,5.39-41.41-6.31-4.12-6.92,4.13-54.15,7.45-60.55,7.29-14.04,14.56-10.65,31.8-10.8,21.09-.19,42.18-.39,63.27-.39,0-.05,0-.11,0-.16Zm96.33,181.89c.18,0,.37,0,.55,0,0,17.16,0,34.32,0,51.47,0,8.72-4.43,34.31.52,41.33,9.53,13.52,41.52-21.43,52.6-29.02,42.72-29.28,88.49-69.05,113.43-115.19,12.81-23.71,25.27-49.37-11.74-52.74-29.55-2.7-60.87.59-90.5,1.02-19.4.28-59.96-9.16-64.59,13.31-5.7,27.63-.26,61.61-.26,89.82Z"/>
  <path class="cls-1" d="m625.52,629.97c2.44-20.63,13.52-47.74,32.22-59.15,19.95-12.17,40.64-8.45,35.17,17.52-5.2,24.69-20.18,44.76-36.59,63.2-7.47,8.39-11.47,16.75-20.99,9.31-7.6-5.93-9.29-22.33-9.81-30.89Z"/>
</svg>