<?xml version="1.0" encoding="UTF-8"?>
<svg id="Calque_1" data-name="Calque 1" xmlns="http://www.w3.org/2000/svg" viewBox="0 0 1024 1024">
  <defs>
    <style>
      .cls-1 {
        stroke-width: 0px;
      }
    </style>
  </defs>
  <path class="cls-1" d="m241.53,268.82c11.85-14.34-5.94-56.1-6.77-73.28-.62-12.79-3.23-12.21,11.16-13.6,16.03-1.55,33.06.09,49.14.14,65.42.18,130.85.38,196.27.53,62.26.14,124.52.36,186.78.21,22.36-.05,60.93-8.37,74.54,10.73,7.3,10.24,10.05,25.24,15.77,36.63,6.69,13.33,14.61,26,21.42,39.29-25.95,2.8-52.96,1.04-79.06,1.21-20.05.13-54.09-6.38-71.97,4.46,20.91,46.02,22.04,100.55,9.56,149.27-12.47,48.7-64.46,63.3-108.28,70.02-24.63,3.78-49.89,3.51-74.56-.03-13.71-1.97-49.65-17.58-59.56-6.35-4.58,5.19-1.46,25.77-1.49,32.88-.06,14.44-.11,28.88-.17,43.33-.11,28.88-.22,57.77-.33,86.65-.19,48.5,6.55,95.59-18.88,138.46-8.8,14.83-21.94,42.01-37.27,50.93-20.84,12.13-11.82-19.54-11.34-32.98,3.91-109.16,2.8-218.67,2.64-327.88-.04-30.66-.11-61.31-.18-91.97-.06-28.37-4.35-60.63.81-88.57.91-4.93,11.38-22.71,8.19-27.86-3.88-6.25-21.66-1.03-27.53-.79-24.86,1.03-54.43,3.15-78.88-1.44Zm165.14,71.39c.3,0,.59,0,.89.01,0,16.94-8.7,62.47,9.13,67.52,10.47,2.97,30.75-.6,42.28.63,12.57,1.34,25.13,2.8,37.75,3.61,23.88,1.53,55.88,2.15,78.93-6.1,24.04-8.61,22.64-39.36,23.27-60.81.51-17.46,9.87-63.39-8.08-72.35-9.27-4.63-28.69-.82-38.91-.81-16.1.02-32.21.05-48.31.02-14.27-.03-28.54-.11-42.82-.23-10.54-.09-37.16-5.64-45.28.05-14.9,10.44-8.24,50.31-8.85,68.47Z"/>
  <path class="cls-1" d="m593.74,514.88c10.03,26.74,21.17,44.71,39.07,66.81,15.37,18.98,23.57,44.17,27.48,67.95,4.25,25.84,6.61,53.04,14.48,78.08,6.22,19.82,25.87,38.05,29.2,57.97-.37.3-.74.59-1.11.89-43.32-28.48-76.38-64.04-98.97-110.97-12.78-26.56-14.92-53.68-19.34-82.44-3.46-22.53-8.74-59.8,9.19-78.29Z"/>
</svg>