<?xml version="1.0" encoding="UTF-8"?>
<svg id="Calque_1" data-name="Calque 1" xmlns="http://www.w3.org/2000/svg" viewBox="0 0 1024 1024">
  <defs>
    <style>
      .cls-1 {
        stroke-width: 0px;
      }
    </style>
  </defs>
  <path class="cls-1" d="m439.46,318.48c-9.66,12.78-5.16,35.81-4.91,50.45.34,20.32.75,40.63,1.2,60.95.4,17.94.83,35.88,1.38,53.82.42,13.8-4.6,46.62,6.4,56.77,15.35-4.91,26.26-16.07,41.55-21.55,16.06-5.75,31.3-9.67,47.08-16.44,9.66,4.51,4.6,30.82,8.99,40.08,7.63,16.1,20.39,30.63,29.32,46.31,7.99,14.04,18.05,26.61,26.2,40.52,9.62,16.41,7.26,23.05-4.7,36.93-20.8,24.13-28.21,54.73-47.27,80.31-15.96,21.43-38.37,37.57-61.6,48.96,4.6-34.3,29.22-103.84-2.43-131.7-6.62-5.82-39.54-22.45-46.4-12.25-7.62,11.32,1.07,51.72,1.16,65.8.13,19.02,4.84,44.75.37,63.1-4.21,17.27-25.38,26.48-38.73,36.88-31.3,24.36-67.17,59.27-107.48,66.95-.23-.41-.46-.82-.69-1.22,18.79-29.68,48.07-41.12,49.7-79.74,1.7-40.18-.8-81.06-1.05-121.29-.52-85.1.6-170.14,2.06-255.22.62-36.05.29-71.8-.74-107.82-.51-17.71,1.89-36.65-.53-54.19-1.3-9.42-2.41-15.39-9.26-22.36-6.6-6.71-23.72-9.1-28.35-16.71-6.63-10.89,2.45-17.32,10.24-24.65,12.58-11.84,24.02-24,35.82-36.68,8.42-9.05,20.64-26.44,32.76-24.79,12.32,1.68,32.14,27.21,40.33,36.97,12.46,14.84,19.65,32.89,31.07,48.42,13.27,18.06,17.51,16.19,36.68,8.52,15.54-6.22,25.1-5.92,41.12-1.45,16.62,4.64,39.95,3.66,55.04,9.89,12.62,5.22,28.51,30.9,35.72,42.21,8.03,12.6,7.15,26.59,22.62,21.36,12.3-4.16,20.4-22.54,28.6-31.44,18.89-20.48,23.91-4.26,31.99,17.29,12.7,33.91-4.35,57.88-30.41,77.92-9.32,7.16-34.87,18.95-35.1,33.03-.27,15.92,30.11,42.2,39.64,53.88,19.35,23.73,36.56,50.7,51.61,77.35,19.4,34.38-7.18,50.27-34,70.19-9.08,6.74-28.38,24.26-40.03,25.99-18.01,2.67-5.45-21.86-12.16-36.66-7.3-16.09-23.81-29.21-35.05-42.45-14.05-16.57-29.43-31.98-43.02-48.95-14.69-18.34-22.29-37.91-33.92-57.99-7.9-13.63-17.62-22.39-28.37-32.98-13.99-13.79-29.12-28.51-40.2-44.78-10.02-14.72-14.54-31.7-22.24-47.57Z"/>
</svg>