<?xml version="1.0" encoding="UTF-8"?>
<svg id="Calque_1" data-name="Calque 1" xmlns="http://www.w3.org/2000/svg" viewBox="0 0 1024 1024">
  <defs>
    <style>
      .cls-1 {
        stroke-width: 0px;
      }
    </style>
  </defs>
  <path class="cls-1" d="m536.3,588.59c-11.09-4.35-11.15,7.45-16.3,13.16-6.25,6.94-15.53,11.73-22.91,17.38-15.96,12.2-32.23,25.04-46.33,39.41-14.09,14.36-32.43,35.56-18.63,55.52,13.67,19.77,42.2,23.49,62.43,14.97,13.91-5.86,30.3-17.8,43.99-6.25,7.35,6.21,8.53,17.29,13.45,25.2,7.69,12.38,20.05,21.8,30.77,31.39,4.77,4.27,36.97,21.15,28.21,29.3-10.07,9.37-54.35-18.39-65.52-23.29-42.85-18.81-83.07-42.42-126.28-60.63-46.85-19.75-69.09-47.21-98.97-86.7-17.36-22.95-13.91-19.86,8.28-34.62,21.43-14.26,37.34-32.97,61.55-43.48,12.49-5.42,36.27-5.69,35.03-23.47-.67-9.51-11.44-20.52-16.23-28.31-7.74-12.59-14.78-25.53-22.09-38.37-24.89-43.76-16.67-92.63-26.81-140.88-2.42-11.53-5.8-22.58-11.66-32.89-4.76-8.38-17.17-18.55-17.75-28.72-1-17.46,28.35-34.32,39.77-44.44,15.41-13.66,27.85-37.07,46.53-22.08,20.22,16.22,30.99,41.35,50.11,58.22,17.18,15.16,35.31.75,55.39-3.28,22.97-4.6,46.19,5.48,69.29.17,11.54-2.65,35.79-29.39,45.2-26.3,16.37,5.38,14.89,56.81,21.99,69.01,10.4,17.87,23.52-16.11,37.06-19.8,27.92-7.62,13.78,27.34,8.7,39.79-10.24,25.15-27.66,42.79-47.67,60.61-20.39,18.16-41.73,28.46-31.62,57.86,16.63,48.38,55.89,81.13,74.95,127.36,21.2,51.42,13.51,118.58,11.93,173.09-.46,15.82-1.54,31.62-1.95,47.44-.26,9.85,4.52,28.24,1.32,37.32-3.94,11.17-5.74,3.49-14.08-1.74-9.83-6.16-19.61-12.29-29.33-18.64-8.74-5.71-16.05-10.8-26.16-13.18-7.24-1.71-14.48,1.65-20.54-4-14.28-13.32-11.42-63.82-13.02-81.97-1.27-14.39-3.14-28.39-2.3-42.83.79-13.59,5.43-27.8-2.4-40.08-13.41-21.04-43.82-31.26-67.4-31.26Zm-80.04-278.4c-.47-.02-.94-.05-1.41-.07-4.64,22.28-8.35,36.92-6.43,60.48,2.22,27.25,2.99,54.67,5.71,81.86,2.47,24.71,9.29,47.02,21.66,68.6,6.99,12.2,30.77,42.95,48.75,33.74,14.57-7.47,11.46-50.36,11.88-64.17.72-23.69-1.93-41.75-14.98-61.9-13.83-21.36-32.78-38.61-46.72-59.85-12.83-19.54-16.15-36.38-18.47-58.68Z"/>
</svg>