<?xml version="1.0" encoding="UTF-8"?>
<svg id="Calque_1" data-name="Calque 1" xmlns="http://www.w3.org/2000/svg" viewBox="0 0 1024 1024">
  <defs>
    <style>
      .cls-1 {
        stroke-width: 0px;
      }
    </style>
  </defs>
  <path class="cls-1" d="m324.41,870.22c-4.57-21.8-1.32-48.12-1.41-70.36-.1-24.29-.25-48.59-.34-72.88-.19-51.42.41-102.81,1.2-154.21,1.57-101.26-2.02-203.33,3.41-304.45.32-6.05,5.27-22.48,3.53-27.32-3.05-8.52-8.41-5.43-17.99-5.17-18.58.5-53.62,8.31-70.6,1.73-13.64-5.29-15.13-24.93-17.51-39.6-1.39-8.58-1.66-17.3-3.08-25.87-2.3-13.96-8.57-10.38,4.63-15.18,18.67-6.78,52.74-.35,72.36-.32,27.67.04,55.34.09,83.01.14,51.65.09,103.3.18,154.96.25,51.84.07,103.67.02,155.51-.05,25.67-.03,51.34-.13,77,.2,7.08.09,29.99-3.55,34.43.83,6.91,6.82-2.99,13.1-7.99,21.16-10.21,16.44-18.4,34.55-26.29,52.2-9.41,21.07-7.88,45.02-9.21,68.04-2.28,39.44-24.15,84.43-61.35,102.83-41.83,20.69-84.71-26.31-125.93-2.33-25.19,14.65-41.56,75.16-28.29,100.7,8.75,16.82,31.99,9.23,48.43,12.11,21.17,3.7,44.53,1.04,65.08,7.71,48.62,15.77,20.61,65.34-.14,93.73-24.4,33.37-72.99,67.69-113.75,76.73-23.28,5.16-46.6.43-68.76-7.29-23.31-8.12-42.97-25.88-66.04-33.33-21.61-6.97-16.52,13.03-16.51,29.98.02,28.54,1.36,57.11.99,85.66-.33,25.69-6.36,36.86-22.7,56.49-9.33,11.21-30,47.44-46.64,47.9Zm243.24-636.92c0,.34,0,.69,0,1.03-37.26,0-74.52,0-111.78,0-15.09,0-34.14-3.01-48.88.25-12.87,2.85-12.73,2.25-14.44,16.33-3.77,31.05.09,64.88.07,96.16-.02,33.46-.15,66.93-.25,100.39-.09,28.85-.67,57.75-.35,86.59.25,23-1.36,29.95,21.15,35.48,23.44,5.76,40.71,20.94,61.83,32.15,21.23,11.27,43.17,21.17,65.42,30.21,17.23,7,50.89,18.78,53.21-10.94,1.6-20.44-17.46-33.46-31.91-43.76-17.45-12.44-46.01-21.26-56.22-41.2-9.99-19.51-7.55-49.49-8.66-70.82-2.05-39.33-16.45-117.75,35.64-129.52,55.48-12.54,117.59,10.5,171.44-7.66,20.86-7.04,40.61-13.2,47.01-35.95,4.22-14.98,11.13-46.74-4.45-55.93-21.1-12.44-67.6-2.82-91.34-2.79-29.16.04-58.31-.01-87.47-.01Z"/>
</svg>