<?xml version="1.0" encoding="UTF-8"?>
<svg id="Calque_1" data-name="Calque 1" xmlns="http://www.w3.org/2000/svg" viewBox="0 0 1024 1024">
  <defs>
    <style>
      .cls-1 {
        stroke-width: 0px;
      }
    </style>
  </defs>
  <path class="cls-1" d="m527.29,646.56c8.53-18.93,27.35-29.78,35.38-49.44,7.48-18.32,5.37-32.71-4.71-49.54-7.97-13.32-14.95-25.19-29.66-31.37-11.97-5.03-41.14-4.15-49.09-13.35-18.66,9.86-6.92,82.93-6.5,100.91.88,38.03,10.15,84.09,3.33,121.4-5.41,29.58-35.6,54.21-57.36,73.02-21.68,18.74-61.89,40.64-90.9,41.25,3.52-17.06,32.1-33.8,42.36-48.83,16.12-23.61,15.27-52.82,16.06-80.41,1.85-63.99,3.44-128.1,3.76-192.13.16-31.33,0-62.67-.17-94-.13-25.49,6.08-65.24-7.24-88.3-11.86-20.55-37.23-33.25-57.14-44-26.87-14.5-23.51-37.76,1.58-53.77,20.05-12.79,40.97-17.59,60.07-33.46,5.4-4.49,16.44-17.69,23.68-19.55,12.56-3.23,21.68,11.03,30.8,19.59,13.95,13.1,36.48,44.96,58.68,41.7,11.07-1.62,19.5-11.45,31.08-12.64,14.76-1.51,27,9.84,38.98,17.37,17.08,10.72,38.5,17.61,54.04,29.73,8.96,6.99,17.06,16.78,23.53,26.07,8.91,12.79,8.31,21.24,25.51,16.29,17.76-5.11,38.68-41.29,43.35-10.58,4.08,26.78-14.38,52.31-32.62,69.81-17.51,16.8-42.58,34.7-39.66,61.81,3.69,34.25,26.04,59.14,12.01,94.87-19.99,50.92-80.15,87.13-127.97,108.44-.4-.31-.8-.61-1.21-.92Zm-48.81-168.72c11.12-13.41,26.75-9.12,40.62-18.46,16.66-11.21,12.54-24.84,5.76-41.37-13.5-32.92-31.59-63.91-46.03-96.46-12.67,22.05-6.54,56.88-6.71,81.37-.14,19.37-7.33,58.57,6.36,74.91Z"/>
  <path class="cls-1" d="m540.42,767.65c13.71-4.7,84.08,2.24,71.98,31.64-6.7,16.28-63.08-24.68-71.98-31.64Z"/>
</svg>