<?xml version="1.0" encoding="UTF-8"?>
<svg id="Calque_1" data-name="Calque 1" xmlns="http://www.w3.org/2000/svg" viewBox="0 0 1024 1024">
  <defs>
    <style>
      .cls-1 {
        stroke-width: 0px;
      }
    </style>
  </defs>
  <path class="cls-1" d="m634.48,705.23c3.88,10.35-18.65,21.45-25.44,26.35-13.58,9.81-25.1,21.42-37.59,32.63-12.15,10.91-24.92,22.38-38.9,30.9-16.68,10.17-26.99,15.39-22.06-5.99,3.27-14.17,6.5-13.2-5.83-25.46-11.54-11.48-23.7-21.9-32.75-35.57-10.68-16.13-9.32-26.45-12.62-44.45-2.51-13.66-9.65-18.93-5.54-33.48-36.11,6.77-27.78,61.1-33.76,87.78-2.57,11.45-7.84,22.05-10.1,33.54-1.53,7.8-.76,15.62-4.23,22.85-7.59,15.82-25.94,24.21-40.08,32.87-14.22,8.72-27.71,18.06-42.12,25.99-6.03,3.32-28.76,18.85-35.88,14.5-9.03-5.52,14.96-24.99,20.45-31.15,14.63-16.39,24.74-29.63,30.73-51.06,12.82-45.84,8.98-90.89,10.25-137.91,1.25-46.44-.7-92.75-.25-139.24.43-44.77,1.96-89.63,5.61-134.26,1.57-19.19,4.05-38.94,10.18-57.31,4.45-13.34,20.33-26.89,11.51-41.12-12.07-19.47-86.56-24.02-67.14-59.54,8.11-14.83,26.91-22.59,40.56-30.74,12.75-7.61,36.1-34.33,50.62-29.17,11,3.91,28.06,27.59,34.73,37.55,5.41,8.09,12.5,34.82,23.68,31.96,7.98-2.05,22.73-29.32,30.22-35.83,6.83-5.94,32.81-31.99,41.64-32.65,11.18-.83,26.8,25.71,36.19,32.28,6.98,4.88,15.19,9.14,23.85,9.81,11.97.94,18.7-6.88,29.37-8.2,20.56-2.53,24.16,18.27,29.34,34.81,4.47,14.28-.15,40.11,16.92,23.97,10.84-10.25,14.87-25.02,32.94-19.75,24.41,7.11,9.29,32.3,5.83,49.05-4.25,20.61-11.2,34-25.75,49.09-12.68,13.16-36.64,28.86-42.76,46.26-10.7,30.4,22.6,82.92,38.32,108.09,20.25,32.42,73.27,63.28,62.27,107.33-4.56,18.26-22.25,37.42-34.43,51.1-12.3,13.81-23.24,16.81-36.48,2.43-7.57-8.21-11.08-20.01-18.57-28.27-5.3-5.85-14.23-11.59-20.42-17.03-17.57-15.43-38.9-27.46-57.9-41.25-5.6,17.34-9.17,25.22-9.28,44.38-.1,17.74-.28,32.64,6.05,49.4,13.28,35.19,27.99,60.18,68.59,54.48Zm-209.96-410.78c24.88,25.54,16.88,66.95,15.8,99.68-1.26,38.12,3.85,74.59,8.23,112.34,2.05,17.65,4.27,33.05.68,50.6-2.95,14.46-17.71,36.34-16.2,50.5,3.63,33.85,46.94-21.59,55.19-29.18,30.28-27.83,57.93-41.43,59.45-87.77,1.23-37.34-17.12-70.4-14.72-108.58,1.02-16.22,3.49-21.04-8.45-32.63-11.04-10.72-23.73-19.64-35.59-29.38-4.92-4.04-67.41-54.63-64.39-25.58Z"/>
</svg>