<?xml version="1.0" encoding="UTF-8"?>
<svg id="Calque_1" data-name="Calque 1" xmlns="http://www.w3.org/2000/svg" viewBox="0 0 1024 1024">
  <defs>
    <style>
      .cls-1 {
        stroke-width: 0px;
      }
    </style>
  </defs>
  <path class="cls-1" d="m814.94,723.98c-5.36,6.75-7.39,11.66-16.76,12.06-1.46-18.87-.8-58.07-24.92-64.17-21.24-5.37-46.17,26.62-52.29,43.6-8.42,23.34.18,41.24-31.42,23.39-21.42-12.09-43.44-30.2-49.5-54.47-10.79-43.21,26.71-92.54,66.1-109.55,20.95-9.05,50.02,2.56,68.41,13.47,21.64,12.83,31.54,29.48,40.38,52.75,8,29.42,9,60.42,0,82.92Z"/>
  <path class="cls-1" d="m291.98,252.86c9.22,3.37,29.69,20.36,38.35,20.56,12.45.29,25.89-21.64,33.87-30.03,9.71-10.23,18.99-18.48,30.44-26.64,6.17-4.4,14.59-12.89,21.23-16.08,11.96-5.74,10.08-4.06,23.82,1.61,14.75,6.08,33,14.62,48.84,9.82,15.15-4.58,25.02-20.74,35.34-31.45,15.48-16.07,22.47-.41,35.89,12.86,14.1,13.96,27.9,28.12,43.57,40.33,11.42,8.9,25.19,13.57,19.25,27.46-1.17,2.74-15.47,10.9-17.8,13.31-5.96,6.16-11.55,14.6-15.34,22.27-16.68,33.75-6.36,86.81-5.95,123.7.93,83.4-.49,166.85,1.67,250.23.93,35.76,1.53,71.29,11.34,105.97,4.71,16.66,13.17,30.12,24.18,43.38,7.87,9.48,27.22,20.54,11.49,28.3-20.13,9.93-70.92-26.43-85.35-37.07-32.26-23.77-60.92,9.49-96.09,10.26-34.26.75-68.22-24.04-92.96-45.67-28.93-25.28-61.04-44.86-92.38-66.9-23.74-16.7-49.27-42.74-59.59-70.32-10.16-27.13,6.55-61.63,21.02-84.41,18.46-29.08,37.83-58.37,53.25-89.3,8.98-18,11.24-26.32-5.31-39.43-13.57-10.76-22.9-17.68-32.84-32.05-12.99-18.77-39.53-71.16-15.55-90.19,13.45-10.67,36.06,2.48,48.32-10.25,10.5-10.9,2.92-29.49,17.28-40.27Zm7.29,443.41c.35.03.71.07,1.06.1-3.35,25.88,35.09,38.14,54.67,39.27,21.81,1.27,43.01-4.72,62.55-13.74,20.36-9.39,33.5-27.8,41.57-48.26,5.16-13.09,7.1-26.64,10.16-40.24,2.78-12.34,9.43-24.5,10.91-37,3.84-32.32-23.4-37.84-49.01-45.14-30.89-8.82-40.56,2.4-60.98,25.99-32.67,37.74-59.45,69.52-70.94,119.02Zm191.16-343.02c-12.56.73-33.49,45.55-40.55,55.6-13.17,18.73-27.86,36.7-35.05,58.85-13.05,40.22,40.46,66.49,70.7,82.99,9.52-28.33,4.63-64.39,5.07-93.94.49-33.02,6.32-71.14-.16-103.5Z"/>
</svg>