<?xml version="1.0" encoding="UTF-8"?>
<svg id="Calque_1" data-name="Calque 1" xmlns="http://www.w3.org/2000/svg" viewBox="0 0 1024 1024">
  <defs>
    <style>
      .cls-1 {
        stroke-width: 0px;
      }
    </style>
  </defs>
  <path class="cls-1" d="m448.78,433.87c12.38-13.67,39.2-19.32,44.21-38.7,4.69-18.14-14.89-42.04-19.17-59.47-5.04-20.52-3.05-40.97-3.8-61.79-.97-26.98-5.88-41.96,11.12-63.9,11.7-15.1,27.12-41.97,47.66-32.54,16.91,7.76,26.19,28.55,41.94,38.53,18.25,11.57,38.8-1.78,52.23,11.35,15.65,15.3,16.3,45.89,24.09,64.95,13.63-7.28,39.45-49.65,51.63-48.73,15.32,1.15,6.21,64.17,3.67,72.69-8.13,27.27-29.24,41.76-50.38,58.76-24.54,19.75-30.2,30.18-7.98,53.2,16.74,17.33,33.8,41.91,56.2,51.86,8.5,3.78,23.43,2,27.51,12.24,1.65,4.13-.88,27.65-2.2,32.26-5.93,20.8-36.12,39.45-52.1,52.65-15.18,12.54-45.29,39.16-66.93,35.62,4.11-17.3,27.6-19.18,18.33-41.78-5.73-13.97-27.33-24.97-41.69-27.22-3.62,27.03-1.07,53.44-1.53,80.55-.49,28.67-3.24,57.45-4.09,86.16-.81,27.55-1.41,55.11-1.7,82.67-.16,15.35-.61,30.6,1.73,45.8,1.65,10.65,6.2,22.3,4.31,33.06-21.93-11.42-39.18-35.15-59-50.08-8.14-6.13-19.92-10.83-27.2-17.46-11.41-10.4-10.04-26.66-10.44-42.03-1.49-58.2,2.58-117.5,5.86-175.61,1.24-21.99,13.4-61.35,2.67-81.56-6.34-11.94-21.95-16.37-33.6-21.7-18.33-8.38-17.43-2.23-17.46,17.99-.06,56.2,26.52,116.32-10.13,167.01-4.67,6.46-13.69,22.54-20.11,27.37-11.6,8.73-7.13,3.44-12.76-6.5-12.39-21.89-35.91-32.71-45.52-55.97-4.38-10.61-13.18-25.95-14.58-37.34-1.41-11.5,4.78-25.82,5.67-37.49,2.6-34.22,4.04-68.7,5.32-102.99,1.13-30.32,1.19-60.65,1.2-90.99,0-28.77,6.13-66-3.67-93.47-4.42-12.38-12.68-20.21-23.18-27.55-7.13-4.99-23.48-9.95-27.62-17.07-9.38-16.11,27.35-28.86,39.97-38.63,11.69-9.05,21.76-20.02,33.66-28.83,16.29-12.07,18.82-8.57,32.52,5.77,13.99,14.63,50.21,45.09,51.15,66.82.54,12.57-9.74,29.1-11.1,42.75-1.67,16.86-.99,34.03-1.03,50.95-.08,32.74-7.83,77.46,4.51,108.11.61.09,1.22.17,1.83.26Z"/>
</svg>