<?xml version="1.0" encoding="UTF-8"?>
<svg id="Calque_1" data-name="Calque 1" xmlns="http://www.w3.org/2000/svg" viewBox="0 0 1024 1024">
  <defs>
    <style>
      .cls-1 {
        stroke-width: 0px;
      }
    </style>
  </defs>
  <path class="cls-1" d="m422.89,719.9c-2.16,17.35-2.62,36.43-6.71,53.43-4.67,19.4-17.75,33.71-31.05,48.34-20.71,22.79-59.31,40.67-89.16,47.08-.22-10.31,14.23-18.6,20.06-25.26,7.55-8.63,13.35-17.39,16.58-28.47,7.87-26.97,5.17-58.82,6.14-86.7,2.16-61.79,4.95-123.62,5.96-185.44,1.01-61.48.14-122.97-.17-184.45-.15-28.84,2.07-55.54-13.29-81.1-12.49-20.77-35.67-33.37-46.42-54.1,18.86-10.31,36.86-22.44,53.53-36.05,11.99-9.79,29.64-36.66,46.32-31.19,17.79,5.84,32.74,35.83,47.68,47.38,20.93,16.18,28.11-7.82,45.08-19.02,19.54-12.9,34.43,7.29,49.11,20.86,18.85,17.43,36.55,36.41,54.12,55.13,13.23,14.09,21.45,29.53,42.93,25.95,8.54-1.42,25.24-17.9,32.75-11.83,11.48,9.26-18.83,46.45-23.97,53.36-12.24,16.48-36.02,35.08-28.3,57.72,13.13,38.54,65.06,64.73,91.42,92.87,27.03,28.85,46.5,77.7,43.28,117.3-4.2,51.59-39.72,72.92-79.72,98.3-40.41,25.64-83.69,51.13-125.99,73.66-25.38,13.52-40.91,19.39-66.02,2.3-20.05-13.65-26.3-35.61-44.18-50.05Zm222.58-64.72c-6.33-43.85-36.28-78.18-76.86-97.08-23.72-11.05-36.03,2.06-56.07,14.74-13.81,8.74-33.77,17.6-37.55,35.54-3.5,16.61,14.52,38.99,23.17,52.82,10.72,17.15,30.95,43.72,51.02,50.27,33.2,10.84,100.13-15.63,96.3-56.29Zm-206.35-365.28c-27.51.08-16.47,174.37-15.81,197.1.52,17.9,1.26,35.8,2.1,53.69.38,8.08-2.31,36.72,5.36,42.86,14.1,11.29,50.9-26.76,60.21-35.1,23.08-20.67,51.32-37.42,36.47-71.72-11.12-25.71-37.79-39.34-58.04-56.53-9.31-7.9-18.73-16.3-20.31-29.11-1.82-14.67,7.32-18.88,13.72-30.43,13.78-24.87-9.61-50.95-23.69-70.77Z"/>
</svg>