<?xml version="1.0" encoding="UTF-8"?>
<svg id="Calque_1" data-name="Calque 1" xmlns="http://www.w3.org/2000/svg" viewBox="0 0 1024 1024">
  <defs>
    <style>
      .cls-1 {
        stroke-width: 0px;
      }
    </style>
  </defs>
  <path class="cls-1" d="m343.27,612.04c0-57.07-4.43-116.1.48-172.97,1.87-21.7,10.1-41.16,22.77-58.74,10.54-14.63,32.38-25.73,40.91-39.98,23.45-39.16-84.89-62.05-59-100.22,12.56-18.51,35.32-37.08,51.98-52.21,20.83-18.91,29.15,9.17,49.98,17.36,21.48,8.44,47.12-4.03,70.01-.84,25.27,3.51,46.36,7.77,65.96,24.89,12.72,11.12,24.74,39.3,39.04,45.14,22.59,9.22,38.35-32.61,54.37-25.93,17.18,7.16,10.67,54.88,4.52,66.85-10.91,21.26-37.92,30.8-48.99,50.96-10.28,18.72,13.87,44.65,23.94,60.14,15.26,23.49,28.97,48.96,45.76,71.35,12.79,17.05,31.7,26.45,15.33,46.34-15.38,18.69-40.59,43.11-62.19,54.75-21.06,11.35-28.76-14.4-39.98-29.59-13.48-18.26-27.82-36.57-43.61-52.88-30.69-31.69-52.81-68.43-83.97-99.97-9.15-9.27-38.26-44.23-52.95-40.03-21.29,6.08-5.65,54.09-3.81,66.3,3.72,24.59,4.39,49.63,6.97,74.36,1.07,10.25.57,23.65,10.36,29.59,7.72,4.68,29.52,1.6,39.15,3.52,34.17,6.83,84.08,25.55,100.14,59.78,9.79,20.87-2.76,34.69-19.8,47.78-19.86,15.25-40.59,29.16-60.2,44.9-5.97,4.79-26.35,30.04-29,13.6-2.75-17.01,33.25-37.41,24.56-56.19-3.87-8.37-61.24-28.79-67.68-21.74-10.12,11.07.48,65.56,1.38,80.07,1.78,28.63-5.35,37.28-26.43,55.57-16.84,14.62-31.36,33.94-50.35,45.67-8.32,5.14-58.95,32.11-65.29,19.53-4.02-7.98,35.31-33.28,39.88-45.07,9.36-24.14,3.32-60.32,3.65-85.92.41-32.06.79-64.11,1.19-96.17.31,0,.62,0,.93,0Z"/>
</svg>