<?xml version="1.0" encoding="UTF-8"?>
<svg id="Calque_1" data-name="Calque 1" xmlns="http://www.w3.org/2000/svg" viewBox="0 0 1024 1024">
  <defs>
    <style>
      .cls-1 {
        stroke-width: 0px;
      }
    </style>
  </defs>
  <path class="cls-1" d="m581.36,854.93c-38.73-27.18-91.59-64.53-97.85-114.8-6.41-51.5,5.39-102.54,5.39-153.83-25.29,5.8-26.4,45.73-48.92,52.32-22.84,6.69-53.76-30.5-69.02-43.2-15.72-13.07-37.43-18.78-18.48-36.61,10.02-9.42,20.78-18.82,32.19-26.55,11.54-7.82,34-12.84,42.65-23.11,16.82-19.98-10.09-46.04-22.43-62.16-19.77-25.83-29.52-50.74-38.46-81.84-9.46-32.89-21.06-60.6-38.2-90.02-16.79-28.82,7.92-51.49,28.63-71.26,10.34-9.87,21.46-22.58,33.4-30.25,11.78-7.56,12.13-4.99,22.16,2.41,23.74,17.53,35.61,50.11,68.47,39.91,33.38-10.36,55.78-5.7,89.77-4.13,34.4,1.58,44.24,18.66,61.97,47.25,19.69,31.75,33.8-15.06,54.41-20,27.25-6.53,8.54,52.79.78,64.36-15.13,22.56-43.24,32.61-58.87,54.2-17.58,24.3,5.18,53.35,13.87,77.38,13.26,36.62,9.13,68.86-10.05,102.43-18.41,32.22-39.13,52.22-45.23,90.47-5.97,37.42-6.08,75.34-6.19,113.13-.1,35.63,6.99,79.28,0,113.89Zm-61.06-396.82c32.55-23.42-5.57-70.6-21.19-91.92-9.24-12.61-49.91-72.12-67.74-66.36-14.49,4.68-3.7,22.17-.43,30.98,6.64,17.87,10.41,36.49,16.5,54.55,12.46,36.94,41.69,52.82,72.86,72.75Z"/>
</svg>