<?xml version="1.0" encoding="UTF-8"?>
<svg id="Calque_1" data-name="Calque 1" xmlns="http://www.w3.org/2000/svg" viewBox="0 0 1024 1024">
  <defs>
    <style>
      .cls-1 {
        stroke-width: 0px;
      }
    </style>
  </defs>
  <path class="cls-1" d="m596.5,629.84c-.71-18.6,3.77-50.5-4.53-67.39-8.03-16.36-30.65-14.95-46.01-23.81-34.75-20.05-66.28-57.47-62.64-99.48,1.93-22.24,30.38-95.22,65.12-69.48,13.78,10.21,14.23,33.76,27.33,45.44,22.47,20.04,25.72-7.3,42.75-16.8,16.57-9.25,35.35-1.19,50.38,7.02,14.89,8.14,43.92,19.44,48.56,37.93,4.78,19.06-11.61,36.69-21.19,51.13-12.8,19.29-11.43,39.69-11.79,62.82-.78,50.38.45,101.32,3.91,151.58,1.72,25.06,3.15,50.58,7.69,75.31,1.96,10.71,3.97,17.85,10.53,26.45,3.87,5.07,17.64,12.33,15.34,19.67-1.72,5.52-43.77-9.77-49.84-13.03-18.98-10.19-39.19-30.86-51.46-48.16-14.67-20.68-15.38-38.73-18.48-63.13-3.24-25.55-7.17-50.19-5.67-76.08Z"/>
  <path class="cls-1" d="m458.75,768.12c-32.75,2.09-66.7-22.1-91.57-40.94-25.85-19.58-49.24-45.28-59.65-76.42-9.69-28.99-7.3-70.06,8.82-96.37,13.87-22.64,40.55-49.25,68.85-46.25,54.56,5.79,107.5,80.02,132.72,123.42,17.2,29.61,29.52,62.29,11.26,94.6-15.67,27.73-40.38,38.46-70.35,42.98-.03-.34-.05-.68-.08-1.03Zm-64.57-66.42c28.55-10.31,46.41-28.72,62.5-53.82,6.92-10.8,16.19-21.46,13.16-34.16-2.37-9.92-12.61-18.79-20.67-23.89-61.18-38.77-90.85,108.67-54.99,111.87Z"/>
  <path class="cls-1" d="m458.99,282.54c3.15,31.81-20.08,85.63-55.43,51.78-28.71-27.49-48.62-66.69-67.03-101.08-8.87-16.56-17.62-26.61,4.2-34.26,16.48-5.77,32.95-9.7,48.1-2.51,37.86,17.95,64.06,44.03,70.17,86.07Z"/>
</svg>