<?xml version="1.0" encoding="UTF-8"?>
<svg id="Calque_1" data-name="Calque 1" xmlns="http://www.w3.org/2000/svg" viewBox="0 0 1024 1024">
  <defs>
    <style>
      .cls-1 {
        stroke-width: 0px;
      }
    </style>
  </defs>
  <path class="cls-1" d="m828.35,552.87c-1.42,10.23-13.07,15.37-18.66,23.13-6.56,9.09-8.91,18.98-10.42,29.89-4.13,29.81-4.56,56.27-17.54,84.17-10.33,22.19-24.07,45.25-39.57,64.2-14.93,18.25-33.83,24.15-54.68,33.19-16.31,7.08-35.59,19.36-48.89,30.88-19.62,17-38.27,27.94-62.66,38.72-41.2,18.22-95.85,37.82-137.14,9.69-51.4-35.02-40.98-89.56-42.76-143.98-.77-23.58,4.38-45.08,17.89-64.76,12.73-18.53,35.03-28.79,52.46-42.55,16.88-13.32,40.08-27.47,51.31-46.32,2.98-5,11.01-13.73,1.14-17.94-7.26-3.1-12.11,8.2-17.98,12.01-15.65,10.16-32.4,14.41-47.63,26.18-19.6,15.13-38.14,21.92-62.41,26.37-57.41,10.54-70.97-92.49-76.48-130.36-4.01-27.53-4.84-56.48-10.71-83.6-3.29-15.2-8.5-29.05-16.85-42.14-5.37-8.41-20.09-21.51-21.26-31.27,13.18,5.05,30.03,25.65,39.6,36.23,12.18,13.46,23.9,29.06,29.96,46.31,13.73,39.1,13.52,82.33,35.79,118.68,21.95,35.83,55.92,57.53,90.1,23.3,35.28-35.32-6.42-67.61-16.23-104.29-7.54-28.16-15.23-84.98,2.21-110.9,10.66-15.84,31.35-21.77,49.2-20.82,25.44,1.36,50.55,2.77,76.15,2.89,12.91.06,25.83.14,38.74.37,7.46.14,27.05,4.16,33.36.24,12.24-7.61,6.83-34.91,6.47-48.23-.49-17.83,1.36-34.48-17.33-38.75-22.71-5.19-52.03.03-75.42.05-111.4.08-226.38,6.49-337.35-3.56-1.49-31.44-9.11-55.04-25.35-81.48,19.63-10.15,59.17-2.57,80.63-2.57,29.36,0,58.72-.02,88.08-.03,62.39-.02,124.79-.03,187.18-.05,59.8-.01,119.6.07,179.41-.03,27.31-.05,36.71-.6,54.3,20.92,16.7,20.44,30,42,43.59,64.59-32.69,2.46-66.55-.07-99.33-.48-6.96-.09-39.87-7.11-44.27-.09-2.76,4.41,19.6,29.77,21.78,34.85,6.3,14.63,2.99,31.17,6.66,46.35,4.19,17.34,11.48,13.89,28.67,13.85,11.5-.03,28.97-2.4,38.71,5.54,9.46,7.71,16.1,29.74,18.59,41.52-21.14,1.77-45.15-4.42-66.88-4.49-23.15-.08-46.33.55-69.48.92-44.18.72-88.32,1.65-132.5.69-7.81-.17-17.12,1.22-24.67-1.15-9.3-2.92-11.65-10.28-19.25-13.97-19.43-9.42-18.47,9.71-16.86,22.53,4.44,35.46,17.47,72.83,39,101.74-10.4,10.53,17.35,31.96,22.96,39.7-.89.79-1.8,1.6-2.93,2.61,16.94,11.39,28.79,31.85,48.62,40.99,25.26,11.65,60.59,15.16,88.01,13.25,31.63-2.21,41.78-22.12,42.54-53.45.62-25.39-6.26-62.77-34.22-71.79-32.18-10.39-40.04,22.62-57.87,40.46-20.38,20.39-47.63,4.86-63.13-15.53-8.38-11.03-18.97-26.55-24.1-39.44-5.92-14.88-4.65-14.7,8.81-17.83,12.52-2.91,32.05,2.34,45.33,2.19,17.65-.21,35.3-.98,52.96-1.03,35.6-.1,53.9-.27,77.85,27.17,22.57,25.87,33.01,53.02,24.76,86.68-13.82,56.41-57.12,113.63-117.51,123.82-36.44,6.15-50.22-21.8-81.08-30.11-32.39-8.72-59.56,4.97-75.11,32.6-14.98,26.61-15.79,52.86-4.06,81.27,12.97,31.42,45.24,44.26,76.95,49.32,33.58,5.35,64.82-.77,95.91-12.94,35.88-14.04,53.04-31.69,71.56-65.02,16.87-30.37,41.07-55.76,62.46-82.8,19.02-24.04,25.35-69.65,60.88-76.34Z"/>
</svg>