<?xml version="1.0" encoding="UTF-8"?>
<svg id="Calque_1" data-name="Calque 1" xmlns="http://www.w3.org/2000/svg" viewBox="0 0 1024 1024">
  <defs>
    <style>
      .cls-1 {
        stroke-width: 0px;
      }
    </style>
  </defs>
  <path class="cls-1" d="m257.71,188.58c-12.15-6.04,5.32-35.27,12.05-43.72,12.09-15.17,30.89-10.92,49.6-11.37,48.68-1.17,97.3.74,145.97,2.04,49.68,1.33,99.22,5.29,148.89,6.56,23.68.61,47.37,1.13,71.05,1.8,20.92.6,49.63-5.36,63.96,12.53,5.53,6.89,26.04,46.44,20.23,55.93-4.47,7.3-53.76-.45-62.5-.9-7.73-.4-57.26-8.23-61.69-1.63-3.1,4.61,2.37,19.1,2.96,24.4,1.57,14.05,1.09,28.25.85,42.36-.42,24.4-2.82,48.05-4.86,72.25-2.42,28.59,8.34,32.73-22.26,37.83-38.77,6.46-74.5,23.88-87.83,64-5.84,17.59-8.74,47.09,10.92,55.39,20.63,8.71,56.66,3.32,78.89,4.68,49.53,3.03,100.24,40.5,69.7,93.82,18.32,11.87,22.5-17.4,33.85-16.13,9.01,1-1.16,55.65-2,62.86-5.03,43.15-19.48,93.94-53.24,124.39-16.39,14.78-38.11,21.73-57.36,31.73-21.8,11.32-42.39,24.86-63.44,37.49-32.45,19.48-73.27,50.89-113.79,45.29-50.95-7.04-59.3-72.13-62.95-111.79-2.18-23.67-5.35-47.21-7.73-70.86-2.21-22.04,2.76-34.62-16.33-48.01-81.32-57.06-100.19-160.07-89.8-254.37,5.31-48.16,31.57-90.42,67.8-121.66,33.54-28.92,71.71-32.94,114.64-31.95,17.01.39,43.15-3.22,59.28,1.1,18.89,5.06,13.41,30.36,4.98,44.12-8.93,14.57-37.32,20.58-53.21,23.28-24.57,4.18-49.46-1.04-74.07,1.79-45.67,5.25-64.07,74.34-69.13,112.61-6.46,48.82,6.87,84.95,41.75,119.82,13.91,13.9,35.72,20.58,48.5,34.24,4.58,4.9,4.46,14.44,10,17.65,7.82,4.52,22.56-6.19,28.13-10.66,14.62-11.73,31.4-29.89,42.92-44.68,14.9-19.11,12.13-46.63,13.23-69.56,2.88-59.79,17.38-104.46,66.17-142.07,9.6-7.4,18.27-10.85,22.65-22.73,4.93-13.38,2.9-31.68,2.76-45.7-.21-21.47,9.47-60.65-14.27-68.53-22.76-7.56-55.25-5.25-79.24-6.8-28.58-1.85-57.44-1.73-86.08-2.24-30.09-.53-60.11-.34-90.19.54-9.06.27-60.48,9.82-59.78-5.18Zm391.89,485.51c0-30.69-43.3-40.81-65.15-54.99-15.9-10.31-31.53-21.87-49.79-27.79-14.23-4.61-29.29-2.63-44.29-2.72-17.1,12.98-33.62,20.06-45.15,39.49-11.04,18.61-11.01,40.32-10.3,61.4,1.3,38.46,13.22,97.3,49.6,118.51,36.24,21.13,87.29,2.43,116.27-22.37,30.26-25.88,47.55-72.17,48.81-111.55Z"/>
</svg>