<?xml version="1.0" encoding="UTF-8"?>
<svg id="Calque_1" data-name="Calque 1" xmlns="http://www.w3.org/2000/svg" viewBox="0 0 1024 1024">
  <defs>
    <style>
      .cls-1 {
        stroke-width: 0px;
      }
    </style>
  </defs>
  <path class="cls-1" d="m286.09,857.66c28.32-31.22,55.19-51.91,66.26-95.53,11.64-45.85,9.84-97.15,10.97-144.14,2.37-98.12,4.62-196.34,2.69-294.48-.37-18.82,1.35-39.48-11.41-55.02-12.47-15.19-37.2-18.13-18.42-38.35,12.75-13.72,53.27-70.18,73.3-64.82,17.97,4.81,39.29,36.52,50.72,49.54,13.99,15.92,26.35,28.87,47.72,34.14,18.64,4.6,41.18,6.19,60.22,5.39,23.9-.99,37.36-8.62,57.22-20.65,8.52,10.68,12.49,25.06,18.39,37.37,3.65,7.61,8.17,14.33,9.75,22.77.94,5.02-1.98,14.85,1.05,18.39,10.1,11.8,50.78-37.07,57.75-46.26,17.52,3.54,6.66,59.14,1.57,70.68-10.55,23.92-38.52,40.24-58.03,56.44-5.79,4.81-19.59,13.66-18.59,22.14,1.04,8.82,21.2,28.27,26.76,34.9,19.67,23.45,39.96,43.41,54.45,70.81,5.2,9.84,17.18,23.34,19.02,33.85,2.23,12.71-4.4,15.09-14.93,22.1-25.48,16.95-52,32.77-77.21,49.82-25.94,17.55-51.38,35.47-77.86,52.32-10.2,6.49-21.37,11.54-31.43,17.66-7.56,4.6-13.06,13.5-21.58,16.09-3.33-18.45,14.84-33.97,9.12-51.36-3.94-11.97-26.94-28.84-36.54-37.32-15.94-14.08-23.66-16.77-25.78,5.97-2,21.46-.68,43.33-1.41,64.86-1.31,38.73-33.89,76.85-61.56,102.57-27.49,25.55-71.9,61.52-111.77,61.52-.14-.46-.28-.91-.43-1.37Zm330.3-259.48c17.79-22.07-26.03-46.74-37.62-57.55-8.45-7.88-4.86,2.35-9.24-14.83-1.66-6.51-2.66-13.23-4.18-19.78-4.21-18.19-9.45-35.43-19.68-51.27-17.7-27.43-44.61-48.42-62.32-76.45-4.35-6.89-16.26-38.01-23.11-34.85-5.77,2.67-1.44,36.89-1.36,43.51.44,37.92,1.9,75.86,3.51,113.74,1.32,31.12-5.76,64.85,34.65,60.43,15.84-1.73,22.24-13.84,35.73-17.86,7.64-2.27,6.57.24,13.91.66,3.88.22,18.38-.91,21.39.4,8.24,3.58,12.8,18.14,19.92,25.62,9.39,9.84,19.47,17.6,28.38,28.23Z"/>
</svg>