<?xml version="1.0" encoding="UTF-8"?>
<svg id="Calque_1" data-name="Calque 1" xmlns="http://www.w3.org/2000/svg" viewBox="0 0 1024 1024">
  <defs>
    <style>
      .cls-1 {
        stroke-width: 0px;
      }
    </style>
  </defs>
  <path class="cls-1" d="m647.9,893.9c-17.24-4.09-31.17-31.07-40.43-44.09-14.82-20.83-25.55-39.32-32.27-64.02-10.55,3.65-38.29-10.55-48.42-14.88-15.42-6.6-31.49-15.45-44.34-26.24-29.54-24.82-48.52-61.27-74.23-89.62-25.7-28.33-61.33-35.48-92.17-56.39-33.27-22.56-57.32-58.94-69.12-97.06-24.43-78.94,15.62-157.3,87.27-193.88,38.94-19.88,80.61-19.23,123.19-17.16,35.46,1.72,86.04.1,118.14,15.49,4.26-25.52,3.55-53.39,2.31-79.26-.42-8.66,1.49-11.9-4.94-17.22-6.6-5.46-34.16-1.44-42.53-1.46-54.1-.17-108.21-.23-162.31-.44-55.61-.21-111.53-3.87-167.11-1.77-9.8.37-20.63,4.83-23.22-4.71-1-3.7,6.61-21.68,8.18-26.25,6.61-19.31,10.73-40.56,32.49-42.87,50.12-5.34,104.19,1.85,154.63,2.18,55,.36,110,.19,164.97,2.25,34.02,1.28,311.33,2.18,308.38,36.59-16.73,12.68-16.92,38.75-35.35,48.76-6.82,3.7-10.75,1.87-16.21,8.68-5.9,7.35-7.64,21.26-8.96,30.46-6.91,48.34-1.05,100.79-1.58,149.6-.12,11.32,4.41,46.05-7.63,53.83-8.95,5.79-8.59-1.79-16.76-3.34-12.58-2.4-18.14-.12-30.21,5.72-11.82,5.72-26.22,22.02-32.97,3.56-3.28-8.99,4.83-22.13,6.62-31.28,2.8-14.33,2.47-29.59,2.96-44.12,1.55-45.97-4.24-102.24,10.84-146.24,2.1-6.13,15.32-21.9,14.38-28.21-1.39-9.34-15.94-6.47-24.04-6.9-12.2-.64-52.4-8.42-59.57,3.22-2.51,4.07.72,21.19.89,26.13.49,14.55.65,29.07.65,43.62,0,27.57-.16,55.15-.26,82.73-.22,56.95-.31,113.9-.41,170.85-.1,60.59-.17,121.18-.13,181.76.02,31.18.12,62.36.72,93.53.48,25.53,4.65,53.49-1.45,78.45Zm-73.75-125.62c.62-.05,1.24-.1,1.85-.15,14.15-106.95,4.34-220.27,3.67-328.13-.12-19.33,6.3-52.2-12.75-63.69-16.18-9.76-54.57-8.64-73.35-11.01-43.96-5.54-107.62-10.95-148.76,7.13-40.16,17.65-58.02,68.01-56.23,109.3,2.18,50.26,52.57,75.71,86.35,104.54,37.47,31.98,66.18,69.04,96.09,107.77,14.68,19.01,33.6,34.45,53.13,48.36,15.14,10.79,40.6,10.48,49.99,25.88Z"/>
</svg>