<?xml version="1.0" encoding="UTF-8"?>
<svg id="Calque_1" data-name="Calque 1" xmlns="http://www.w3.org/2000/svg" viewBox="0 0 1024 1024">
  <defs>
    <style>
      .cls-1 {
        stroke-width: 0px;
      }
    </style>
  </defs>
  <path class="cls-1" d="m375.52,702.03c6.21-9.86,17.98-18.58,18.88-31.32,1.12-15.8-13.89-26.17-24.14-36.18-24.03-23.45-45.92-43.68-73.48-62.99,5.67-3.05,12.86-.34,18.96-2.21,8.91-2.72,13.69-8.29,19.86-14.98,14.64-15.89,27.32-33.84,40.3-51.1,20.82-27.69,42.32-56.21,61.43-85.07,7.37-11.13,20.14-29.97,17.13-43.54-3.11-14.01-24.92-27.39-34.44-37.84-21.48-23.58-54.22-54.07-32.95-89.75,10.46-17.55,20.2-11.37,32.07-.7,14.98,13.46,16.64,21,30.47,3.61,9.36-11.77,22.29-26.49,34.83-35.05,12.71-8.68,31.98-7.45,46.92-7.42,16.38.04,36.26,4.65,52-1.51,16.31-6.38,22.48-26.98,37.03-33.97,16.27-7.82,34.95,21.01,47.33,32.43,11.23,10.36,34.87,24.42,41.15,38.76,6.36,14.51-12.38,28.59-19.51,41.35-9.95,17.8-18.1,34.44-31.39,50.13-21.6,25.51-73.52,65.92-73.52,101.75.39.19.78.38,1.17.58,17.29-15.81,26.62-20.77,45.51-5.64,17.13,13.72,33.47,28.73,47.04,46.01,14.72,18.75,27.17,39.35,38.6,60.23,10.98,20.06,16.81,29.26-.46,45.97-12.68,12.27-27.03,23.47-40.66,34.72-5.76,4.76-17.05,18.43-25.71,16.78-4.81-.92-7.25-8.26-10.21-11.14-26.63-25.97-46.8-58.55-82.34-73.81-5.45,8.54,4.71,25.47,7.01,34.64,4.54,18.09,7.46,35.49,6.91,54.2-1.09,37.12-1.01,74.32-3.8,111.36-2.57,34.08-12.89,44.82-38.94,65.49-8.42,6.68-62.26,53.54-69.69,31.8-2.75-8.05,9.12-28.88,10.28-38.09,2.21-17.51.75-35.68.77-53.31.05-36.88.09-73.79,2.01-110.63.3-5.73,6.39-39.91-1.03-41.93-4.85-1.32-22.46,29.43-25.14,32.85-12.33,15.73-48.2,65.52-70.24,65.52Z"/>
</svg>