<?xml version="1.0" encoding="UTF-8"?>
<svg id="Calque_1" data-name="Calque 1" xmlns="http://www.w3.org/2000/svg" viewBox="0 0 1024 1024">
  <defs>
    <style>
      .cls-1 {
        stroke-width: 0px;
      }
    </style>
  </defs>
  <path class="cls-1" d="m256.04,246.65c26.53,2.87,33.1,2.7,51.45-17.58,11.73-12.96,32.84-41.98,50.43-45.31,18.95-3.59,24.53,22.03,42.94,24.52,24.22,3.27,50.05-17.67,65.69-33.7,13.76-14.1,19.23-26.3,36.04-10.97,18.83,17.15,35.35,40.23,58.18,52.31,20.41,10.8,48.02,18.21,70.39,23.4,10.1,2.34,20.96,3.67,31.24,4.85,10.84,1.24,20.48-3.45,30.44-2.56,23.97,2.13,29.43,38.97,43.09,51.88,16.63,15.71,33.58-13.08,49.07-20.99,20.01-10.21,25.54,12.13,20.97,30.16-7.19,28.33-28.11,36.22-42.68,57.71-13.81,20.38,8.86,22.42,23.05,32.54,17.96,12.81,35.58,32.05,49.8,48.78,29.23,34.4-12.21,85.97-38.68,109.74-32.13,28.85-70.37,53.36-107.19,75.83-20.27,12.37-42.48,24.74-64.33,34.02-20.34,8.64-37.54,15.3-52.3,32.09-11.7,13.32-25.87,30.62-32.49,47.04-4.43,10.99-3.46,20.53-10.21,31.06-6.2,9.68-15.65,18.05-23.25,26.62-13.43,15.14-27.34,33.48-44.39,44.46-10.37,6.67-49.95,28.82-61.52,24.33-13.78-5.34,19.99-22.91,24.56-27.18,17.83-16.65,16.03-37.51,15.91-60.45-.31-57.76-.39-115.5-.07-173.26.32-57.54,1.03-115.04,2.33-172.56.61-26.98.98-53.97,1.47-80.95.47-25.72,8.76-56.27-25.6-54.96-16.49.63-55.36,1.56-63.98,17.91-8.84,16.78,5.53,58.4,4.92,78.65-1.19,39.52-48.15,121.76-93.82,76.69-16.59-16.37-30.16-38.23-44.02-56.85-15.22-20.45-29.9-39.05-38.35-63.03-10.19-28.88-11.71-40.7,8.48-65.83,13.86-17.25,39.6-37.01,62.43-38.43Zm383.7,272.14c-.43.06-.85.12-1.28.18,3,17.42,3.91,35.1,14.1,49.97,4.85,7.07,11.54,12.84,16.77,19.61,3.05,3.94,7.82,14.8,11.25,16.74,16.07,9.11,63.31-28.69,67.66-47.4,7.26-31.27-24.09-60.7-45.19-78.26-6.77-5.64-60.15-58.91-67.23-55.09-5.91,3.19,8.26,40.26,8.69,45.53,1.35,16.85-6.75,32.34-4.76,48.74Zm-37.12-120c-20.67-13.08-31.8-38.79-45.58-58.2-20.37-28.7-18.67,6.45-18.36,24.48.24,13.82-5.98,77.17,11.53,74.35,6.8-1.09,20.23-22.81,25.82-27.26,8.17-6.51,16.96-9.49,26.59-13.37Zm-8.88,254.94c-11.51-8.31-26.95-16.94-40.1-22.48-11.98-5.05-13.81-5.19-16.16,7.26-3.23,17.05-1.39,55.92,12.14,65.16,10.58-19.47,35.71-30.61,44.12-49.94Z"/>
</svg>