<?xml version="1.0" encoding="UTF-8"?>
<svg id="Calque_1" data-name="Calque 1" xmlns="http://www.w3.org/2000/svg" viewBox="0 0 1024 1024">
  <defs>
    <style>
      .cls-1 {
        stroke-width: 0px;
      }
    </style>
  </defs>
  <path class="cls-1" d="m547.36,827c-19.86-16.97-41.06-31.7-61.17-48.37-22.07-18.29-35.2-43.96-55.95-63.65-38.22-36.24-81.94-63.52-117.66-102.71-9.18-10.07-10.68-11.6-1.64-21.45,7.53-8.21,17.68-15.4,25.44-24.51,13.78-16.17,49.91-44.68,41.68-69.82-7.28-22.24-42.89-35.82-56.35-55.29-16.96-24.53-6.7-48.22-12.66-74.44.48-.32.96-.64,1.44-.96,16.92,14.54,33.22,31.12,51.16,44.27,20.55,15.07,34.59,3.14,50.77-13.35,37.53-38.25-20.76-56.06-36.54-89.99-5.93-12.74-14.36-52.61,4.22-59.65,21.92-8.3,29.85,29.75,46.38,30.49,7.85.35,22.1-20.7,27.32-25.62,7.64-7.19,15.81-15.62,25.94-19.15,21.38-7.45,48.43-3.57,70.74-6.71,23-3.23,34.08-14.44,49.19-31.43,7.36-8.28,25.47-38.98,38.24-35.32,5.09,1.46,13.76,17.12,17.76,21.63,8.44,9.49,17.88,17.96,27.61,26.1,12.12,10.13,43.58,23.79,34.09,41.45-3.47,6.46-15.31,13.51-20.67,19.58-7.01,7.94-12.91,16.15-17.83,25.51-12.76,24.29-6.86,46.69-6.72,73.31.28,54.05-.57,108.14.18,162.21.88,63.71,2.81,127.42,4.04,191.12.59,30.43-1.7,62.9,2.44,93.09,1.75,12.76,5.73,21.7,15.44,30.67,7.53,6.96,20.26,10.26,24.27,20.02-12.32,4.19-41.43-6.76-53.77-10.84-20.06-6.63-35.42-21.45-51.63-34.54-35.26-28.47-27.58-64.75-27.92-106.86-.15-18.72,5.3-44.17-19.27-25.98-10.44,7.73-19.8,22.63-27.06,33.95-26.89,41.94,5.35,64.85,10.62,106.32-.71.31-1.43.61-2.14.92Zm29.59-197.67c13.66-10.2,6.76-46.46,6.48-61.41-.55-28.88-.06-57.82-.08-86.71-.01-25.64,6.78-62.15-.05-86.71-6.3-22.65-13.37,2.75-21.96,14.89-23.48,33.21-75.55,77.15-77.66,120.46-1.11,22.8,25.92,43.44,40.44,58.34,15.8,16.21,33.39,29.63,52.84,41.13Zm-112.56-43.49c-14.3,8.98-87.58,77.6-49.7,90.67,23.06,7.95,61.72-82.15,49.7-90.67Z"/>
</svg>