<?xml version="1.0" encoding="UTF-8"?>
<svg id="Calque_1" data-name="Calque 1" xmlns="http://www.w3.org/2000/svg" viewBox="0 0 1024 1024">
  <defs>
    <style>
      .cls-1 {
        stroke-width: 0px;
      }
    </style>
  </defs>
  <path class="cls-1" d="m703.95,881.39c-16.14,3.04-50.37-9.55-64.51-17.96-16.72-9.95-31.76-28.72-45.7-42.23-16.89-16.37-21.7-26.74-45.4-24.22-24.33,2.59-52.38,7.31-76.61,2.33-44.75-9.2-83.47-55.41-118.24-82.94-35.09-27.78-67.55-68.35-68.09-115.87-.49-42.82,49.68-75.99,88.67-74.41,19.75.8,39.1,8.1,58.46,9.06,21.08,1.04,17.06-14.9,12.31-33-6.93-26.42-15.97-46.54-8.68-74.08,6.56-24.79,18.54-47.96,36.03-66.81,15.09-16.26,35.63-31.9,56.76-39.32,17.99-6.31,30.39,1.88,45.58,12.03,4.92-28.94,2.29-61.48,2.04-90.83-.06-7.26,2.11-21.05-4.52-26.17-7.56-5.84-39.6-.54-48.44-.51-61.32.22-122.68.57-184,.01-16.48-.15-52.55,7.86-59.98-6.94-7.33-14.62-6.32-56.99,7.2-63.67,9.71-4.79,30.2-.62,41.28-.73,15.75-.15,31.49-.01,47.24.13,33.7.31,67.39.81,101.09,1.03,63.98.42,128.01.66,192-.18,14.76-.19,29.6-.19,44.35-.86,6.65-.3,29.3-6.54,34.62-.46,7.32,8.38-15,61.56-21.77,68.28-12.33,12.26-49.71,3.62-65.38,4.48-15.42.85-20.9-1.22-20.94,11.81-.05,15.18,4.44,32.38,4.45,48.4.02,66.89-.22,133.78.27,200.67.53,72.49,5.05,144.86,5.6,217.34.27,35.6-.28,71.34,1.8,106.89.94,16.16,1.27,32.58,12.28,45.15,11.42,13.04,28.45,20.78,40.22,33.58Zm-258.66-132.73c41.02-8.1,77.04-34.66,95.07-73.55,18.06-38.96-29.43-74.82-64.44-73.35-36.12,1.51-79.41,26.89-92.07,62.02-15.4,42.74,20.22,80.54,61.44,84.89Zm117.99-119.85c11.48-38.48,9.83-82.93,10.71-122.68.93-42.06,4.28-85.37.12-127.26-56.92,16.6-71.03,76.93-80.01,128.33-2.61,14.92-9.94,28.26-12.84,42.15-3.03,14.54,7.21,24.06,17.33,33.65,17.19,16.29,41.3,40.09,64.69,45.8Z"/>
</svg>