<?xml version="1.0" encoding="UTF-8"?>
<svg id="Calque_1" data-name="Calque 1" xmlns="http://www.w3.org/2000/svg" viewBox="0 0 1024 1024">
  <defs>
    <style>
      .cls-1 {
        stroke-width: 0px;
      }
    </style>
  </defs>
  <path class="cls-1" d="m555.54,609.52c4.07-43.19,10.1-101.78-24.81-135.46-15.65-15.1-37.59-22.62-54.02-36.96-16.33-14.25-34.1-31.02-48.34-47.26-15.39-17.54-26.67-36.46-43.47-53.13-12.67-12.57-34.03-31.43-37.81-49.78-3.11-15.1,8.88-35.77,17.24-47.58,2.61-3.69,12.3-18.69,17.73-20.05,9.54-2.4,14.4,9.62,21.61,13.7,20.27,11.47,37.21-13.12,51.88-24.89,9.32-7.48,33.63-31.64,45.93-31.64,19.06,0,29.76,34.71,46.19,41.13,16.87,6.59,43.78-28.43,54.51-39.13,5.09-5.08,15.49-19.65,22.94-19.3,7.36.35,13.85,12.27,18.83,17.53,9.23,9.77,18.53,19.5,28.08,28.96,8.72,8.65,22.27,16.3,29.42,25.75,12.27,16.23-1.44,18.72-14.04,28.56-14.37,11.22-26.17,29.33-31.08,46.86-15.61,55.64,1.78,119.27-4.53,176.31-2.94,26.61-24.16,46.54-40.01,67.28-16.36,21.39-33.82,42.86-54.63,60.02-.53-.31-1.07-.62-1.6-.93Zm22.04-255.02l-.81-.04c0-13.88,3.44-62.11-19.59-53.21-20.65,7.98-21.15,47.59-21.41,64.94-.17,11.86,6.94,67.31,29.29,61.67,15.24-3.85,11.62-60.22,12.52-73.36Z"/>
  <path class="cls-1" d="m329.04,864.84c-10.85-4.84-5.62-51.54-5.77-61.02-.34-20.68-.68-41.37-1.04-62.05-.83-47.37-1.92-94.73-2.81-142.1-.79-41.74-3.54-84.23.57-125.86,2.28-23.1,9.51-33.3,27.61-46.89,11.84-8.89,30.23-24.4,45.62-23.65,18.49.9,16.81,13.94,15.97,30.49-1.06,20.82-3.1,41.54-3.86,62.39-1.7,46.68-3.27,93.38-3.46,140.1-.17,42.77,5,92.72-4.88,134.57-7.69,32.58-42.02,73.48-67.95,94.03Z"/>
</svg>