<?xml version="1.0" encoding="UTF-8"?>
<svg id="Calque_1" data-name="Calque 1" xmlns="http://www.w3.org/2000/svg" viewBox="0 0 1024 1024">
  <defs>
    <style>
      .cls-1 {
        stroke-width: 0px;
      }
    </style>
  </defs>
  <path class="cls-1" d="m712.92,240.29c-101.23,44.8-69.16,204.1-66.37,291.68,1.95,61.02,3.44,121.98,3.62,183.03.09,30.18-.3,60.4.35,90.58.26,12.09.34,24.06,4.25,35.64,3.7,10.96,12.51,19.45,15.66,30.24-17.35,1.41-36.56-10.64-49.75-20.74-15.3-11.71-36.11-26.12-48-41.03-8.23-10.32-7.77-31.7-19.67-37.96-14.1-7.41-40.43,11.6-54.37,14.8-41.06,9.44-65.59-45.68-89.05-71.03-28.86-31.18-66.41,29.18-96.69,38.62-.32-.46-.65-.92-.97-1.38,22.42-23.85,61.13-45.06,66.26-80.54,5.68-39.31-30.96-73.52-54.38-100.77-15.12-17.59-16.03-26.33-6.66-47.55,7.88-17.86,17.07-32.13,29.27-47.2,12.66-15.64,24.84-31.62,37.17-47.52,9.3-12,27.25-27.7,32.43-41.89,8.18-22.41-47.52-58.26-57.18-81.39-4.72-11.3-10.68-40.46.24-51.22,6.81-6.7,2.81-5.73,11.21-.05,8.78,5.94,13.25,18.46,22.72,23.93,21.29,12.29,63.1-41.53,81.17-54.59,13.09-9.45,18.75-20.89,33.52-12.32,9.18,5.33,22.58,28.79,32.84,27.63,9.55-1.07,34.14-38.56,42.39-45.73,9.35-8.12,27.99-39.05,39.2-41,11.97-2.09,36.84,27.58,45.02,35.56,16.62,16.22,33,32.76,45.78,52.19Zm-150.39,444.21c-.22-.03-.43-.06-.65-.08,0-33.79-3.75-68.06-6.14-101.76-2.42-34.1-25.29-35.12-55.07-38.16-14.56-1.49-17.75,2.49-30.07,5.29-11.75,2.66-20.05-5.7-28.44-13.28-11.13-10.06-45.76-55.05-65.48-44.42-26.43,14.24,31.41,49.68,42.22,53.6,10.49,3.8,21.64,2.45,28.58,11.31,6.55,8.35,9.09,24.59,14.79,34.23,15.61,26.4,34.24,52.04,53.49,75.89,8.74,10.82,17.95,23.72,30.46,30.55,15.11,8.25,14.08,2.83,16.31-13.16Zm-8.77-299.72c-.53-.13-1.05-.26-1.58-.39-13.82,16.76-101.71,118.3-61.63,126.29,12.31,2.45,32.6-6.47,45.55-6.9,16.57-.55,17.55,1.46,20.05-16.27,4.04-28.69,5.87-74.9-2.39-102.73Z"/>
</svg>