<?xml version="1.0" encoding="UTF-8"?>
<svg id="Calque_1" data-name="Calque 1" xmlns="http://www.w3.org/2000/svg" viewBox="0 0 1024 1024">
  <defs>
    <style>
      .cls-1 {
        stroke-width: 0px;
      }
    </style>
  </defs>
  <path class="cls-1" d="m261.2,342.86c11.6,16.11,17.19,24.75,35.42,33.76,8.9,4.4,38.16,26.23,47.39,24.23,7.03-1.52,15.99-20.34,21.08-26.09,14.52-16.39,33.17-25.31,51.29-37.04,29.44-19.06,70.46-31.93,102.22-9.6,29.53,20.76,45.18,54.04,56.91,85.77.49.03.97.05,1.46.08,8.34-46.8,3.6-99.78,3.16-147.32-.16-17.7,4.94-37.76-14.41-43.55-20.75-6.2-52.65,0-74.44-.24-51.14-.55-102.33-.88-153.45-2.31-12.93-.36-39.85,3.47-49.18-6.61-7.14-7.71-16.83-41.79-15.2-51.5,2.26-13.51,22.28-5.38,36.2-4.97,25.15.75,50.38.64,75.54.68,49.88.08,99.77-.27,149.66-.49,48.25-.21,96.42-.89,144.64-2.62,26.95-.97,34.19-4.16,51.28,17.2,12.92,16.14,28.51,37.82,33.51,58.34-25.34,0-51.53-3.26-77.17-3.82-10.19-.22-55.24-6.59-61.68,1.99-4.96,6.6,8.51,22.46,10.6,29.28,3.22,10.52,2.9,22.86,3.29,33.8,1.03,29.34.27,58.83.32,88.19.17,111.82,2.48,223.13,8.68,334.78,1.42,25.59.8,50.96-.07,76.56-.48,14.14-1.44,28.38-1.31,42.54.05,5.85,4.64,30.77.47,34.56-4.83,4.39-13.22-3.77-19.56-5.72-10.44-3.2-21.74-1.89-32.43-1.41-26.91,1.22-53.95,3.06-80.81-.17-50.36-6.05-90.79-28.69-123.02-67.11-29.75-35.46-60.44-89.61-68.28-135.66-9.6-56.44,30.96-111.27-4.27-162.22-32.96-47.67-50.07-95.98-59.27-152.71.49-.19.98-.38,1.46-.58Zm320.08,329.83c-.31-16.45,7.7-81.13-6.57-90.17-6.57-4.16-33.38,2.67-41.25,3.57-15.82,1.82-31.96,3.74-47.68,6.27-23.37,3.77-57.53,5.38-75.05,22.78-23.78,23.61-20.38,57.33-13.16,87.62,14.27,59.89,49.21,117.41,117.49,111.01,30.26-2.84,57.81-5.14,63.14-38.56,5.24-32.85,5.29-69.36,3.08-102.52Zm-102.18-160.05c.04.41.09.82.13,1.22,37.02-4.6,90.59-13.8,87.11-62.67-3.21-45.15-43.55-63.68-82.99-65.75-24.31-1.27-38.55,1.64-52.36,21.16-11.9,16.82-25.65,36.78-30.32,57.28-12.97,56.98,41.74,50.73,78.43,48.76Z"/>
</svg>