<?xml version="1.0" encoding="UTF-8"?>
<svg id="Calque_1" data-name="Calque 1" xmlns="http://www.w3.org/2000/svg" viewBox="0 0 1024 1024">
  <defs>
    <style>
      .cls-1 {
        stroke-width: 0px;
      }
    </style>
  </defs>
  <path class="cls-1" d="m451.52,278.47c33.02-6.54,69.62-2.48,103.28-2.92,17.22-.23,34.52-.25,51.71-1.3,9.93-.6,33.44,1.05,41.05-6.71,9.55-9.74-4.71-36.97-5.26-48.49-.86-17.95,9.08-29.31,19.2-43.59,5.21-7.35,15.61-27.39,25.39-29.95,11.78-3.09,21.54,13.36,27.43,21.27,7.63,10.25,18.47,24.32,18.23,37.84-.23,12.95-11.05,21.75-14.14,34.77-9.99,42.18,46.34,29.44,72.95,29.61,10.28.07,29.4-3.43,30,8.35.51,9.9-19.9,31.17-25.82,39.35-6.43,8.89-15.35,23-23.81,29.71-12.47,9.88-27.05,2.95-41.44-1.43-7.28,10.75-4.31,28.28-4.35,40.28-.05,17.56.06,35.11-.04,52.67-.21,36.84-.64,73.66-.1,110.5.52,34.89,1.31,69.79,2.09,104.68.73,32.5,3.43,66.82-5.37,98.55-14.79-34.79-64.11-40.37-79.49-74.13-10.73-23.54-12.38-18.88-32.78-5.11-18.57,12.53-37.25,23.48-55.13,37.16-32.08,24.54-58.11,57.04-100.54,56.54-12.17-.14-50.88,5.58-48.11-10.59,2.48-14.42,37.66-29.04,48.28-36.92,34.18-25.38,56.76-63.32,87.83-92.26,16.53-15.39,32.6-31.41,48.74-47.2,12.38-12.11,32.84-25.03,41.56-39.41,10.16-16.76,8.15-45.44,8.59-64.42.63-26.65.97-53.31,1.37-79.96.23-15.24,5.86-34-11.82-37.6-20.68-4.2-52.18,3.36-72.97,7.04-14.09,2.5-27.7,9.21-39.69,7.62-6.99-.93-16.02-6.38-23.89-7.63-12.54-2-25.38-1.5-38.05-1.75-23.79-.48-47.59-1.27-71.39-1.32-25.14-.05-41.22-3.31-44.71,24.07-13.12,103.11-8.11,212.82-5.62,316.54.66,27.3,2.93,55.08,1.4,82.36-1.49,26.49-12.28,36.49-30.55,54.5-7.26,7.16-26.15,38.36-36.11,39.67-11.88,1.56-4.97-28.65-4.84-38.75,1.45-105.79,3.5-211.85,1.87-317.64-.73-47.56,10.34-119.22-18.74-159.37-12.58-17.37-30.73-33.28-41.23-51.78-14.93-26.3,16.34-27.42,36-31.94,26.69-6.13,55.04-2.71,82.28-2.56,17.92.1,58.68-7.45,74.37,2.86,15.78,10.36,15.6,28.55,37.88,33.39,12.7,2.76,15,4.29,18.79-9,1.87-6.56.58-19.3-4.61-24.02.1-.52.19-1.03.29-1.55Z"/>
</svg>