<?xml version="1.0" encoding="UTF-8"?>
<svg id="Calque_1" data-name="Calque 1" xmlns="http://www.w3.org/2000/svg" viewBox="0 0 1024 1024">
  <defs>
    <style>
      .cls-1 {
        stroke-width: 0px;
      }
    </style>
  </defs>
  <path class="cls-1" d="m243.97,848.4c-8.85-13.49-1.95-43.69-1.88-59.12.09-17.92-.17-35.85-.29-53.76-.29-42.99-1.04-86.04-.28-129.03.6-33.83-1.58-74.99,7.31-107.54,9.03-33.06,50.33-47.99,57.15-82.92,2.59-13.26-.65-28.32,13.56-32.96,10.63-3.47,33.06,9.77,41.66,15.58,9.34,6.32,20.14,23.46,33.21,21.01,14.51-2.72,29.75-33.46,41.6-42.62,19.02-14.7,51.5-40.02,75.3-45.62,20.11-4.73,67.73,19.01,77.47,37.24,18.74,35.06-36.61,29.5-58.27,37.86-27.71,10.7-55.81,47.53-67.42,74.52-12.88,29.93,2.99,57.91,32.7,65.52,12.73,3.26,25.93,5.07,38.98,6.47,16.87,1.8,60.31-3.01,72.75,10.65,15.94,17.5-17.26,53.11-30.31,65.33-12.85,12.02-25.99,24.99-41.32,33.83-16.37,9.43-25.24,10.47-36.19-5.77-18.9-28.03-47.02-48.7-65.24-77.35-18.03-28.36-16.65-64.47-33.63-92.22-10.89-17.8-26.68-17.41-41.48-3.81-13.23,12.16-15.65,33.33-19.96,49.85-10.46,40.11-12.49,78.42-9.82,119.73,2.48,38.46,13.03,93.62-5.47,129.95-7.58,14.88-27.31,24.84-40.65,34.4-13.3,9.54-25.49,22.69-39.47,30.77Z"/>
  <path class="cls-1" d="m370.62,179.28c36.07-7.14,77.71-1.7,114.41-1.72,42.04-.02,84.09-.04,126.13-.05,20.11,0,40.22-.02,60.32-.02,16.44,0,39.07-4.06,54.86.33,27.56,7.66,44.74,59.88,58.19,83.01-29.09,4.42-60.91.95-90.35,2.26-8.85.39-20.99-4.65-20.64,5.51.22,6.51,16.42,19.95,18.94,28.04,8.33,26.82,3.13,62.08,4.28,90.1.64,15.62,1.86,31.04,3.81,46.55,1.1,8.77,7.31,24.88,4.38,33.39-18.96-11.16-35.95-30.46-52.42-45.01-20.91-18.47-22.21-27.93-22.26-55.21-.06-28.13.34-56.44-1.17-84.53-1.45-26.94-20.32-18.83-43.71-18.83-51.47,0-102.93.19-154.39.08-16.98-.04-43.5,6.42-50.39-10.09-4.17-10-2.08-30.6-3.74-41.97-1.58-10.84-3.81-21.17-6.23-31.83Z"/>
</svg>