<?xml version="1.0" encoding="UTF-8"?>
<svg id="Calque_1" data-name="Calque 1" xmlns="http://www.w3.org/2000/svg" viewBox="0 0 1024 1024">
  <defs>
    <style>
      .cls-1 {
        stroke-width: 0px;
      }
    </style>
  </defs>
  <path class="cls-1" d="m509.43,739.52c-15.58-.84-35.1-21.02-46.12-30.41-20.66-17.6-43.38-31.81-63.31-50.46-18.92-17.7-38.41-35.4-55.91-54.52-8.74-9.55-11.51-17.07-16.56-28.68-4.68-10.76-10.4-16.86-6.35-24.34,2.11-3.9,16.19-12.98,20.2-17.74,8.26-9.81,16.59-19.41,26.19-27.98,16.91-15.11,34.47-29.4,14.06-49.44-29.68-29.15-70.06-40.86-94.6-77.17-9.67-14.31-25.18-36.25-26.52-53.98-2.06-27.34,43.29-13.54,61.96-11.52,37.22,4.01,105.08,2.48,102.04-51.83-3.13-55.84-85.37-54.83-87.77-110.3-1.3-30.08,24.58-22.45,46.36-21.29,27.29,1.45,54.53.99,81.84.57,57.92-.91,115.33-2.89,173.15-4.73,24.11-.77,55.29-6.97,75.23,8.71,20.33,15.98,38.12,43.34,50.2,65.77-8.34,2.77-14.2-7.45-23.05-6.84-10.59.74-23,7.29-34.84,8.27-23.63,1.94-49.04,2.36-71.87,5.8,4.32,16.29,21.13,21.36,23.38,40.25,2.88,24.28.22,50.54.26,74.98.08,51.47.01,102.94,0,154.41-.01,99.51.45,199.01,0,298.52-.07,16.21,4.71,124.91-6.71,124.61-11.57-.31-32.68-42.39-38-50.66-11.61-18.06-20.99-34.43-22.09-56.26-2.4-47.83-3.13-95.87-4.49-143.75-.62-21.74-1.24-43.44-2.96-65.12-2.14-26.98-6.15-30.44-33.31-29.03-44.14,2.29-86.75,18.49-98.05,65.94-11.27,47.33,24.52,90.26,58.36,117.18-.24.35-.49.7-.73,1.05Zm-40.21-529.92c17.71,31.13,39.71,50.43,43.29,88.46,3.21,34.08-6.46,65.76-27.7,92.5-11.49,14.47-59.58,50.94-37.9,68.22,11.2,8.92,38.64,8.5,52.62,10.08,15.72,1.78,31.41,3.82,47.12,5.58,10.48,1.18,27.94,6.24,35.07-3.92,7.01-9.98,2.96-39.62,3.02-51.51.19-39.42.09-78.84.06-118.26-.01-22.44,12.18-83.65-14.5-90.19-14.02-3.44-35.45-.91-50.18-1.55-16.99-.74-33.94-.43-50.91.58Z"/>
</svg>