<?xml version="1.0" encoding="UTF-8"?>
<svg id="Calque_1" data-name="Calque 1" xmlns="http://www.w3.org/2000/svg" viewBox="0 0 1024 1024">
  <defs>
    <style>
      .cls-1 {
        stroke-width: 0px;
      }
    </style>
  </defs>
  <path class="cls-1" d="m504.57,139.76c12.76,9.29,22.17,11.93,24.56,27.86,2.42,16.16-5.61,31.28-6.17,47.6-1.32,39.02-27.87,50.07-65.27,46.27-15.5-1.57-23.6-7.78-28.72,9.11-5.39,17.77-.05,46.68-.06,65.47-.01,21.82-.26,43.65-.02,65.47.11,10.24-2.87,28.5,12.92,20.31,41.65,20.97,77.01,48.78,122.21,62.85,10.58,3.29,21.04,5.47,32.12,5.96,8.06.36,23.25-3.92,29.94-1.19,14.56,5.95,6.33,22.99,23.65,5.98,38.04-37.35,6.1-90.68-20.39-123.94-14.32-17.98-32.32-32.55-46.15-51.05-15.95-21.35-16.54-43.21-9.38-68.58,4.98-17.65,12.57-43.8,28.53-54.49,22.32-14.95,44.98-5.61,67.09,3.66,8.61,3.61,17.01,8.11,26.37,8.95,3.58.32,23.65-.38,26.87-1.36,10.44-3.18,27.01-39.47,36.17-24.02,4.28,7.21-16.27,54.14-19.92,60.92-4.34,8.07-13.61,15.61-15.21,24.57-2.04,11.48,10.24,25.49,16.06,35.09,24.77,40.86,25.2,92-1.35,132.84-24.17,37.19-65.02,65.33-99.75,91.63-17.09,12.94-32.97,32.02-53.67,39-24.17,8.15-50.61,3.6-72.94-6.96-16.75-7.91-30.87-19.8-46.35-29.85-15.65-10.17-38.69-31.18-41.3-3.1-4.97,53.36.56,110.2.54,163.9-.01,25.9,1.07,52.12-.24,77.99-1.27,25.18-15.68,42.56-27.12,64.29-3.85,7.32-24.08,52.77-30.67,49.08-10.02-5.61-2.63-65.96-2.63-78.17,0-113.51-.6-227.01-1.45-340.52-.47-62.88-3.41-126.28-1.14-189.12.53-14.75,4.59-21.96-9.7-24.55-9.77-1.77-20.5,4.1-31.78.47-20.87-6.7-28.1-27.16-40.68-44.02-5.92-7.93-18.19-20.58-14.18-31.94,3.55-10.05,11.36-7.7,22.05-8.27,27.26-1.46,54.09-3.31,81.24-5,24.27-1.51,49.05,7.36,72.52,4.99,22.26-2.24,44.82-16.58,63.39-28.14Z"/>
</svg>