<?xml version="1.0" encoding="UTF-8"?>
<svg id="Calque_1" data-name="Calque 1" xmlns="http://www.w3.org/2000/svg" viewBox="0 0 1024 1024">
  <defs>
    <style>
      .cls-1 {
        stroke-width: 0px;
      }
    </style>
  </defs>
  <path class="cls-1" d="m500.76,746.31c-16.8,5.43-4.07-74.63-6.07-86.05-1.39-7.93-3.96-47.28-18.48-35.78-4.15,3.29-4.28,17.09-5.95,21.42-3.31,8.6-7.89,14.94-10.26,23.92-5.54,20.99-5.16,32.61-20.21,49.76-14.01,15.96-28.79,32.25-44.19,46.81-13.8,13.03-28.86,24.15-44.74,34.44-10.29,6.67-42.02,33.77-52.95,28.39,15.57-24.62,35.69-45.6,51.93-69.77,16.64-24.76,40.28-57.31,39.78-88.32-.25-15.35-5.43-36.29-11.32-50.39-4.93-11.81-13.12-20.75-11.94-34.48,2.57-29.94,33.3-59.25,51.93-80.3,20.08-22.68,34.05-38.12,26.28-70.53-6.96-29.03-30.58-52.71-48.19-75.66-18.21-23.73-31.32-51.46-50.79-74.15-11.28-13.15-15.27-11.39-3.11-25.78,10.69-12.65,23.35-23.73,35.13-35.35,6.17-6.09,23.4-30.05,32.82-30.44,9.81-.4,20.76,15.39,27.55,21.48,10.12,9.08,20.96,20.75,33.88,25.88,13.64,5.42,30.21,3.82,44.69,5.05,22.04,1.88,63.05-2.4,82.31,8.53,11.5,6.52,19.29,24.68,24.9,35.76,3.33,6.58,6.65,25.54,14.1,27.45,20.75,5.32,40.63-50.88,56.73-36.16,20.21,18.48,1.49,63.35-11.69,79.16-8.27,9.91-18.85,18.2-28.85,26.21-8.19,6.55-27.35,15.69-31.05,26.03-7.28,20.33,40.89,56.17,55.16,68.91,12.21,10.9,26.38,20.47,36.99,32.89,16.87,19.76,13.4,25.08-4.8,41.53-22.79,20.59-44.53,42.55-70.31,59.42-28.77,18.82-46.12,41.14-67.54,67.64-10.02,12.39-21.11,23.87-33.51,33.92-12.08,9.79-28.16,16.73-38.23,28.54Zm100.51-128.66c12.73-1.86,25.89-16.42,22.37-29.81-2.52-9.57-22.59-26.51-31.53-30.96-22.06-10.99-13.89,8.6-9.69,22.35,2.89,9.45,5.22,38.43,18.85,38.42Z"/>
</svg>