<?xml version="1.0" encoding="UTF-8"?>
<svg id="Calque_1" data-name="Calque 1" xmlns="http://www.w3.org/2000/svg" viewBox="0 0 1024 1024">
  <defs>
    <style>
      .cls-1 {
        stroke-width: 0px;
      }
    </style>
  </defs>
  <path class="cls-1" d="m159.55,432.45c15.98,31.27,33.21,62.21,60.05,85.75,37.12,32.56,47.25-6.55,59.83-38.13,11.24-28.21,43.34-67.29,41.63-98.4-2.42-43.79-56.37-38.71-85.34-41.75-.24-.55-.49-1.11-.73-1.66,16.1-18.36,27.81-29.96,52.91-29.42,26.09.56,21.04-6.58,31.28-28.07,9.1-19.08,28.62-35.76,44-49.8,16.9-15.43,29.03-17.24,51.4-18.78,20.61-1.42,43.31-3.83,61.55-14.24,26.33-15.02,35.98-11.93,58.25,8.89,8.38,7.84,17.68,20.18,28.35,24.9,8.85,3.92,19.97,2.24,29.36,3.97,9.51,1.75,21.35,3.93,28.34,11.04,4.94,5.03,4.83,15.03,13.25,16.37-.62,1.42-1.05,2.41-1.47,3.37,14.3,9.8,31.92-6.01,44.5-11.88,15.16-7.07,29.78-20.73,44.71-26.41,21.39-8.14,23.97,11.32,40.4,23.92,7.1,5.44,9.77,6.9,17.86,8.74,6.79,1.54,20.11-3.12,26.15.83,15.47,10.1-6.28,34.85-11.04,47.15-6.62,17.12-2.43,26.64,8.83,40.56,26.73,33.03,53.15,70.03,59.86,113.13,13.18,84.68-44.2,155.96-103.39,207.71-12.54,10.97-25.91,15.5-18.02,32.87,7.36,16.2,28.58,27.33,41.97,37.38,30.62,23,67.04,54.22,73.03,94.91-22.04-10.34-39.65-29.78-57.35-46.13-19.16-17.7-41.86-45.76-67.44-54.25-24.28-8.06-50.83,15.59-69.46,28.09-24.78,16.62-49.19,37.49-77.37,48.01-51.91,19.37-120.27,20.49-161.12-21.15-40.5-41.29-53.55-102.27-41.36-157.77,9.44-42.98,55.77-101.33,104.18-83.68,7.77,2.83,47.5,27.17,53.3,12.66,5.24-13.1-31.6-58.53-37.69-69.91-13.54-25.31-27.59-52.08-32.03-80.73-3.95-25.45-1.21-59.18-23.5-77.65-46.94-38.89-57.27,101.31-65.47,122.89-13.06,34.35-29.82,69.49-45.61,102.72-13.7,28.83-46.52,23.69-72.62,13.5-29.58-11.55-51.04-32-66.78-59.28-13.46-23.33-35.52-53.11-38.16-79.99.32-.09.63-.18.95-.28Zm453.72,95.11c-3.8,20.19-9.79,53.66-29.87,64.2-9.11,4.79-21.78,4.53-31.71,7.8-11.65,3.84-21.94,9.4-32.46,15.63-32.32,19.16-77.7,60.55-70.79,103.13,8.91,54.93,65.76,29.35,94.62,7.42,16.94-12.87,32.18-27.75,50.05-39.4,18.98-12.37,40.62-19.49,60.99-29.21,40.46-19.31,69.71-43.33,96.25-80.02,26.54-36.68,41.44-76.77,12.21-115.78-27.23-36.33-62.39-64.8-98.24-91.94-17.88-13.53-40.33-26.85-48.67-48.41-8.26-21.36-5.31-25.42-30.28-24.98-21.98.39-28.09,8.34-30.87,31.69-2.57,21.61-1.39,53.5,7.48,73.74,8.68,19.79,25.39,36.78,34.69,57.07,10.38,22.63,13.45,44.69,16.6,69.07Z"/>
</svg>