<?xml version="1.0" encoding="UTF-8"?>
<svg id="Calque_1" data-name="Calque 1" xmlns="http://www.w3.org/2000/svg" viewBox="0 0 1024 1024">
  <defs>
    <style>
      .cls-1 {
        stroke-width: 0px;
      }
    </style>
  </defs>
  <path class="cls-1" d="m515.88,789.78c-18.72-17.8-39.59-28.43-62.13-40.75-20.17-11.02-45.7-17.47-62.18-33.59-7.29-7.12-12.22-16.18-20-22.71-7.04-5.91-18.13-7.78-18.71-18.52-1.22-22.88,37.28-36.59,45.85-54.67,10.37-21.87-16.3-37.51-30.37-49.36-17.78-14.98-43.38-33.75-52.73-55.74-2.01-4.73-7.99-24.44-3.52-28.62,4.24-3.97,20.12,5.44,23.59,6.71,24.41,8.94,47.78,9.98,70.75-3.22,21.37-12.28,28.29-27.07,31.31-50.97,3.47-27.48,9.35-47.44-17.26-62.13-19.7-10.88-41.06-19.63-59.35-33.02-11.59-8.49-44.07-26.55-44.26-40.65-.14-10.37,17.35-36.31,28.2-37.61,22.01-2.64,32.66,36.21,47.06,44.32,24.83,13.98,52.8-81.05,82.92-73.95,9.08,2.14,20.99,20.14,30.33,25.08,11.83,6.26,28.01,11.09,41.47,9.24,10.16-1.4,23.69-7.68,32.3-13.04,7.49-4.67,18.13-20.43,27.02-22.09,18.66-3.47,46.12,28.5,57.45,39.43,20.01,19.31,40.87,46.36,49.91,73.07-34.39-3.93-53.91-1.57-85.72,12.84-28.26,12.81-38.66,36.35-46.15,65.23-8.41,32.41-12.05,58.45,1.98,89.96,11.03,24.77,36.26,34.62,51.45,56.26,7.49,10.68,10.62,23.18,16,34.85,3.43,7.43,20.97,26.86,20.78,33.61-.5,17.36-60.45-4.84-75.57,1-14.71,5.68-18.83,22.11-27.88,33.69-7.97,10.19-18.72,17.93-27.34,27.55-9.37,10.45-15.75,21.65-20.68,34.74-7.34,19.48-2.06,32.58-3.23,52.57-.43.17-.87.33-1.3.5Zm32.89-290.37c-23.9,10.03-33.69,44.02-48.67,64.21-10.61,14.3-29.28,37.32-3.29,46.22,24.46,8.38,48.45-8.41,56.13-31.1,8.44-24.94.26-54.49-4.17-79.33Z"/>
</svg>