<?xml version="1.0" encoding="UTF-8"?>
<svg id="Calque_1" data-name="Calque 1" xmlns="http://www.w3.org/2000/svg" viewBox="0 0 1024 1024">
  <defs>
    <style>
      .cls-1 {
        stroke-width: 0px;
      }
    </style>
  </defs>
  <path class="cls-1" d="m741.29,267.36c-39.69,0-79.47,3.67-118.48,1.74-24.85-1.23-3.57,12.47,6.93,20.51,7.82,5.98,8.63,4.2,11.7,14.22,3.47,11.33,1.6,25.7,1.66,37.42.46,92.69.49,185.36,3.36,278.02,1.52,49.05,3.01,98.03,3.31,147.1.13,22.15-.12,44.49,2.05,66.56,1.54,15.64,17.95,49.67-6.59,32.73-34.1-23.54-65.98-44.88-105.2-59.1-28.66-10.39-63.95-32.73-84.91-54.65-41.7-43.63-147.81-87.66-113.62-165.59,7.41-16.88,21.45-33.17,26.58-50.64,5.85-19.91-8.12-35-19.79-49.48-18.6-23.1-66.64-53.37-65.58-85.98,1.09-33.33,50.79-33.39,73.41-30.37,32.96,4.4,61.21-22.05,65.42-55.2,6.42-50.54-63.48-33.66-88.87-43.87-31.11-12.52-29.38-64.32-6.24-84.53,11.08-9.68,37.98-6.12,50.96-.79,8.2,3.37,14.05,14.66,22.13,16.67,10.87,2.7,15.94-6.68,25.07-11.87,36.97-21.03,92.77-.59,133.17-3.92,20.26-1.67,37.19-15.06,52.59-26.71,15.87-12.01,29.3-3.69,45.74,7.58,17.83,12.23,33.94,28.35,45.81,46.35,12.66,19.21,25.8,35.83,39.39,53.82Zm-243.33,8.21c6.41,31.66,13.16,60.76,7.19,93.17-5.75,31.19-23.9,50.44-43.68,74.06-14.27,17.04-48.05,51.91-27.23,75.09,16.39,18.25,64.69,16.18,86.55,16.41,11.12.12,27.27,3.35,35.14-5.71,7.1-8.18,4.17-30.47,4.34-39.96.58-33.78.98-67.57,1.32-101.35.19-18.21.35-36.42.57-54.63.15-12.7,5.7-39.54,1.07-50.81-7.72-18.77-47.92-9.43-65.26-6.26Zm62.02,373.57c-.2-.01-.39-.03-.59-.04,0-25.06-2.08-34.88-29.44-33.64-20.27.92-38.77,11.37-54.32,23.65-29.22,23.09-48.45,59.38-26.07,93.75,17.92,27.51,53.29,47.82,82.47,28.08,32.01-21.66,25.1-76.77,27.95-111.79Z"/>
</svg>