<?xml version="1.0" encoding="UTF-8"?>
<svg id="Calque_1" data-name="Calque 1" xmlns="http://www.w3.org/2000/svg" viewBox="0 0 1024 1024">
  <defs>
    <style>
      .cls-1 {
        stroke-width: 0px;
      }
    </style>
  </defs>
  <path class="cls-1" d="m329.1,382.33c5.37,14.64,13.1,25.6,21.86,38.3,10.61,15.38,24.29,20.76,35.85,34.31,10.66,12.5,12.76,27.29,29.91,32.38,12.85,3.82,44.32,8.36,56.13,1.99,17.37-9.37,5.66-27.54-1.83-39.95-11.44-18.95-9.82-33.74-10.8-55.1-.94-20.56-7.29-40.24-7.96-60.94-.7-21.61-.29-43.31-.18-64.93.04-7.81,7.43-39.46,3.18-45.21-5.86-7.94-44.49-2.24-53.02-2.25-16.59-.03-114.44,7.62-117.57-3.43-2.65-9.37,22.92-38.39,28.96-44.59,15.52-15.93,35.21-11.25,56.52-11.11,47.99.32,95.98.58,143.97,1.6,88.14,1.89,176.19,4.78,264.35,5.31,22.72.14,47.03-1.5,69.59,1.52,21.38,2.86,19.9,14.25,12.39,32.43-5.45,13.2-10.31,22.66-25.41,25.73-16.39,3.33-42.91-8.08-57.86-.64-12.8,6.37-7.4,26.97-7.42,40.09-.03,22.3-.3,44.6-.77,66.89-.96,45.21-1.86,90.39-1.99,135.62-.27,92.49-.4,184.99,1.69,277.46.27,11.8,7.66,59.06-1.52,67.51-10.41,9.58-28.8-31.63-33.46-40.54-9.33-17.83-21.36-37.2-24.83-57.25-3.88-22.41-1.25-47.45-1.42-70.15-.18-24.29.02-48.6-.49-72.88-.12-5.76,2-21.05-1.7-25.6-5.11-6.28-19.86-1.69-27.42-1.1-22.41,1.76-44.73,4.14-67.15,1.49-13.84-1.63-51.75-16.59-63.57-7.04,35.17,42.13,46.24,98.89,39.11,153.24-3.17,24.14-9.49,54.82-30.41,69.77-19.58,14-44.66,28.86-66.32,39.45-47.87,23.39-81.86,61.88-138.68,57.91-16.72-1.17-15.72.63-22.77-12.59-6.29-11.79-9.59-25.14-15.76-37.01-11.9-22.9-31.34-37.94-48.32-56.68-9.69,9.84-20.25,18.34-30.65,27.42-13.82,12.08-21.71,14.31-38.32,21.23-20.3,8.45-50.23,27.71-29.44-7.62,16.21-27.55,28.66-50.37,53.71-71.3,9.38-7.83,25.2-20.77,37.82-23.39,16.05-3.33,12.45,3.63,19.46,14.86,24.09,38.62,34.12-7.12,36.39-29.37,3.49-34.14,5.29-68.91,6.5-103.2,2.39-67.62,3.38-135.26,8.78-202.68.29,0,.59,0,.88,0Zm377.12-36.37c-.12,0-.24,0-.37,0,0-25.65-.27-51.29-.57-76.93-.24-20.74,6.46-42.55-17.76-46.48-23.85-3.88-51.13-.42-75.23-.59-14.33-.1-28.66-.2-42.99-.3-10.35-.07-29.69-4.03-39.23-.01-17.11,7.21-11.92,33.07-11.25,48.91.42,9.96-1.54,25.27,2.38,34.56,5.48,13,5.92,10.77,18.41,4.42,18.79-9.54,34.02-16.72,55.37-18.7,11.3-1.05,55.29-8.54,60.92,6.67,3.96,10.69-18.58,38.38-27.19,44.9-16.79,12.72-44.49,11.63-63.97,16.23-39.78,9.38-55.48,60.18-29.78,92.9,25.14,32,100.48,20.62,136.4,19.79,7.64-.18,24.7,2.2,30.57-3.54,6.42-6.28,4.07-24.89,4.24-32.61.67-29.71.04-59.5.04-89.22Zm-320.8,322.52c4.01,43.38,2.89,109.93,60.23,114.8,20.6,1.75,43.35,6.26,55.21-12.57,14.16-22.5,18.16-43.87,12.63-69.6-10.16-47.24-23.95-93.87-71.42-115.21-19.13-8.6-47.67-19.86-53.35,7.5-4.92,23.73-2.45,50.91-3.29,75.08Z"/>
</svg>