<?xml version="1.0" encoding="UTF-8"?>
<svg id="Calque_1" data-name="Calque 1" xmlns="http://www.w3.org/2000/svg" viewBox="0 0 1024 1024">
  <defs>
    <style>
      .cls-1 {
        stroke-width: 0px;
      }
    </style>
  </defs>
  <path class="cls-1" d="m492.43,863.41c0-24.89,6.4-49.63,5.49-75.35-.81-23.06-1.56-46.12-2.4-69.18-.53-14.37,4.14-65.8-7.36-75.78-12.48-10.83-34.77,13.84-42.61,23.92-25.02,32.18-38.33,71.99-62.98,104.43-12.07,15.89-21.23,28.08-38.7,38.1-18.98,10.88-37.86,21.69-54.06,36.28-7.38-13.67,10.51-35.41,16.99-47.32,10.6-19.46,25.5-36.06,36.6-55.2,9.48-16.35,15.24-33.77,29.31-46.56,17.77-16.16,36.64-29.77,55.82-44.06,16.41-12.22,33.93-23.31,47.71-38.48,14.74-16.22,25.59-34.97,38.02-52.88,11.99-17.28,23.39-37.36,22.67-59.38-.69-21.23-19.68-36.76-35.63-48.59-12.05-8.94-30.96-31.26-46.01-33.43-16.86-2.43-41.84,22.47-41.63,39.02.24,18.28,18.77,25.05,27.65,38.61,10.96,16.76,11.87,39.91,9.76,59.26-2.26,20.63-10.3,34.77-24.3,49.29-11.57,12-23.02,33.06-36.93,39.11-40.75,17.71-38.76-77.92-40.27-100.28-1.74-25.78-4.28-55.44,6.64-79.66,8.7-19.28,25.15-33.19,40.35-47.31,13.85-12.87,29.85-31.04,48.15-37.5,25.09-8.87,45.59-.63,66.58-18.81-12.69-26.05-35.48-32.2-59.72-45.57-30.71-16.94-60.32-36.71-85.87-60.9-14.89-14.09-15.73-18.11-2.05-33.99,11.52-13.38,24.64-26.09,37.39-38.31,11.97-11.48,15.72-13.2,28.59-1.37,13.14,12.08,21.25,26.05,31.24,40.5.64.26,1.28.53,1.92.79,13.45-16.34,26.23-29.89,43.09-42.76,4.95-3.78,18.99-19.38,25.76-19.45,9.84-.1,17.95,11.37,25.59,16.63,15.71,10.83,35.73,16.85,54.14,9.01,6.39-2.72,15.75-13.84,23.8-10.95,8.34,3,12.84,19.48,15.14,26.84,3.06,9.8,2,22.96,6.24,32.05,6.33,13.54,2.62,9.51,13.33,3.25,11.67-6.83,16.57-28.02,33.2-20.51,17.57,7.94,5.13,49.42,1.7,63.18-6.19,24.87-22.43,41.01-40.29,58.52-13.17,12.92-37.92,25.33-42.03,45.06-4.12,19.77,17.83,51.18,26.59,68.64,9.28,18.5,22,35.75,35.22,51.71,13.82,16.68,35.72,28.47,47.14,46.66,13.03,20.76-4.61,36.69-17.48,52.6-9.3,11.49-28.92,42.94-43.36,47.56-19.06,6.09-32.53-28.09-42.29-38.73-15.85-17.29-37.44-30.08-55.3-45.34-3.17,28.41,2.33,59.85,1.77,88.78-.58,30.43,7.39,58.56,9.7,88.6,4.46,58.08-39.1,101.05-91.98,119.26Z"/>
</svg>