<?xml version="1.0" encoding="UTF-8"?>
<svg id="Calque_1" data-name="Calque 1" xmlns="http://www.w3.org/2000/svg" viewBox="0 0 1024 1024">
  <defs>
    <style>
      .cls-1 {
        stroke-width: 0px;
      }
    </style>
  </defs>
  <path class="cls-1" d="m599.83,593.36c3.01-41.66-1.3-84.66-1.71-126.47-.46-46.94-.56-93.89-.82-140.84-.12-22.49.37-44.6-3.39-66.84-3.51-20.73-10.87-38.74-1.11-58.09,7.6-15.09,18.73-25.28,29.97-37.33,10.88-11.66,19.29-34.11,34.92-28.29,7.72,2.87,17.54,19.8,23.89,26.32,6.78,6.95,13.65,13.82,20.49,20.72,9.86,9.93,31.89,23.82,26.62,39.14-2.32,6.75-14.4,15.47-18.46,22.69-4,7.12-7.83,14.99-11.35,22.38-9.22,19.37-10.12,40.23-11.1,61.44-4.46,96.96,1.47,195.52,3.31,292.55,1.06,56.03,2.98,112.11,3.21,168.15.08,18.51-3.37,42.08,5.02,59.19,9.01,18.39,28.4,27.22,42.05,40.85-42.09,5.31-95.9-34.36-125.98-60.01-8.8-7.51-10.5-17.62-17.96-25.11-8.88-8.92-19.93-4.92-31.33-4.95-21.76-.05-46.61-7.62-63.63-21.17-36.45-29.02-68.55-69.49-111.9-87.28-23.48-9.64-38.78-26.15-53.93-46.55-14.11-19-22.32-43.99-49.63-46.47-1.93-15.75,38.11-13.88,48.34-19.78,15.96-9.2,30.92-23.29,44.45-35.63,15.92-14.52,17.55-24.93-.66-39.73-16.6-13.5-37.27-20.59-53.52-35.04-36.83-32.74-50.24-73.43-39.26-121.95,9.85-43.55,53.38-86.1,89.39-110.38,19.61-13.22,29.65.8,44.98,14.71,11.26,10.22,33.24,45.38,42.01,21.14,8.37-23.13,8.81-35.43,28.04-53.6,10.23-9.66,38.18-38.88,52.79-39.56,15.1-.7,30.44,26.74,34.83,38.42,8.47,22.53,1.99,35.54-6.38,56.9-17.59,44.91-7.23,94.51-27.92,138.31-10.16,21.51-23.77,40.23-39.02,58.2-10.32,12.16-37.81,32.79-19.36,48.14,6.78,5.64,22.13,7.32,30.44,10.93,11.47,4.98,22.26,10.39,31.47,18.95,16.96,15.76,29.48,37.94,52.2,45.93Zm-117.32,122.73c38.15-6.95,83.68-16.85,104.41-54.84,28.06-51.42-36.58-60.34-70.99-57.48-35.5,2.96-72.67,26.05-92.48,55.95-24.89,37.57,29.09,56.05,59.07,56.36Zm-37.06-379.25c.66-19.94-28.84-39.26-39.04-54.82-9.28-14.15-20.81-41.05-38.41-18.79-12.44,15.74.96,32.89,5.56,49.43,5.76,20.74,3.42,42.26-2.81,62.79-5.25,17.3-28.92,42.32-19.4,60.39,5.36,10.19,21.18,16.77,30.05,8.06,7.71-7.59,4.87-22.91,9.11-32.61,4.39-10.05,12.15-17.34,19.87-24.82,9.37-9.07,37.86-35.4,35.08-49.63Z"/>
</svg>