<?xml version="1.0" encoding="UTF-8"?>
<svg id="Calque_1" data-name="Calque 1" xmlns="http://www.w3.org/2000/svg" viewBox="0 0 1024 1024">
  <defs>
    <style>
      .cls-1 {
        stroke-width: 0px;
      }
    </style>
  </defs>
  <path class="cls-1" d="m898.76,264.32c-26.58,2.2-53.84.64-80.51.68-11.16.02-64.61-6.64-68.78,4.15-2.24,5.78,6.28,20,7.34,25.76,2.04,11,.98,22.75,1.37,33.89.23,6.52-1.47,16.95,3.97,21.5,7.38,6.18,32.52,1.31,41.81,1.87,22.79,1.37,39.63,17.92,38.88,43.17-.32,10.78,1.81,6.78-8.7,7.7-13.92,1.22-31.81-3.39-46.42-3.33-60.56.24-121.12.82-181.69,1.22-13.94.09-28.23.94-42.15.08-4.98-.31-9.83-.07-14.61-1.73-4.48-1.55-8.21-7.36-12.51-7.73-21.4-1.83-16.76,38.7-15.36,52.58,4.57,45.56,25.74,78.87,53.75,112.4,33.17,39.69,75.77,59.39,127.62,54.51,24.73-2.32,46.22-7.91,54.59-33.44,6.77-20.65,5.73-52.81-2.39-72.92-9.09-22.5-31.54-34.28-55.3-28.5-22.98,5.59-25.62,26.06-40.36,41.6-33.66,35.5-99.74-36-97.74-72.36,57.4,11.51,116.55-3.84,173.68,5.95,54.67,9.37,69.66,83,53.1,127.41-14.49,38.86-36.3,78.96-71.79,102.49-39.87,26.43-106.61,15.07-124.86-32.6-28.86-1.27-35.93,75.89-24.51,93.98,10.92,17.29,29.57,17.65,47.72,15.83,23.93-2.39,48.6-4.29,72.42-7.6,45.22-6.28,81.98-27.77,112.77-61.3,29.96-32.63,36.59-86.6,48.16-128.11,23.9-4.54,9.36,57.09,7.81,68.71-3.62,27.16-6.89,62.26-18.05,87.3-22.52,50.54-59.29,96.94-114.09,111.25-55.2,14.41-123.21,38.18-171.29-5.12-19.2-17.29-40.89-41.64-42.74-68.75-1.81-26.45,16.05-60.18,29.9-82.08,11.06-17.49,45.22-45.29,44.94-66.37-.13-9.65-11.47-23.49-21.93-24.74-13.44-1.6-28.67,15.56-36.26,24.57-15.7,18.64-25.05,43.9-40.88,61.34-17.37,19.14-56.25,27.73-80.75,31.15-28.07,3.91-51.18-12.03-70.97-30.49-24.21-22.59-26.36-52.78-27.69-84.19-2.84-67.09,5.74-134.07,3.77-201.15-.49-16.79-1.17-33.6-2.14-50.37-1.11-19.16,3.73-39.09,2.67-57.41-.61-10.49,1.29-9.24-8.24-12.98-13.7-5.38-40.44-.66-54.46-.76-17.78-.12-35.56-.23-53.34-.33-6.1-.04-43.21,4.32-48.08-.35-2.68-2.56-2.83-29.44-4.84-37.72-4.04-16.61-10.82-29.01-17.33-44.54,14.47-5.16,33.56-1.63,48.78-1.56,18.31.09,36.63.1,54.94.15,36.63.1,73.25.2,109.88.29,73.08.18,146.16.32,219.25.38,70.86.06,141.73.07,212.59.08,17.21,0,34.43.06,51.64-.05,9.35-.06,26.88-3.51,35.1,2.62,9.22,6.87,13.96,28.25,18.97,38.3,7.3,14.66,15.12,30.75,24.28,44.28-.32.46-.64.91-.95,1.37Zm-356.91.45v-.1c-27.46,0-54.91-.05-82.37-.43-14.2-.2-60.74-8.5-71.43.56-10.39,8.8-3.47,43-3.46,55.95.02,26.21-.17,52.42-.31,78.64-.25,47.04-3.11,94.97-.74,141.94,2,39.44,17.78,64.85,60.11,60.48,32.93-3.4,71.14-25.12,64.42-61.87-3.28-17.92-12.58-34.17-14.69-52.16-2.41-20.57-2.34-43.61-1.77-64.35.53-19.13,5.3-44.02,17.79-59.32,13.19-16.15,34.23-15.21,53.45-15.07,22.8.17,45.61.3,68.41.5,12.6.11,52.17,6.86,62.43-2.4,10.94-9.87,5.45-41.06,5.53-54.78.09-17.08,3.17-24.02-13.57-27.59-21.71-4.63-49.63.01-71.91.01-23.97,0-47.94,0-71.91,0Z"/>
</svg>