<?xml version="1.0" encoding="UTF-8"?>
<svg id="Calque_1" data-name="Calque 1" xmlns="http://www.w3.org/2000/svg" viewBox="0 0 1024 1024">
  <defs>
    <style>
      .cls-1 {
        stroke-width: 0px;
      }
    </style>
  </defs>
  <path class="cls-1" d="m725.82,839.81c-12.81-4.81-26.43-3.66-38.63-10.23-11.86-6.38-22.33-17.28-32.82-25.69-9.96-7.98-24.67-16.14-31.96-26.79-8.24-12.03-6.83-28.3-6.98-42.24-.39-36.24-.24-72.49-.35-108.73-.04-14.81,9.61-81.02-24.94-66.07-17.78-3.99-36.95-1.16-55.04-2.93-15.68-1.54-22.04-5.03-35.41-13.68-7.45-4.82-33.11-23.24-42.16-19.04-12.05,5.59,12.45,28.06,18.39,34.92,42.47,49.09,99.94,134.23,39.33,193.44-53.71,52.46-136.88,13.73-180.21-35.75-23.05-26.32-38.57-49.25-37.2-85.75,1.33-35.49,11.18-67.91,31.01-97.13,19.26-28.37,41.54-51.82,76.82-53.15,18.59-.7,19.59-2.27,20-21.26.39-18.2,3.95-38.86-.07-56.74-7.31-32.43-36.55-61.54-53.77-89.14-16.96-27.17-50.56-57.23-22.99-86.35,12.05-12.73,26.78-25.44,40.89-35.81,13.5-9.92,17.89-9.91,32.08-.47,15.49,10.3,28.72,24.07,44.76,33.48,20.47,12.02,38.96,10.89,61.67,11.66,17.69.6,29.23,6.69,45.36,13.65,18.23,7.86,37.36,8.67,56.27,14.3,10.87,3.23,37.63,6.76,44.31,16.93,6.35,9.66,1.6,29.4,4.46,40.58,5.36,20.92,17.55,38.99,22.04,60.39,4.73,22.54,3.95,46.04,3.27,68.93-1.28,43.14-2.84,85.84-2.22,129.03.67,46.6.7,93.21.99,139.82.22,35.25-12.9,100.1,23.55,118.86-.15.32-.29.64-.44.96Zm-113.16-459.56c.43,0,.85,0,1.28,0,0-13.01,3.97-34.58-13.3-35.13-14.41-.46-32.06,16.68-41.59,25.44-23.5,21.61-49.14,74.64-33.2,106.42,7.69,15.34,24.81,16.36,40.31,18.26,7.53.92,15.56-1.29,22.85-.14,5.22.82,10.47,7.89,16.07,5.81,12.96-4.8,7.39-35.31,7.47-45.23.19-25.14.11-50.29.11-75.43Zm-232.55,322.98c-1.55,20.88,25.79,1.89,30.32-2.25,10.26-9.38,19.46-22.02,26.44-33.99,8.46-14.51,32.82-58.72,22.86-74.42-17.16-27.04-50.95,16.97-61.01,29.96-20.17,26.06-20.13,49.11-18.61,80.7Z"/>
</svg>