<?xml version="1.0" encoding="UTF-8"?>
<svg id="Calque_1" data-name="Calque 1" xmlns="http://www.w3.org/2000/svg" viewBox="0 0 1024 1024">
  <defs>
    <style>
      .cls-1 {
        stroke-width: 0px;
      }
    </style>
  </defs>
  <path class="cls-1" d="m406.97,694.08c12.23-15.06,4.09-63.57,4.09-82.85.01-32.7-1.96-65.32-1.39-98.03,1.13-64.09.87-128.14.85-192.24,0-13.36-1.23-26.72-1.24-40.03,0-8.47,6.98-29.76,2.63-37.36-6.72-11.73-48.65-4.99-62.51-5.23-61.64-1.04-125.88,2.85-187.15-3.7,12.29-20.26,18.87-57.56,13.15-80.74,7.9-6.16,24.22-2.09,33.28-1.95,16.43.25,32.86.16,49.29.18,31.42.03,62.83.06,94.25.09,62.83.05,125.66.11,188.49.15s125.66.09,188.49.13c30.41.02,60.81,0,91.22-.08,8-.02,28.59-3.53,36.1.68,9.51,5.33,3.7,8.56.37,20.32-3.9,13.74-6.09,55.66-16.83,63.25-5.55,3.92-27.03,1.24-33.56,1.31-16.4.19-32.79.28-49.19.43-61.94.53-123.88,1.06-185.83,1.54-28.35.22-58.83-3.1-86.97-.49-8.14.75-11.1-1.71-13.57,6.17-1.13,3.6,3.46,10.26,4.28,14.44,1.73,8.74,1.36,17.64,1.36,26.5,0,62.51-.66,125.02-.83,187.53-.36,132.31,5.27,266.68-4.32,398.63-.62.25-1.24.5-1.86.75-8.6-10.13-14.95-20.24-25.14-28.92-9.12-7.76-24.23-13.63-29.67-24.94-6-12.48-2.99-31.38-3.48-44.91-.29-8,2.72-32.19-2.35-38.16-2.15-2.53-1.84.02-3.8-.74-1.94,1.13-3.89,2.26-5.83,3.39-4.01-.51-7.8-1.69-11.38-3.53-12.83-3.53-27.39-10.61-38.86-17.12-21.93-12.44-43.2-33.45-54.94-55.82-13.04-24.85-15-52.51-14.11-80.22.84-26.14,16.16-29.14,30.77-8.94,17.3,23.92,31.21,50.31,47.44,74.92,13.99,21.21,38.85,22.57,48.71,45.6Z"/>
  <path class="cls-1" d="m816.11,353.19c0,69.54-22.55,124.81-69.06,176.85-17.25,19.31-37.41,37.13-58.25,52.43-12.57,9.23-26.26,15.07-41.41,18.52-8.76,2-36.21,10.14-43.97,5.53-23.17-13.74,70.4-111.98,83.39-127.4,19.48-23.12,39.64-45.23,61.74-65.93,21.38-20.02,48.97-36.5,66.24-60.26.44.08.88.17,1.31.25Z"/>
</svg>