<?xml version="1.0" encoding="UTF-8"?>
<svg id="Calque_1" data-name="Calque 1" xmlns="http://www.w3.org/2000/svg" viewBox="0 0 1024 1024">
  <defs>
    <style>
      .cls-1 {
        stroke-width: 0px;
      }
    </style>
  </defs>
  <path class="cls-1" d="m247.06,375.92c-13.66-12.21-27.04-24.78-41.26-36.35-8.97-7.3-23.91-14.38-29.57-24.48-5.6-9.99-4.32-29.9-6.2-41.01-3.02-17.83-7.54-35.18-17.62-50.43-5.09-7.7-22-18.58-17.77-28.5,3.25-7.6,37.84-9.14,45.35-11.41,29.16-8.81,63.27.97,93.94,2.05,154.78,5.42,310.26,2.08,465.14,2.72,36.13.15,72.25.27,108.38.45,6.47.03,28.66-3.71,34.47,2.18,1.86,1.88,3.12,33.32,4.22,39.91,2.05,12.34,8.25,28.76-1.16,36.12-7.55,5.91-44.94-.02-55.12-.08-16.42-.09-32.82-1.15-49.22-1.31-19.36-.19-26.54-2.18-27.74,16.83-.97,15.3.96,31.56,1.09,46.98.08,9.21-4.44,40.76,3.97,47.39,6.26,4.93,22.22-1.41,30.73-1.02,17.37.8,34.79,5.36,52.21,4.8,5.44-.17,25.85-7.2,29.64-1.25,4.31,6.76-11.64,28.1-14.84,34.09-13.57,25.41-40.38,57.39-73.69,54.85-14.43-1.1-23.53-14.24-36.06-19.56-13.08-5.55-30.86-7.49-44.86-8.53-37.61-2.78-76.26-.58-113.94-.45-35.01.12-53.65,1.71-48.33,42.53,2.93,22.49,20.06,55.34,41.57,65.11,25.2,11.45,64.78-17.29,88.35-24.2,28.62-8.39,71.02-15.36,97.99,1.42,62.11,38.65,74.68,119.92,51.95,185.28-18.28,52.58-74.63,97.61-125.47,115.91-58.33,20.99-134.43,33.98-178.29-22.09-23.52-30.06-20.27-61.5-12.22-96.09,7.89-33.91,24.73-57.07,43.44-85.76,5.54-8.5,17.23-22.55,14.33-33.88-2.96-11.55-27.67-19-36.05-28.05-21.65-23.39-31.38-61.7-30.62-92.94.75-30.95,15.07-75.19,40.17-94.82,25.2-19.71,75.69-8.52,106.21-8.01,8.2.14,41.11,6.26,47.35-.25,7.65-7.98,2.12-46.31,2.4-57.59.29-11.49,7.18-35.69.35-42.78-7.32-7.59-43.65-1.78-53.51-1.87-87.05-.76-174.09-.21-261.14.55-22.07.19-44.14.34-66.21.59-11.63.13-44.55-5.36-53.53,4.29-7.78,8.36-3.68,32.48-3.97,43.37-.58,21.33.58,43.41-2.52,64.53-.76.26-1.52.51-2.29.77Zm313.3,309.01c4.5,28.71,8.35,53.4,34.05,70.87,23.65,16.07,54.5,21.81,82.65,21.05,31.22-.84,44.6-12.48,62.6-36.62,15.93-21.36,32.22-42.67,34.34-70.22,9.38-122.07-208.14-87.85-213.64,14.92Z"/>
  <path class="cls-1" d="m430.05,668.18c-17.01,0-34.49,2.78-49.92-6.06-13.76-7.88-23.55-22.46-35.48-32.71-11.63-9.99-28.71-17.57-35.09-32.15-6.4-14.61-4.43-35.68-5.16-51.21-2-42.68-1.96-85.43-1.6-128.15.11-13.66-4.66-42.89,7.03-53.71,12.12-11.22,37.15-4.46,48.8,3.08,30.45,19.69,24.45,67.64,26.96,99.39,3.07,38.94,1.9,82.74,13.83,120.16,13.01,40.81,36.51,43.95,73.94,52.42,14.29,3.24,21.42,9.62,6.5,21.77-12.25,9.97-35.1,7.34-49.79,8.3,0-.38-.02-.77-.03-1.15Z"/>
</svg>