<?xml version="1.0" encoding="UTF-8"?>
<svg id="Calque_1" data-name="Calque 1" xmlns="http://www.w3.org/2000/svg" viewBox="0 0 1024 1024">
  <defs>
    <style>
      .cls-1 {
        stroke-width: 0px;
      }
    </style>
  </defs>
  <path class="cls-1" d="m582.08,215.46c1.04,17.5,5.37,25.58,15.3,41.01,3.85,5.98,8.75,11.97,11.28,18.58,1.82,4.77.75,15.46,3.64,18.42,12.45,12.75,46.86-33.68,57.27-43.94,10.81,6.29,9.9,30.62,9.51,41.69-.53,15.13-5.34,27.83-15.29,38.88-19.38,21.53-48.01,35.15-63.58,59.64,28.15,11.67,52.91,21.66,77.86,40.19,24.53,18.22,59.19,41.52,53.51,76.49-4.73,29.13-32.34,57.4-55.25,73.78-15.55,11.12-31.85,21.27-47.84,31.73-15.51,10.15-34.74,27.85-53.03,30.91,14.43-33.75,74.63-42.16,52.45-91.33-7.47-16.57-25.89-29.87-38.37-42.52-15.28-15.5-28.74-30.31-48.68-39.68-7.97,24.51,3.68,51.77,7.85,76.37,4.2,24.74,5.45,49.34,7.44,74.3,3.35,41.94-2.71,85.07-7.83,127.7-1.33,11.06-1.49,26.55-7.59,36.23-3.87,6.13-11.57,9.6-16.47,14.85-14.73,15.79-24.97,32.15-42.41,45.6-14.44,11.14-23.58,16.93-26.35-8.05-2.77-24.96,3.06-53.05,5.03-78.02,3.97-50.21-.81-98.63-3.94-148.63-.79-12.72,5.1-67.92-9.14-71.28-23.21-5.47-24.98,39.64-25.83,51.5-3.37,46.76-.69,93.84-31.27,132.06-11.24,14.04-79.71,79.69-98.57,64.64-.47-.37,27.98-33.68,29.8-37.02,10.85-19.91,13.54-43.65,13.58-65.91.05-23.95-3.9-46.22-7.77-69.74-3.02-18.4-12.04-40.04-12.84-58.13-1.73-38.75,43.96-74.96,69.37-98.14,14.12-12.88,30.9-22.68,25.94-44.11-4.16-18-22.11-35.14-32.71-49.72-23.25-31.96-44.49-65.49-66.29-98.58-13.48-20.46-1.07-27.02,14.09-44.2,12.67-14.36,24.61-31.61,38.56-44.63,28.84-26.94,67.03,40.16,90.12,56.49,19.47,13.77,41.99,11.57,64.87,10.84,30.17-.96,41.19-9.36,63.56-28.28Z"/>
</svg>