<?xml version="1.0" encoding="UTF-8"?>
<svg id="Calque_1" data-name="Calque 1" xmlns="http://www.w3.org/2000/svg" viewBox="0 0 1024 1024">
  <defs>
    <style>
      .cls-1 {
        stroke-width: 0px;
      }
    </style>
  </defs>
  <path class="cls-1" d="m713.28,843.23c-17.16-10.7-33.54-34.46-45.26-50.37-8.31-11.28-19.29-19.82-28.62-30.53-12.45-14.29-22.76-30.87-35.72-44.59-23.13-24.49-66.08-26.92-97.28-34.87-19.06-4.86-37.29-11.69-57.21-11.62-19.03.06-28.02,2.58-45.5-6.2-16.17-8.13-32.96-17.2-47.31-28.3-15.88-12.28-17.35-22.79-18.86-42.42-3.27-42.52-3.83-85.18-4.38-127.81-.52-40.09-1.59-79.9-4.77-119.87-3.37-42.41-15.16-58.25-47.78-84.39,21.97-24.52,45.92-50.38,69.84-73.04,12.87-12.2,17.15-10.77,29.24,1.53,13.31,13.53,27.4,27.19,38.5,42.66,6.22,8.68,21.84,30.25,20.62,41.61-1.31,12.24-14.38,21.56-16.06,36.37-4.72,41.67-1.14,86.72-.05,128.63,1.66,63.89,15.12,173.74,100.21,175.49,38.21.78,67.35-24.85,89.59-53.76,23.69-30.81,21.51-61.6-3.2-91.15-42.3-50.57-135.12-61.63-155.22-131.42-7.92-27.51,11.84-60.03,38.49-69.07,31.27-10.6,66.04,1.27,95.72-13.6,16.14-8.09,26.63-20.8,40.87-30.92,16.04-11.4,24.6-2.94,39.23,7.74,13.1,9.56,23.87,21.24,35.77,32.14,9.37,8.59,30.68,15.85,33.81,28.17,8.16,32.15-60.87,47.96-65.31,75.8-1.93,12.11,15.81,22.8,23.39,32,11.51,13.97,23.53,28.89,32.3,44.75,46.55,84.15-23.57,168.18-89.53,213.52-9.3,6.39-31.31,19.3-31.61,31.99-.33,14.04,24.66,34.65,33.57,44.84,13.29,15.19,25.54,31.52,36.46,48.5,11.85,18.42,28.6,37.61,37.44,57.33-.46.29-.92.58-1.39.87Z"/>
</svg>