<?xml version="1.0" encoding="UTF-8"?>
<svg id="Calque_1" data-name="Calque 1" xmlns="http://www.w3.org/2000/svg" viewBox="0 0 1024 1024">
  <defs>
    <style>
      .cls-1 {
        stroke-width: 0px;
      }
    </style>
  </defs>
  <path class="cls-1" d="m602.73,495.38c0-79.22-.52-158.42-1.3-237.64-.09-9.38,3.96-30.73-4.95-37.8-8.04-6.38-26.23-2.68-35.86-2.81-41.52-.54-82.94-1.19-124.4-3.37-37.29-1.96-74.8-1.25-112.12-.39-8.55.2-36.99,6.53-43.19-2.51-4.27-6.22,2.11-28.98,3.66-36.1,5.19-23.86,10.03-21.32,33.48-21.13,18.01.14,36.02.13,54.03.45,42.45.77,84.79,3.65,127.27,3.91,73.15.45,147.51,3.04,220.58.21,14.05-.55,23.43-6.18,24.6,8.93.43,5.45-17.52,40.46-21.23,44.89-13.53,16.18-29.13,5.23-47.2,11.88-16.77,6.17-12.08,16.86-11.65,34.48,4.04,165.91-.84,331.94,3.39,497.88.59,22.98,1.32,45.96,2.03,68.94.31,9.85,7.33,46.8-5.64,45.27-10.27-1.22-27.5-35.73-33.43-44.39-13.37-19.55-26.36-34.91-28.49-58.9-7.91-89.17.81-182.26.81-271.81-.13,0-.26,0-.39,0Z"/>
  <path class="cls-1" d="m584.99,461.69c14.04-9.98,10.65,8.25,10.49,17.81-.46.02-.92.05-1.37.07-3.97-4.48-7.93-8.96-11.72-13.23-.1.42-.34,1.48-.9,3.88-3.16-7.32-17.92-3.15-25.29-2.54-21.66,1.79-38.43,2.89-56.17,15.67-32.34,23.32-66.85,54.79-110.03,38.28-73.1-27.94-107.29-151.72-50.33-207.16,28.84-28.07,58.02-53.18,100.28-54.2,10.68-.26,51.34,5.93,57.31,18.12,8.09,16.5-16.96,22.42-28.18,22.89-20.48.85-41.3-7.98-61.55-1-18.07,6.23-39.25,16.45-53.67,29.25-33.17,29.43-13.13,70.08,7.52,102.24,15.85,24.67,27.85,27.94,56.24,26.04,24.65-1.65,43.02-8.15,65.53-17.63,19.2-8.08,35.28-22.49,54.54-11.26,15.68,9.14,29.72,28.49,47.28,32.78Z"/>
  <path class="cls-1" d="m535.22,720.91c-16.01-5.3-64-77.22-35.16-84.57,18.22-4.64,10.86,21.18,12.27,31.17,2.71,19.23,13.77,36.76,22.89,53.4Z"/>
</svg>