<?xml version="1.0" encoding="UTF-8"?>
<svg id="Calque_1" data-name="Calque 1" xmlns="http://www.w3.org/2000/svg" viewBox="0 0 1024 1024">
  <defs>
    <style>
      .cls-1 {
        stroke-width: 0px;
      }
    </style>
  </defs>
  <path class="cls-1" d="m573.84,661.39c-20.75-5.91-37.18-20.38-55.68-31.12-14.95-8.68-28.23-25.05-46.79-24.75-7,.11-18.84,9.59-24.52,1.42-5.93-8.52,12.27-16.52,17.19-18.74,11.26-5.05,23.95-4.44,34.17-12.14,9.81-7.39,21.83-23.55,26.02-35.38,4.22-11.9,1.43-24.5,1.8-36.84.48-15.84,3.11-31.32,6.48-46.77,6.08-27.89,14.91-55.36,19.85-83.44,5.51-31.33,2.98-38.63-24.11-53.06-24.67-13.13-42.31-29.35-61.52-49.16-18.97-19.56-22-33.38-5.16-56.02,12.5-16.8,40.49-50.69,62.5-54.24,26.9-4.34,34.9,32.82,56.06,39.06,20.46,6.04,45.65-21.64,60.28-32.51,12.77-9.49,13.76-10.06,26.14-.06,10.78,8.72,20.46,20.03,29.81,30.24,9.85,10.75,19.48,21.75,28.57,33.15,2.71,3.41,12.64,13.93,12.97,17.1,1.07,10.19-2.4,5.79-12.27,9.14-25.97,8.8-41.78,32.56-59.72,52.13-18.05,19.69-38.9,38.08-46.26,64.65-7.82,28.22-2.89,61.1,12.3,85.93,12.52,20.46,49.49,38.26,53.27,61.95,3.76,23.58-29.78,59.14-42.44,76.32-17.6,23.89-40.92,51.51-68.96,63.13Z"/>
  <path class="cls-1" d="m309.66,868.74c17.44-12.42,35.02-22.41,39.45-44.53,5.6-27.93,4.48-58.1,4.49-86.44.02-64.42-.49-128.85-.74-193.28-.24-61.96,1.04-124.17-1.43-186.08-.83-20.9,3.04-60.28-6.75-78.98-3.2-6.1-9.75-9.45-14.35-14.52-9.18-10.12-15.21-19.65-26.34-28.55-17.87-14.29-27.51-25.5-4.9-39.85,20.42-12.96,40.12-27.45,60.88-39.88,20.81-12.46,29.93,7.29,46.25,21.51,20.72,18.05,30.03,32.99,26.44,60.94-6.9,53.72-1.7,110.05-1.87,164.31-.19,58.4-.2,116.82-.66,175.22-.28,36.02-.83,72.03-1.36,108.05-.4,27.34,5.08,62.78-6.25,88.33-9.9,22.32-29.89,48.6-47.94,65.16-10.21,9.37-49.6,36.01-64,30.41-.31-.6-.61-1.21-.92-1.81Z"/>
</svg>