<?xml version="1.0" encoding="UTF-8"?>
<svg id="Calque_1" data-name="Calque 1" xmlns="http://www.w3.org/2000/svg" viewBox="0 0 1024 1024">
  <defs>
    <style>
      .cls-1 {
        stroke-width: 0px;
      }
    </style>
  </defs>
  <path class="cls-1" d="m601.04,376.55c18.77,6.91,31.79,18.88,44.45,34.03,11.39,13.63,31.49,32.71,36.77,49.51,5.58,17.75-7.02,41.94-12.11,59-5.96,19.94-14.08,36.67-22.85,55.14-15.66,32.97-26.66,87.6-6.39,119.52,21.42,33.73,44.19,66.67,65.77,100.42,4.79,7.49,30.89,35.72,29.39,43.55-2.78,14.54-21.91,2.55-30.07-1.51-32.73-16.31-54.5-25.01-75.38-55.44-8.01-11.68-15.93-23.06-23.59-35.14-14.99-23.64-20.68-21.4-43.47-9.1-22.49,12.13-23.68,19.81-20.67,45.23,2.12,17.94,7.09,34.01,4.14,52.12-15.98-11.2-19.68-31.12-37.1-42.73-19.43-12.95-28.94-27.88-43.82-45.4-14.27-16.79-31.65-30.36-49.92-42.6-21.82-14.63-43.44-21.62-66.28-32.63-20.35-9.81-38.75-27.18-51.27-45.84-17.26-25.74-11.36-39.04,1.02-64.21,19.3-39.23,46.98-76.22,71.55-112.27,4.52-6.64,17.26-20.16,16.84-29.1-.4-8.48-8.47-12.59-14.98-17.95-20.76-17.09-42.38-32.02-57.71-54.54-7.25-10.66-26.41-51.09-14.93-63.16,5.24-5.51,26.45,1.07,33.23,1.77,14.16,1.45,18.48-.25,26.11-12.89,9.09-15.04,17.75-34.09,36.43-39.38,11.27-3.19,14.48,3.38,23.43,6.26,9.87,3.17,17.46,3.44,28.75,3.46,28.5.04,57.44-1.34,85.71-5.28,24.08-3.36,39.9-17.49,57.25-33.93,6.4-6.06,11.99-13,18.84-18.59,15.56-12.7,20.09-1.42,32.54,11.19,10.89,11.03,59.87,45.99,57.8,62.21-1.24,9.71-16.05,17.11-22.42,24.66-10.16,12.05-17.35,26.4-27.12,38.8-15.33,19.46-35.8,34.45-49.94,54.85Zm-165.58,315.84c29.75-4.99,53.62-53.26,63.4-78.4,12.73-32.72,8.06-71.26,30.98-100.16,8.21-10.35,20.19-15.1,28.6-22.88,9.57-8.85,10.9-23.98,13.85-38.19,2.6-12.55,26.57-76.8-3.77-55.84-23.83,16.46-49.1,50.77-60.24,77.37-13.78,32.92-38.57,60.6-60.19,89.02-20.31,26.7-51.41,49.61-63.26,81.85-12.65,34.43,25.03,40.78,50.63,47.22Z"/>
</svg>