<?xml version="1.0" encoding="UTF-8"?>
<svg id="Calque_1" data-name="Calque 1" xmlns="http://www.w3.org/2000/svg" viewBox="0 0 1024 1024">
  <defs>
    <style>
      .cls-1 {
        stroke-width: 0px;
      }
    </style>
  </defs>
  <path class="cls-1" d="m282.82,279.2c13.19-13.18,28.27-24.76,42.29-37.13,8.29-7.31,35.04-39.09,45.16-39.94,14.4-1.21,37.62,27.96,47.53,37.91,18.28,18.35,23.96,29.06,51.21,22.95,19.51-4.37,29.95-15.99,46.26-24.25,10.08-5.1,5.89-5.27,17.62.85,9.52,4.96,19.05,11.34,28.47,16.66,5.35,3.02,18.77,14.82,24.79,14.06,5.04-.64,10.36-11.22,13.84-14.5,15.77-14.87,33.64-23.89,48.64-40.37,17.07-18.76,24.02-10.53,41.71,4.72,12.17,10.48,48.25,36.53,50.74,53.68,1.81,12.49-22.12,16.39-31.85,26.78-13.39,14.3-19.32,32.65-22.37,51.6-7.69,47.73-3.11,97.69-3.34,145.82-.24,50.36,1.9,100.55,3.67,150.86.82,23.35,1.63,46.89-.98,70.16-1.02,9.1-1.56,21.54-8.01,28.74-7.11,7.94-14.71,6.23-24.83,9.23-15.12,4.48-31.88,16.11-43.44-1.8-10.35-16.04-9.77-50.17-10.11-68.56-.17-9.65,6.38-49.38-5.97-52.85-9.71-2.73-42.93,22.97-48.83,30.66-9.96,12.97-4.71,25.51-1.93,40.46,3.83,20.6,6.24,39.59,5.53,60.59-.42,12.45,7.21,51.25-2.72,55.62-11.46,5.05-49.57-15.81-59.04-22.02-39.47-25.85-19.24-79.01-11.18-117.29,5.24-24.91-.43-29.96-22.99-16.44-15.25,9.14-36.34,24.88-46.6,39.53-7.05,10.07-7.86,16.18-5.07,28.3.93,4.03,8.04,16.04,4.44,19.21-6.95,6.1-49.24-32.5-55.02-38.19-15.26-15.05-38.02-37.63-44.73-58.63-3.48-10.89-5-10.81,3.07-19.65,6.54-7.16,17.99-13.2,25.59-20.21,17.65-16.29,35.85-31.82,55.03-46.28,22.06-16.63,22.46-30.94,24.26-57.46,1.52-22.38,9.01-45.62,9.05-67.71.05-26.34-21.36-36.29-39.38-51.28-20.05-16.69-33.45-38.37-47.36-60.1-14.35-22.43-32.77-36.89-53.15-53.69Zm310.58,74.71c-12.73,4.76-23.47,36-29.65,47.44-12.99,24.06-20.3,50.8-31.95,75.49-10.02,21.24-69.02,84.68-24.5,93.66,20.14,4.06,42.18-7.36,61.39-13.08,22.7-6.76,23.79-16.89,24.73-39.92,2.22-53.96,2.68-109.67-.02-163.6Z"/>
</svg>