<?xml version="1.0" encoding="UTF-8"?>
<svg id="Calque_1" data-name="Calque 1" xmlns="http://www.w3.org/2000/svg" viewBox="0 0 1024 1024">
  <defs>
    <style>
      .cls-1 {
        stroke-width: 0px;
      }
    </style>
  </defs>
  <path class="cls-1" d="m368.84,365.49c-1.46-1.3-2.51-2.24-4.08-3.64,5.07-3.91,9.76-2.29,14.9-.44-6.32,14.45,76.62,15.08,84.96,15.51,16.47.85,36.33.49,52.27,5.09,16.04,4.63,27.71,17.72,40.72,27.7,11.38,8.73,22.8,17.24,36.54,21.91,19.41,6.6,18.87-.99,19.06-19.47.37-35.52-2.23-71.08-2.17-106.62.03-16.72,2.04-24.13-15.99-26.32-16.15-1.96-33.96.49-50.26.62-34.03.27-69.62-2.56-103.46,1.3-17.97,2.05-31.91,16.99-43.14,29.95-5.43,6.27-13.49,11.88-18.12,17.69-3.76,4.72-3.64,5.42-6.32,9.76-2.66,4.32.42,6.83-6.62,11.35-14.49-15.84,12.2-51.28,25.54-59.02-6.66-14.59-44.29-6.76-57.1-7.7-19.34-1.42-26.02-13.23-36.73-28.21-6.07-8.49-33.17-40.58-30.03-50.85,2.86-9.35,50.73-3.46,60.38-3.41,105.74.51,211.51-.28,317.25-.46,24.16-.04,48.32-.21,72.47-.12,6.79.03,19.75-2.07,26.08,1.12,7.01,3.53,10.44,13.97,14.47,21.06,5.07,8.93,32.23,43.1,29.89,53.2-1.6,6.9-43.64,2.02-52.53,2.3-8.63.27-59.07-3.51-63.99,1.56-6.08,6.27,8.12,37.43,8.47,49.08,1.49,49.47-.66,99.3-.52,148.8.16,57.69.42,115.39.49,173.08.03,29.57.03,59.13.02,88.7,0,26.77,4.99,60.39-2.77,86.13-24.78-9.12-51.31-50.5-61.37-74.58-14.09-33.73-6.64-81.65-6.3-117.68.31-33.28,8.46-76.66.8-109.04-6.56-27.75-59.23-31.48-82.37-42.47-32.42-15.4-66.15-11.68-100.73-18.51-35.2-6.94-74.9.95-109.07-9.74-14.66-4.58-12.98-9.64-18.92-24.34-5.73-14.19-13.04-31.3-13.74-47.02-.94-21.12,10.94-14,27.39-12.8,15.85,1.16,40.2,4.43,54.63-3.49Z"/>
  <path class="cls-1" d="m234.52,755.03c6.42-40.78,20.09-74.41,35.13-112.72,12.82-32.65,23.26-67.99,51.37-91.19,16.67-13.76,29.38-13.92,50.64-14.25,18.49-.29,41.15-4.2,58.68,2.91,32.1,13.02,54.05,42.85,63.62,74.87,21.66,72.49-25.12,145.61-94.96,169.69-32.03,11.04-66.1,21.01-99.64,26.12-36.55,5.57-61.65-18.77-63.85-55.22-.33-.07-.65-.14-.98-.21Zm211.48-69.53c-.16-.02-.32-.03-.48-.05,0-36.46-34.55-64.4-63.14-82.38-14.82-9.33-37.25-25.49-54.27-16.54-16.53,8.7-20.23,28.74-20.97,45.64-1.71,39.49,18.97,84.27,61.99,91.21,37.64,6.07,71.54,7.74,76.86-37.87Z"/>
</svg>