<?xml version="1.0" encoding="UTF-8"?>
<svg id="Calque_1" data-name="Calque 1" xmlns="http://www.w3.org/2000/svg" viewBox="0 0 1024 1024">
  <defs>
    <style>
      .cls-1 {
        stroke-width: 0px;
      }
    </style>
  </defs>
  <path class="cls-1" d="m288.18,780.6c3.26-22.39,25.32-36.55,40.71-50.81,18.11-16.79,38.84-31,54.85-49.98,17.24-20.43,13.78-30.93-3.14-49.1-16.39-17.6-24.69-38.49-39.03-57.14-2.62-3.41-19.42-14.93-19.85-18.84-.52-4.77,9.8-15.74,12.34-20.85,11.97-24.01,23.39-47.14,39.04-69.23,19.23-27.14,88.23-74.71,65.06-110.31-11.62-17.86-32.69-31.74-48.35-45.83-8.69-7.81-47.19-33.2-44.81-47.87.66-4.06,14.91-13.22,17.9-17.25,5.45-7.34,9.82-16.39,14.8-24.16,9.36-14.59,25.29-42.94,44.65-42.54,16.86.35,38.06,21.29,53.67,27.91,23.8,10.09,51.91,12.68,77.42,9.52,12.03-1.49,21.5-4.26,32.31-9.52,13.82-6.72,13.29-9.11,22.49,4.97,11.27,17.23,27.08,41.4,24.99,62.51,13.14,16.01,46.38-32.66,54.63-41.78,19.02.24,9.87,60.68,4.24,70.7-14.87,26.48-52.28,42.52-73.9,63.55-5.58,5.43-20.98,19.7-18.44,29.12,2.16,8,23.69,14.82,30.79,19.73,27.04,18.72,51.97,40.97,72.45,66.73,14.62,18.39,46.71,46.76,26.09,69.41-8.54,9.37-24.25,17.59-34.05,25.99-10.31,8.83-28.1,32.75-41.55,29.15-23.82-6.38-43.07-52.69-59.27-69.28-6.36-6.51-15.32-18.16-20.89-8.39-6.59,11.56,5.32,49.72,6.14,62.37,2.36,36.4-.85,73.42-.88,109.9-.02,30.51,8.77,72.91-8.05,100.76-12.87,21.31-38.21,31.29-59.59,40.95-7.76,3.51-18.28,11.45-23.73,1.52-1.14-2.08,5.55-15.37,5.89-18.58.85-7.98-1.88-17.53-3.13-25.23-11.99-73.85-3.02-151.31-2.65-225.93.14-28.25,8.11-66.53-.36-93.47-6.44-20.47-50.86-54.89-60.62-18.68-3.98,14.74,11.49,33.25,17.94,45.11,7.92,14.58,18.76,29.38,20.04,46.33,2.39,31.58-23.76,70.77-37.63,97.84-16.92,33.04-35.38,57.09-63.74,80.97-22.76,19.16-50.35,32.54-74.78,49.74Z"/>
</svg>