<?xml version="1.0" encoding="UTF-8"?>
<svg id="Calque_1" data-name="Calque 1" xmlns="http://www.w3.org/2000/svg" viewBox="0 0 1024 1024">
  <defs>
    <style>
      .cls-1 {
        stroke-width: 0px;
      }
    </style>
  </defs>
  <path class="cls-1" d="m430.07,508.5c-17.97-15.93-36.06-23.98-57.34-34.96-12.49-6.44-24.23-14.27-36.87-20.46-10.47-5.13-32.25-7.18-40.11-14.91-33.04-32.48,63.21-72.24,82.22-80.6,24.03-10.56,51.95-7.5,77.86-7.98,31.88-.59,63.9-.73,95.69-3.42,26-2.2,52.78-7.01,78.93-5.47,28.53,1.68,41.43,19.53,58.43,40.4,10.83,13.3,25.25,45.28,27.64,10.42,2.23-32.45.12-65.92.06-98.45-.04-17.4,6.21-45.68-12.28-53.17-11.22-4.55-31.11-1.37-42.72-1.69-15.47-.43-30.95-.92-46.42-1.04-64.92-.49-130.41,1.73-195.12,6.86-26.79,2.12-53.59,3.65-80.44,4.9-14.42.67-30.17-.38-44.34,1.89-15.43,2.47-15,5.67-16.48,21.6-6.37,68.81,1.38,139,.06,207.97-.31,16.3,1.02,34.16-3.53,49.98-4.32,15.01-10.41,14.51-22.69,22.22-20.19,12.67-32.02,30.16-47.41,46.93-.49-.12-.98-.25-1.46-.37-8.8-31.25-6.1-63.48-6.1-95.73,0-39.03-.05-78.07.34-117.1.35-34.61.72-69.27,2.97-103.8,1.02-15.71,1.3-16.6-8.88-27.7-9.76-10.63-17.2-22.65-26.76-33.66-8.57-9.87-45.94-35.56-27.34-47.51,7.44-4.78,35.04.83,44.42.73,18.42-.2,36.85-.48,55.27-.65,74.63-.72,149.26-.76,223.9-.62,76.38.14,152.76.3,229.14.46,34.47.07,68.94.15,103.41.15,14.87,0,32.85-2.91,47.42-.26,15.87,2.88,25.28,16.48,33.76,30.19,4.92,7.94,14.3,24.3,14.84,33.54.65,11.15,4.96,8.14-11.99,8.16-36.56.04-73.54-2.58-109.87-4.6-12.75-.71-13.1-3.79-8.62,11.47,3.35,11.4,11.36,21.05,14.55,32.65,9.09,33.05,3.48,74.43,3.6,108.49.28,80.53,1.02,161.05,2.58,241.57.79,40.44.61,80.98,2.09,121.39.65,17.92,1.35,36.33,11.86,51.69,7.3,10.67,30.33,23.08,29.94,36.83-14.48-8.86-29.38-16.48-44.14-24.73-12.91-7.22-26.66-23.24-42.2-23.48-16.46-.26-30.76,14.75-42.64,24.51-14.04,11.54-27.05,19.22-44.52,24.49-60.55,18.26-138.54-3.32-190.75-36.77-56.07-35.92-97.59-88.34-111.9-153.63-7.26-33.1-6.46-65.45,11.54-95,12.61-20.71,46.92-46.75,70.37-51.72Zm278.78,43.01c-34.45,7.67-64.98,23.41-100.2,29.34-39.92,6.72-79,5.5-119.33,4.86-29.2-.47-77.21-8.14-88.78,26.68-12.8,38.51,2.35,76.22,25.65,106.46,43,55.79,150.42,53.01,208.17,23.15,29.29-15.15,55.79-42.02,68.99-72.39,13.48-31.02,16.72-86.6,5.5-118.1Zm-274.49-51.85c.07.82.14,1.64.21,2.46,24.68,8.58,51.82,6.24,77.65,6.72,28.17.53,56.37,1.18,84.54.93,20.15-.18,43.55-.13,58.71-15.07,14.24-14.03,24.11-34.86,13.06-53.71-22.31-38.06-109.94-28.41-142.37-13.01-18.93,8.99-39.81,21.72-55.23,35.87-10.41,9.55-20.07,37.22-36.57,35.82Z"/>
</svg>