<?xml version="1.0" encoding="UTF-8"?>
<svg id="Calque_1" data-name="Calque 1" xmlns="http://www.w3.org/2000/svg" viewBox="0 0 1024 1024">
  <defs>
    <style>
      .cls-1 {
        stroke-width: 0px;
      }
    </style>
  </defs>
  <path class="cls-1" d="m534.72,772.91c-27.1-22.11-59.7-21.56-88.35-40.19-31.28-20.34-51.7-52.18-85.33-68.89-32.82-16.31-55.81-38.88-68.56-73.21-13.17-35.47,19.23-65.59,38-93.79,10.14-15.22,20.29-28.83,31.29-43.5,9.16-12.22,23.49-26.83,23-43.19-.81-26.98-43.4-63.14-60.76-82.79-12.13-13.74-20.17-28.48-28.89-44.54-12.47-22.99-.03-20.37,19.72-32.04,11.95-7.06,24.33-15.97,34.4-25.49,10.05-9.5,23.55-34.92,37.75-32.98,15.3,2.1,34.26,28.2,47.98,36.07,21.19,12.17,42.83,11.88,66.61,10.68,24.27-1.22,42.8-4.01,61.41-20.37,15.15-13.32,29.7-27.51,45.78-39.45,4.11,21.17-21.3,29.49-11.65,54.11,2.89,7.37,8.86,12.93,12.02,20.06,1.71,3.86,2.04,24.18,4.53,25.6,16.96,9.72,65.74-77.18,58.2-13.47-2.15,18.17-7.49,36.06-20.09,49.77-8.93,9.72-40.16,24.85-33.51,40.1,2.57,5.89,13.4,10.27,17.95,14.84,7.28,7.31,13.01,16.72,18.37,25.5,9.13,14.92,20.18,34.07,20.48,52.09.35,20.8-7.42,42.98-7.93,64.33-.58,24.23.21,48.52,1,72.74,1.63,49.71,5.82,99.08,8.8,148.67,1.13,18.84,3,37.09,13.32,53.6,10.76,17.23,28.38,28.58,40.08,44.2,10.83,14.46-.76,15.76-16.25,10.76-14.19-4.58-30.38-14.05-43.16-22.02-18.17-11.32-35.52-25.82-52.19-39.35-16.68-13.54-33.99-24.7-39.43-46.58-1.26-5.08-.26-25.06-4.85-27.49-4.47-2.37-15.74,6.43-19.01,8.45-30.77,19.02-22.28,24.77-19.5,56.93-.42.28-.83.56-1.25.84Zm31.98-192.4c9.69-16.32,2.4-47.69,2.03-65.88-.49-24.14-.85-48.28,1.35-72.35,1.02-11.21,13.9-57.12,7.64-65.59-8.2-11.09-25.72,7.12-33.69,15.48-13.61,14.27-17.75,33.48-23.36,52-5.74,18.96-13.44,36.83-19.06,55.6-7.48,24.97,5.93,21.34,22.18,34.66,15.29,12.53,28.02,32.14,42.92,46.09Zm-79.16-29.01c-28.09,4.43-54.96,22.89-74.6,43.33-12.22,12.72-43.49,51.53-24.12,68.4,8.1,7.05,29.88,7.33,38.89,5.22,17.34-4.06,23.88-15.41,32.78-29.48,14.39-22.76,45.71-59.84,27.05-87.47Z"/>
</svg>