<?xml version="1.0" encoding="UTF-8"?>
<svg id="Calque_1" data-name="Calque 1" xmlns="http://www.w3.org/2000/svg" viewBox="0 0 1024 1024">
  <defs>
    <style>
      .cls-1 {
        stroke-width: 0px;
      }
    </style>
  </defs>
  <path class="cls-1" d="m727.53,789.66c-23.65-15.09-53.63-37.18-81.11-43.9-34.15-8.35-67.97,18.46-102.11,19.68-65.05,2.34-121.02-40.65-169.95-78.56-49.96-38.71-90.35-97.11-76.67-163.25,6.02-29.11,19.23-59.3,38.45-82.11,18.68-22.16,52.61-38.39,66.19-63.96,13.27-24.98-26.35-42.02-16.01-65.9,3.69-8.53,18.34-10.51,26.04-12.26,15.71-3.56,25.79-4.74,37.87-16,17.9-16.7,35.48-35.32,58.69-45.02,27.24-11.38,67.95,2.84,88.19,23.07,9.99,9.99,13.36,19.63,29.74,17.77,6.3-.72,31.46-18.04,36.98-13.29,13.34,11.46-42.79,57.56-47.97,66.51-13.98,24.16,14.73,34.43,30.7,49.19,20.74,19.17,49.68,33.8,64.97,57.92,38.38,60.55,2.64,139.86-16.5,200.35-7.77,24.55-45.87,62.13-29.37,86.83,14.73,22.04,58.51,34.43,63.31,62.33-.49.2-.98.4-1.47.6Zm-331.63-166.24c.42.05.83.1,1.25.14.6,30.47,7.62,64.41,45.87,62.62,27.67-1.29,64.82-13.33,87.9-28.4,28.15-18.38,43.03-42.39,55.35-72.82,12.07-29.81,27.22-60.98,20.24-93.98-4.57-21.61-21.89-57.15-44.77-64.85-22.36-7.52-58.03,24.61-73.38,38.11-22.25,19.55-44.08,42.18-62.19,65.64-22.73,29.45-25.89,57.58-30.27,93.53Z"/>
</svg>