<?xml version="1.0" encoding="UTF-8"?>
<svg id="Calque_1" data-name="Calque 1" xmlns="http://www.w3.org/2000/svg" viewBox="0 0 1024 1024">
  <defs>
    <style>
      .cls-1 {
        stroke-width: 0px;
      }
    </style>
  </defs>
  <path class="cls-1" d="m278.38,883.58c-3.16-28.49-2.48-57.36-2.94-86.02-.32-20,6.09-55.46-9.02-70.2-8.59-8.38-23.34-12.07-33.05-20.16-8.52-7.1-17.44-14.45-25.15-22.43-17.86-18.51-33.61-41.69-47.04-63.54-27.03-43.98-31.19-93.26-23.46-143.66,4.55-29.67,34.52-104.15,71.34-70.23,16.27-14.19,39.86-39.02,62.94-27.86,6.94-23.02,4.34-50.95,4.89-74.93.31-13.39.54-26.78.79-40.16.19-10.19,4.54-30.88.74-40.16-7.27-17.73-40.59-9.32-58.04-8.93-25.91.59-52.44,3.6-78.07,3.6,9.55-19.51,18.41-39.53,30.44-57.7,12.18-18.4,23.16-21.2,44.55-20.16,48,2.34,96.19,1.62,144.23,1.93,102.01.65,204.06.21,306.06-1.11,50.83-.66,101.68-1.87,152.52-2.11,12.63-.06,25.11.52,37.73.98,5.47.2,26.03-2.61,29.8,1.59,8.14,9.08-10.06,37.46-13.26,48.6-2.17,7.55-1.84,13.37-7.05,17.89-5.5,4.78-26.8,2.13-34.23,2.39-27.62.97-55.39.22-83.02.18-51.91-.08-103.83-.25-155.74-.42-24.56-.08-49.12-.27-73.68-.49-18.95-.17-43.5-7.28-47.28,14.65-3.77,21.86.99,49.27,1.42,71.45.3,15.24-6.62,51.75,12.46,56.14,14.61,3.36,39.54-6.07,54.6-8.94,22.74-4.34,44.85-9.2,66.92-16.19,40.73-12.89,82.74-25.49,126.08-19.2,51.94,7.54,61.58,47.39,69.1,93.28,7.92,48.32,8.23,97.27-1.17,145.36-8.29,42.45-24.96,88.97-65.1,112.09-43.19,24.87-86.05,5.58-121.8-21.15-25.69-19.21-77.91-65.62-113.17-46.91-19.48,10.34-22.32,38.53-26.38,57.76-5.01,23.74-11.5,46.98-24.39,67.79-11.19,18.06-26.39,33.97-43.56,46.42-17.27,12.53-40.38,20.4-49.18,41.17-9.62,22.72-5.93,38.47-29.5,52.81-16.11,9.81-33.83,16.55-49.62,27.25-.58-.23-1.15-.45-1.73-.68Zm373.01-285.58c74.3,0,127.84-84.05,113.33-155.24-15.63-76.67-105.58-74.64-158.44-38.99-16.04,10.82-29.62,20.6-48.32,26.43-14.45,4.51-27.65,8.92-40.7,16.95-29.3,18.02-46.76,44.21-28.55,77.74,15.17,27.93,42.45,39.3,71.08,47.8,31.95,9.49,57.9,21.97,91.6,25.3Zm-300.89-88.42c-.31,0-.63.01-.94.02.96,32.35,1.79,64.7,2.81,97.04.51,16.04.84,32.12,1.77,48.14.69,11.79-1.39,35.3,4.39,45.1,12.69,21.52,39.16,2.33,52.51-10.44,18.17-17.39,24.32-42.32,28.28-66.4,4.59-27.94,12.3-56,13.32-84.32,1.06-29.3-13.35-46.26-34.61-65.88-8.64-7.98-17.91-13.93-29.22-17.38-5.65-1.73-25.77-9.45-30.51-8.45-16.11,3.38-7.8,47.24-7.8,62.57Zm-78.12,139.01c12.74-19.47,4.87-63.83,4.78-86.58-.12-28.36,1.28-57.37-1.02-85.63-1.24-15.22-1.34-20.81-12.97-27.25-10.07-5.58-22.39-6.81-32.8-13.43-10.31-6.56-14.13-13.21-26.42-12.15-10.99.95-19.41,9.1-26.64,16.21-38.13,37.52-18.51,79.22.63,119.33,21.99,46.07,39.8,83.56,94.44,89.51Zm81.2-291.05c8.3-4.31,13.58-7.2,22.99-7.41,4.75-.11,17.48,5.39,21.08,3.77,11.33-5.09,10.38-19.33,10.98-29.95,1.13-19.83.48-39.92.72-59.79.11-9.33,5.47-40.56-1.18-47.68-6.88-7.37-37.74-5.81-47.16-3.26-18.23,4.93-12.47,22.23-12.23,38.26.27,18.07.53,36.14.88,54.21.23,12.1-5.28,43.11,3.91,51.84Z"/>
</svg>