<?xml version="1.0" encoding="UTF-8"?>
<svg id="Calque_1" data-name="Calque 1" xmlns="http://www.w3.org/2000/svg" viewBox="0 0 1024 1024">
  <defs>
    <style>
      .cls-1 {
        stroke-width: 0px;
      }
    </style>
  </defs>
  <path class="cls-1" d="m761.17,567.07c4.5,10.3-3.31,29.31-4.73,40.22-1.63,12.55-2.09,25.49-5.48,37.74-8.21,29.67-32.06,50.47-57.78,65.6-25.57,15.04-52.66,26.21-76.05,44.68-21.74,17.17-47.63,42.23-74.23,51.13-56.09,18.77-119.13-22.39-147.21-69.37-25.1-42,33.84-89.8,60.36-116.89,17.11-17.48,39.73-39.13,47.98-62.66,3.67-10.46,5.71-20.04-6.51-25.44-12.86-5.68-22.08,5.74-31.31,12.42-50,36.2-106.9,44.08-151.07-6-36.65-41.56-49.01-102.84-53.2-156.49-4.63-59.27,24.39-120.23,74.33-154.13,52.67-35.76,118.59-2.4,149.97,46.4,7.36,11.44,8.69,24.43,14.53,36.12,7.11,14.22,14.84,13.9,29.97,15.8,8.59,1.08,35.87,1.11,40.27,9.64,4.85,9.42-7.24,18.17.42,31.64-20.16,7.84-43.54,6.98-64.56,12.12-13.5,3.3-44.41,5.36-51.4,16.15-11.14,17.18,5.05,39.55,14.47,52.34,10.01,13.6,29.4,52.66,49.38,54.17,15.59,1.17,10.23-33.12,17.67-45.96,11.02-19.01,36.81-29.1,57.47-32.89,38.93-7.13,78.57,12.26,94.09,48.98,8.82,20.87,11.76,47.19,9.6,69.66-2.18,22.65-17.99,41.98-28.24,61.68-10.74,20.66-14.9,34.44-39.78,32.1-27.11-2.55-49.72-12.42-73.79-24.12-19.76-9.61-33.44-18.97-52.57-4.19-18.64,14.41-20.22,32.29-16.33,54.25,7.69,43.39,57.34,64.79,97.34,70.28,22.98,3.15,49.3.18,64.54-19.08,15.69-19.84,2.58-40.54,10.85-59.94,7.51-17.63,33.96-33.03,49.68-42.55,22.28-13.5,37.78-18.43,49.52-43.53.6.04,1.2.08,1.8.13Zm-304.93-51.34c-30.1-42.77-93.11-127.1-30.62-169.95,26.08-17.88,42.49-35.28,15.43-63.4-21.11-21.94-44.1-26.88-68.63-9.29-28.47,20.42-44.12,35.02-45.76,71.63-1.68,37.61-4.47,79.02,4.71,115.8,6.74,27.01,24.7,66.88,51.91,78.92,18.74,8.29,64.4-2.35,72.96-23.71Zm157.35,47.63c10.21-1.86,21.48-1.61,28.54-9.88,8.14-9.54,8.83-31.09,6.87-42.12-5.21-29.42-26.63-34.96-50.41-24.05-15.16,6.96-49.68,13.09-48.1,35.02,1.97,27.42,42.75,36.64,63.1,41.03Z"/>
</svg>