<?xml version="1.0" encoding="UTF-8"?>
<svg id="Calque_1" data-name="Calque 1" xmlns="http://www.w3.org/2000/svg" viewBox="0 0 1024 1024">
  <defs>
    <style>
      .cls-1 {
        stroke-width: 0px;
      }
    </style>
  </defs>
  <path class="cls-1" d="m557.64,677.14c15.13-17.2,26.08-27.52,2.47-41.7-17.8-10.69-39.04-22.7-60.7-19.17-10.55,1.72-38.52,10.92-45.11,19.16-7.86,9.82-.5,48.05-.31,60.17.33,20.52,4.16,44.19-2.4,64.12-6.19,18.81-24.77,32.69-38.72,45.98-14.19,13.51-27.97,24.12-45.75,32.39-13.55,6.3-53.9,31.25-68.47,21.09,21.59-20.61,51.55-31.51,60.62-62.47,10.37-35.37,3.76-76.44,4.98-112.89,2.4-71.67,5.95-142.95,6.46-214.72.26-36.9.49-73.79.74-110.69.17-25.24,10.97-76.46-8.76-96.46-19.83-20.1-49.15-20.44-58.03-52.31-11.24-40.31,21.55-37.86,51.15-40.12,31.89-2.43,52.75-16.12,82.8,2.66,10.33,6.45,20.98,18.04,33.82,18.69,18.1.91,24.97-9.35,43.1-.08,29.4,15.03,53.53,43.65,75.56,67.42,18.02,19.45,29.54,54.76,59.79,42.85,13.46-5.3,41.45-33.33,31.64-3.48-10.13,30.85-49.54,60.45-47.38,94.26,1.99,31.01,28,62.22,45.02,86.47,13.7,19.53,52.78,48.04,43.87,72.5-4.6,12.63-18.13,22.08-27.31,31.29-11.92,11.96-23.9,27.57-38.03,37.04-17.43,11.69-20.31,8.79-27.39-7.61-6.51-15.11-12.58-30.69-27.2-40.52-13.86-9.32-22.82-6.65-18.78,10.67,3.85,16.5,18.53,27.98,24.06,43.64,7.66,21.68-27.94,55.96-50.84,53.14-.31-.43-.61-.87-.92-1.3Zm-99.36-63.44c33.15-26.13,86.61-44.49,101.19-89.77,11.44-35.51-18.62-84.03-46.08-104.51-11.63-8.68-44.04-26.97-58.83-19.27-13.54,7.05-6.97,49.53-6.87,61.73.22,27.63.45,55.26,1.01,82.88.29,14.17-5.15,61.81,9.58,68.94Zm-8.94-298.16c.22.04.44.08.66.11,0,9.95-.88,30.36,11.88,25.45,9.48-3.65,11.12-16.48,10.32-24.47-.49-4.81-6.63-25.86-14.27-25.63-8.17.25-7.63,18.51-8.6,24.54Z"/>
</svg>