<?xml version="1.0" encoding="UTF-8"?>
<svg id="Calque_1" data-name="Calque 1" xmlns="http://www.w3.org/2000/svg" viewBox="0 0 1024 1024">
  <defs>
    <style>
      .cls-1 {
        stroke-width: 0px;
      }
    </style>
  </defs>
  <path class="cls-1" d="m602.83,762.45c-4.75,29.09-73.26,56.84-97.07,62.24-44.34,10.05-77.87-10.44-109.79-38.48-28.95-25.42-68.3-40.25-93.78-69.12-25.86-29.3-30.68-69.1-23.27-106.33,7.19-36.13,29.46-71.97,57.88-95.08,13.27-10.79,30.21-21.88,48.17-16.45,17.05,5.16,25.66,23.3,35.35,36.61,10.36,14.24,23.88,25.41,34.17,39.62,12.9,17.81,28.93,25.46,47.97,35.66,17.03,9.12,34.11,23.51,52.94,28.53,14.25,3.8,31.8-3.85,20.3-20.9-8.57-12.69-34.43-9.44-47.48-12.56-21.01-5.03-25.65-15.34-38.34-31.38-10.86-13.72-21.49-28.87-29.65-44.31-12.76-24.16-3.24-33.11,5.53-54.72,7.58-18.68,10.47-38.08,20.04-56.17,9.02-17.08,20.1-31.09,32.05-46.21,22.37-28.29,42.22-64.22,72.04-85.65,37.39-26.89,69.85,3.16,97.09,30.3,30.91,30.81,50.61,63.12,56.7,106.34,6.55,46.49-1.12,84.59-22.84,125.79-8.1,15.36-14.95,30.27-26.29,43.59-12.4,14.57-26.28,25.45-35.59,42.45-23.57,43.03,6,64.74,22.91,103.71,18.51,42.63,16.06,87.36,51.86,122.53,10.45,10.26,26.72,29.95.06,21.67-16.24-5.04-31.62-15.71-46.14-24.26-37.63-22.18-72.59-54.55-83.55-97.21-.41-.07-.81-.14-1.22-.21Zm-15.64-162.51c34.23-3.71,67.57-53.6,75.17-84.74,5.77-23.66,3.24-50.28-7.41-72.24-9.51-19.62-29.86-18.51-48.8-26.53-18.81-7.96-43.09-25.93-55.88-2.42-14.52,26.69-.04,55.95,7.45,82.36,7.15,25.23,5.96,37.54-1.75,61.33-8.2,25.28,8.12,38.76,31.22,42.25Zm-133.49,23.95c-.06.26-.13.52-.19.78-40.87,3.8-67.47,40.96-77.28,78.47-4.18,15.98-15.1,43.42,7,49.76,15.71,4.51,43.01-9,57.43-14.76,19.83-7.92,41.4-17.09,58.9-29.36,9.88-6.93,36.47-23.58,39.82-35.66,9.63-34.7-65.3-45.84-85.69-49.23Z"/>
  <path class="cls-1" d="m593.22,209.33c-33.44,0-66.89.4-100.33-.34-13.71-.31-33.03,2.76-46.06-1.5-14.07-4.59-11.52-9.95-8.81-22.96,1.99-9.56,4.96-30.12,10.77-38.06,6.99-9.56,16.05-8.35,29.06-8.51,32.24-.42,64.71,1.71,96.95,2.3,32.3.59,64.62,1.39,96.92,1.56,11.01.06,30.3-3.65,40.9.23,12.33,4.5,9.81,14.03,13.43,26.6,2.48,8.63,14.76,29.37,10.03,36.17-5.3,7.62-28.7,4.47-36.25,4.5-35.54.12-71.08.05-106.63.05v-.02Z"/>
</svg>