<?xml version="1.0" encoding="UTF-8"?>
<svg id="Calque_1" data-name="Calque 1" xmlns="http://www.w3.org/2000/svg" viewBox="0 0 1024 1024">
  <defs>
    <style>
      .cls-1 {
        stroke-width: 0px;
      }
    </style>
  </defs>
  <path class="cls-1" d="m438.69,792.72c1.01-6.21.07-18.1,2.92-23.37,3.75-6.91,9.2-6.59,15.52-10.89,21.25-14.46,39.5-39.55,57.82-57.82,13.9-13.87,36.04-38.09,37.55-59.04,2.19-30.21-29.62-19.51-45.51-9.72-41.88,25.8-70.67,66.04-116.48,87.19-51.98,23.99-86.35-24.4-114.71-60.98-36.97-47.7-38.13-104.26-31.78-162.65,5.39-49.48,39.4-85.7,66.82-125.21,27.19-39.18,71.22-68.26,118.75-72.98,55.29-5.49,95.45,28.65,115.64,78.96,8.58,21.37,16.5,47.83,14,71.07-1.18,10.94-4.53,21.06-10.3,30.46-9.38,15.29-14.8,11.54-26.98,19.03-18.5,11.38-11.02,34.28-.25,49.09,13.72,18.86,26.99,38.36,41.85,56.29,15.93,19.22,28.87,33.85,53.25,40.86,20.89,6.01,48.33,13.57,69.33,4.38,41.34-18.08,32.53-92.31,1.6-116.21-20.13-15.55-33.91.37-47.34,15.85-12.64,14.57-41.27,31.57-61.66,21.18-15.7-8-17.04-33.95-9.82-47.19,10.29-18.86,35.13-30.64,54.84-36.25,23.26-6.63,51.48-.73,73.59,8.23,25.42,10.3,35.5,33.08,43.16,57.97,13.62,44.27-3.91,93.55-32.33,128.6-14.37,17.72-29,32.41-49.39,43.3-25.33,13.53-50.5.87-73.14-12-7.82-4.44-13.98-10.87-21.35-15.23-12.71-7.52-16.52-.66-21.9,13.27-9.7,25.11-6.22,48.63,15.75,64.16,22.97,16.23,54.62,24.22,82.65,23.98,31.19-.27,51.22-10.76,72.14-32.29,21.2-21.82,49.25-40.57,68.22-64.05,4.49-5.55,24.44-60.44,27.22-59.53,1.1.36-5.85,58.13-6.36,64.51-1.81,22.49-6.15,40.23-19.02,59.17-12.22,17.98-30.51,34.16-45.49,49.96-17.43,18.38-32.33,31.01-56.25,39.4-44.42,15.58-92.69,35.89-139.51,19.08-41.88-15.04-75.86-46.44-103.09-80.56Zm-42.87-154.98c25.23-3.68,77.93-12.44,83.67-45.08,2.55-14.51-14.77-30.62-19.12-43.9-5.94-18.14-1.88-36.99,4.26-54.41,5.67-16.07,11.61-40.46,21.79-54.25,9.84-13.34,23.72-16.33,28.9-33.52,4.58-15.22,9.08-26.96-1.8-39.52-11.95-13.79-17.81-11.32-33.85-3.23-30.46,15.36-61.83,22.44-87.12,46.29-25.97,24.5-39.54,56.89-61.2,84.75-22.14,28.49-42.02,46.11-21.15,82.97,8.44,14.91,22.91,28.66,35.39,40.23,16.34,15.16,28.74,16.81,50.23,19.68Z"/>
  <path class="cls-1" d="m647.12,376.01c-19.66-6.82-15.62-45.65-14.87-61.07,1.34-27.93,10.69-52.95,15.37-79.64,1.13-6.43,4.93-9-.18-14.03-5.53-5.45-30.89-1.51-38.2-1.51-29.73-.03-59.47-.05-89.2-.07-55.11-.04-110.22.04-165.32-.2-26.81-.12-53.61-.36-80.42-.35-23.69,0-44.29,8.24-50.72-17.77-3.16-12.78-6.79-26.78-7.54-39.96-.91-15.85-2.18-11.28,9.45-14.39,22.14-5.91,56.42,2.1,79.54,2.65,54.99,1.29,110.04,1.25,165.04,1,58.28-.27,118.3,2.66,176.35-2.73,12.42-1.15,25.83-6.29,38.06-1.55,9.8,3.8,20.22,15.46,28.05,22.14,14.12,12.06,47.17,32.05,50.34,50.64-21.77,2.74-23.11,5.37-28.82,24.57-4.84,16.26-8.36,33.16-13.83,49.12-11.65,33.99-45.32,61.91-73.09,83.16Z"/>
  <path class="cls-1" d="m352.52,796.78c11.15-12.94,76.57-86.25,88.88-51.54,6.36,17.93-26.2,22.74-38.78,27.93-18.69,7.72-32.5,15.26-48.37,25.37-.57-.59-1.15-1.17-1.72-1.76Z"/>
</svg>