<?xml version="1.0" encoding="UTF-8"?>
<svg id="Calque_1" data-name="Calque 1" xmlns="http://www.w3.org/2000/svg" viewBox="0 0 1024 1024">
  <defs>
    <style>
      .cls-1 {
        stroke-width: 0px;
      }
    </style>
  </defs>
  <path class="cls-1" d="m439.82,342.32c-4.86,26-10.25,47.74-22.97,71.28-12.56,23.24-25.89,35.83-9.15,60.31,13.92,20.36,26.15,39.68,52.81,32.71,25.45-6.65,48.76-13.63,74.96-17.72,17.54-2.74,31.15-4.23,26.57-22.86-6.03-24.51-12.86-42.25-12.32-68.47.94-45.53,13.05-110.21-20.78-145.67-11.56-12.12-35.54-26.79-35.73-45.91-.21-20.94,30.08-22.79,44.24-30.95,13.17-7.59,38.09-38.76,54.07-36.25,7.86,1.23,15.41,13.01,21.12,18.19,10.92,9.92,22.84,18.66,33.9,28.42,13.17,11.64,28.25,26.01,31.61,44.16,4.68,25.29-19.75,17.9-34.65,31.23-16.03,14.34-13.51,43.3-13.78,62.82-.1,6.89-3.06,29.35,1.85,35.8,5.99,7.87,15.74,0,25.17-2.43,18.13-4.66,41.65-9.44,57.98,1.99,18.1,12.66,37.42,39.65,44.14,60.52,8,24.82-5.16,43.38-20.76,62.5-13.86,17-31.88,42.86-53.28,50.96-8.2,3.1-15.05-3.71-17.93,8.25-1.55,6.41,8.3,21.93,10.16,27.56,7.4,22.43,10.43,45.57,9.4,69.14-1.72,39.45-19.47,90.46-48.42,118.36-32.82,31.63-71.75,52.58-108.73,77.79-35.27,24.04-69.28,51-114.57,51.33-95.14.68-117.71-156.48-85.77-221.56,10.46-21.32,31.06-40.44,47.77-56.95,16.2-16,45.87-36.83,48.59-61.98,2.2-20.39-21.82-23.58-35.01-31.34-15.37-9.05-32.91-21.94-41.7-37.54-28.43-50.4,4.3-93.16,37.44-129.65,8.47-9.33,16.63-17.74,20.11-30.18,1.71-6.12-2.65-12.47,4.63-14.1,17.42-3.9,29.08,28.9,29.03,40.23Zm42.74,476.2c15.06-1.73,34.88-1.11,49.15-6.62,13.36-5.15,23.13-16.91,32.69-27.14,21.83-23.37,32.21-50.59,40.31-81.27,15.68-59.37-4.28-126.79-76.31-124.73-56.54,1.61-118.46,42.84-129.4,101.12-6.64,35.38-2.92,62.91,16.91,93.19,18.7,28.56,33.47,40.24,66.66,45.46Z"/>
  <path class="cls-1" d="m355.46,511.97c6.09,30.94-18.44,29.9-40.49,14.74-21.7-14.92-37.84-45.29-52.24-66.98.36-.42.71-.84,1.07-1.26,17.91,6.72,32.58,20.73,50.44,27.98,16.69,6.78,30.6,9.14,41.22,25.52Z"/>
</svg>