<?xml version="1.0" encoding="UTF-8"?>
<svg id="Calque_1" data-name="Calque 1" xmlns="http://www.w3.org/2000/svg" viewBox="0 0 1024 1024">
  <defs>
    <style>
      .cls-1 {
        stroke-width: 0px;
      }
    </style>
  </defs>
  <path class="cls-1" d="m601.61,509.2c24.54,0,53.17-5.25,74.11,10,9.28,6.75,17.86,16.83,22.23,27.48,3.99,9.73.14,33.09,5.96,40.12,18.39,22.24,27.37-30.59,46.55-18.2,13.68,8.85-11.02,40.72-14.89,51.27-8.75,23.87-14.15,42.22-32.55,60.73-18.34,18.46-39.95,29.75-63.37,40.35-23.69,10.72-47.66,21.12-71.1,32.36-21.35,10.24-45.63,26.63-70.57,20.13-20.26-5.28-34.59-23.57-45.37-40.15-6.8-10.45-14.41-20.94-18.53-32.78-3.91-11.25,2.14-24.56-.39-33.22-6.99-23.95-30.37,15.94-34.07,25.17-10.47,26.11-15.7,54.12-34,76.24-15.84,19.15-36.54,29.09-59.52,37.8-12.55,4.76-45.1,23.9-34.56-.73,4.12-9.64,16.67-18.38,22.32-27.94,6.43-10.89,11.07-22.96,15.91-34.6,9.92-23.88,17.63-44.91,36.31-63.18,35.54-34.77,89.96-40.61,124.53-76.97,19.8-20.82,37.47-43.94,57.71-64.3,21.34-21.47,43.61-27.52,73.32-29.59Zm14.32,194.89c.03.27.06.53.09.8,21.4-4.2,40.3-16.52,54.78-32.97,8.62-9.79,25.31-35.26,7.17-43-7.36-3.14-25.38,4.28-33.77,4.39-7.14.1-13.59-.46-20.37-2.65-21.46-6.91-39.04-25.31-58.82-35.81-17.53-9.31-30.39-21.3-45.04-3.17-15.01,18.57-7.03,35.96,4.89,53.92,20.78,31.29,51.75,60.74,91.07,58.48Z"/>
  <path class="cls-1" d="m414.92,257.91c-3.44,2.43-8.89,2.66-5.01,8.28-13.04,9.7-6.32,47.98-6.14,62.29.1,7.67-2.28,23.14,3.71,29.1,6.67,6.62,30.77,2.34,39.35,2.57,56.1,1.51,112.21,4.04,168.33,4.53,14.17.12,28.34-.07,42.51-.28,10.56-.16,27.82-4.15,37.99-2.43,10.94,1.85,11.65,3.61,13.52,14.04.75,4.19,1.91,30.52.45,34.5-5.82,15.83-37.39,13.4-52.12,13.97-31.09,1.21-62.2,1.82-93.29,2.73-24.48.72-48.93,2.02-73.43,1.52-17.23-.35-71.76-11.8-83.4.67-9.71,10.39-.74,52.27-.21,65.71.82,20.82,7.88,52.2-8.08,68.82-13.26,13.82-36.37,19.66-52.35,29.16-7.56,4.49-8.69,12.96-18.48,7.17-8.49-5.01-8.84-28.24-9.18-36.42-2.25-53.96,2.43-109.06,3.62-163.06.65-29.62,3.8-59.48,2.33-89.09-.77-15.49-3.19-27.05-8.68-41.35-4.89-12.75-10.28-21.94-1.97-33.47,8.39-11.64,39.26-36.48,52.6-29.87,9.07,4.49,25.07,23.94,31.26,32.11,5.76,7.62,6.25,17.07,16.66,18.79Z"/>
</svg>