<?xml version="1.0" encoding="UTF-8"?>
<svg id="Calque_1" data-name="Calque 1" xmlns="http://www.w3.org/2000/svg" viewBox="0 0 1024 1024">
  <defs>
    <style>
      .cls-1 {
        stroke-width: 0px;
      }
    </style>
  </defs>
  <path class="cls-1" d="m334.02,451.8c-14.59-15.53-8.21-51.71-8.47-71.51-.18-12.99-1-26.14-.45-39.11.29-6.78,8.03-30.87,6.22-35.77-4.89-13.27-35.96-3.31-46.63-12.58-4.25-3.7-7.41-15.13-10.29-19.92-6.5-10.82-13.96-21.06-20.6-31.79-15.6-25.2-5.67-27.16,18.28-27.86,27.98-.82,55.95-.85,83.96-.9,55.85-.11,111.7-.2,167.55-.1,56.23.1,112.46.47,168.69.87,12.67.09,25.35.18,38.02.27,8.65.06,35.22-3.68,42.67.89,11.18,6.85-.65,46.76-2.39,59.86-3.24,24.34-5.64,26.46-30.62,27.23-28.59.89-57.43-1.12-86.04-1.15-55.19-.06-110.37.54-165.55.24-17.9-.1-73.57-10.09-86.58,3.4-10.89,11.29-2.1,57.94-2.21,73.42-.11,15.14,5.47,58.73-11.62,62.4-18.62,4-43.74-19.21-52.56,11.43-.46.23-.91.46-1.37.69Z"/>
  <path class="cls-1" d="m319.76,640.21c5.81-52.75,15.42-86.38,73.03-93.95,52.8-6.95,68.86-36.55,85.92-83.22,6.06-16.57,12.8-41.18,34.13-41.87,21.92-.71,44.81,18.39,50.48,38.99,10.35,37.61-48.79,79.93-73.09,100.97-31.58,27.34-83.66,49.93-90.09,94.93-6.56,45.88,14.96,111.81,53.71,138.99,9.23,6.47,18.98,9.42,1.62,15.98-6.09,2.3-20.37-.08-26.46-1.47-21.65-4.94-40.93-19.53-55.13-36.14-33.49-39.15-50.68-82.31-53.04-133.11l-1.08-.12Z"/>
  <path class="cls-1" d="m731.43,403.24c-9.21,17.81-9.32,39.01-13.05,58.38-4.46,23.2-9.45,47.46-17.99,69.51-15.85,40.95-36.3,79.75-56.26,118.76-19,37.14-36.03,78.7-62.23,111.46-20.45,25.57-63.91,58.56-97.4,39.31,33.91-21.26,48-53.61,69.26-86.64,23.81-36.98,42.41-75.9,60.23-116.06,16.43-37.04,28.85-76.16,53.54-108.88,11.44-15.16,24.2-29.36,35.79-44.46,6.51-8.48,20.12-37.68,28.1-41.37Z"/>
</svg>