<?xml version="1.0" encoding="UTF-8"?>
<svg id="Calque_1" data-name="Calque 1" xmlns="http://www.w3.org/2000/svg" viewBox="0 0 1024 1024">
  <defs>
    <style>
      .cls-1 {
        stroke-width: 0px;
      }
    </style>
  </defs>
  <path class="cls-1" d="m588.59,612.31c-35.69,3.98-61.04,51.42-83.2,75.68-11.73,12.84-23.48,26.77-41.42,28.26-16.31,1.36-38.26-1.29-52.27-9.58-32.16-19.02-59.49-56.39-80.61-86.21-10.45-14.76-18.9-28.7-24.85-45.93-8.46-24.47-9.98-34.85,4.67-57.4,10.87-16.74,22.58-28.99,39.53-39.58,15.27-9.54,33.76-10.16,48.06-18.86,32.75-19.92,3.35-80.91-9.32-105.02-9.07-17.26-65.65-73.3-51.48-90.78,7.28-8.98,29.39-6.32,39.96-16.14,11.33-10.52,18.25-32.49,35.1-33.08,8.64-.3,16.69,7.88,25.2,9.49,10.55,1.99,20.32-.71,30.05-4.46,22.99-8.87,40.39-15.01,65.51-9.51,25.69,5.63,42.55,16.3,59.55,35.52,17.33,19.59,28.44,11.2,51.67,7.26,3.49,30.11-52.11,64.77-72.75,82.29-35.92,30.49-58.8,71.36-65.02,118.53-5.22,39.59,15.22,88.69,60.9,61.71,33.48-19.77,12.26-93.95,16.85-128.12,3.16-23.54,8.51-33.48,26.77-15.64,17.67,17.25,33.51,35.35,47.62,55.49,25.25,36.05,19.88,76.07,20.39,118.71.61,50.89-.53,102.61,3.73,153.36,1.88,22.34,5.24,44.49,15.18,64.82,2.59,5.3,34.78,48.55,23.2,53.64-4.29,1.89-39.89-20.78-46.37-24.24-21.45-11.47-34.89-28.01-49.22-47.31-31.48-42.4-22.99-85.69-37.45-132.91Zm-142.72-62.17l-.23-.56c-20.86,5.94-41.5,20.62-55.21,37.61-8.7,10.78-27.81,41.94-5,48.32,15.92,4.45,40.23-27.84,48.92-38.23,8.85-10.59,41.85-43.67,11.51-47.14Z"/>
</svg>