<?xml version="1.0" encoding="UTF-8"?>
<svg id="Calque_1" data-name="Calque 1" xmlns="http://www.w3.org/2000/svg" viewBox="0 0 1024 1024">
  <defs>
    <style>
      .cls-1 {
        stroke-width: 0px;
      }
    </style>
  </defs>
  <path class="cls-1" d="m338.32,847.56c-3.63-13.81,18.38-35.43,23.01-48.08,6.92-18.91,6.4-37.83,6.3-57.66-.21-41.95.04-83.9.14-125.85.19-83.92,2.77-168.31-.73-252.18-.8-19.12-.65-37.26-11.23-53.18-8.07-12.13-18.09-27.4-28.39-37.93-10.06-10.28-28.3-15.86-33.5-30.41-7.29-20.43,13.42-22.38,27.2-28.86,23.38-11.01,51.28-48.82,75.4-33.26,24.31,15.68,60.28,44.47,57.28,76.27,11.06,2.75,27.85-29.31,33-36.01,10.06-13.09,27.81-42.55,46-39.67,12.79,2.03,29.84,22.82,37.49,32.35,5.72,7.13,3.74,12.72,14.59,14.99,7.92,1.66,21.76-4.39,28.72-7.15,12.66-5.02,30.94-23.96,43.81-23.31,8.39.42,16.11,10.28,22.86,14.89,11.03,7.55,22.91,11.85,34.73,17.63,41.76,20.42-5.9,73.78-26.53,96.37-15.06,16.5-30.11,23.36-23.23,47.82,5.84,20.79,17.78,40.22,26.61,59.8,21.13,46.82,14.57,87.89-6.45,133.62-18.84,40.99-41.86,82.97-70.82,117.75-14.48,17.39-31.2,30.33-48.07,45.08-16.66,14.57-23.38,20.31-46.65,13.61-23.41-6.73-40.06-29.04-62.49-35.6-12.4-3.63-9.44-3.61-13.47,9.15-3.78,11.95-5.2,21.87-12.14,33-11.92,19.12-26.52,37.61-42.15,53.84-13.71,14.24-33.87,33.74-51.29,42.96Zm115.9-581.06c-20.52,30.65-8.54,90.25-8.55,125.42,0,47.93-2.79,96.19,1.9,144,4.18,42.54,31.21,61.75,58.51,90.5,14.29,15.05,28.03,32.3,45.25,44.17,18.77,12.93,28.02,10.05,41.77-7.22,55.06-69.19,19.67-168.15-10.39-238.33-8.83-20.62-16.67-42.8-28.35-62.05-5.81-9.58-13.4-17.67-18.62-27.68-3.41-6.54-4.56-16.52-8.66-22.09-9.17-12.45-26.27-9.88-39.78-15.93-16.6-7.43-26.79-13.38-33.08-30.79Z"/>
</svg>