<?xml version="1.0" encoding="UTF-8"?>
<svg id="Calque_1" data-name="Calque 1" xmlns="http://www.w3.org/2000/svg" viewBox="0 0 1024 1024">
  <defs>
    <style>
      .cls-1 {
        stroke-width: 0px;
      }
    </style>
  </defs>
  <path class="cls-1" d="m263.68,189.88c10.53-16.11-4.77-49.19-9.14-65.41-2.32-8.63-6.45-9.22,1.74-15,6.43-4.54,30.14,1.92,38.63,2.49,57.42,3.84,115.35,2.47,172.88,3.08,58.02.61,116.2,2.71,174.19.54,27.71-1.03,54.3-8.86,75.13,12.09,18.76,18.87,43.09,41.9,55.46,65.52-15.24,1.52-32.14-2.83-47.66-3.06-16.76-.25-33.52.32-50.28.33-12.55,0-36.35-4.26-44.47,9.45-5.92,10.01.49,33.17.66,44.27,1.2,77.49-.32,155.19,0,232.71.31,73.99.79,147.99.96,221.98.09,38.07-.14,76.15-.43,114.22-.23,30.56,7.29,74.01-2.74,103.06-13.23-.88-28.74-29.65-37.09-39.62-11.52-13.74-28.23-29.82-32.29-47.75-9.04-39.95-4.66-88.46-6.12-129.46-3.28-91.65,1.94-183.12,3.11-274.79.63-49.19,1.59-98.39,1.72-147.58.06-21.05-3.08-43.99.55-64.72,3.51-20.1,3.51-20.65-19.34-21.21-91.18-2.21-184.25,6.52-275.03.54-.15-.55-.31-1.11-.46-1.66Z"/>
  <path class="cls-1" d="m478.38,766.71c-47.12-26.2-90.26-56.12-133.75-87.86-20.33-14.84-41.05-29.16-56.55-49.32-11.85-15.42-33.9-41.87-25.7-61.58,13.36-32.11,111.91-59.09,72.18-100.37-31.01-32.22-77-71.91-58.78-122.93,6.64-18.61,23.86-31.39,39.82-42.16,28.45-19.19,48.38-26.52,79.55-10.09,25.11,13.24,48.41,29.1,71.93,44.93,9.69,6.52,19.03,13.49,30.56,16.4,5.71,1.44,31.32-.45,32.5,8.34,1.11,8.28-35.37,37.68-41.43,45.31-13.35,16.81-43.32,43.06-47.32,64.49-3.69,19.81,19.64,33.1,31.38,45.37,17.02,17.79,38.26,33.75,50.09,55.69,20.14,37.33-25.9,8.26-45.02,12.05-23.62,4.69-50.23,30.19-64.64,48.34-20.47,25.77-21.68,49.61,1.36,73.47,20.1,20.82,43.56,38.93,64.68,58.8-.29.37-.58.74-.87,1.11Z"/>
</svg>