<?xml version="1.0" encoding="UTF-8"?>
<svg id="Calque_1" data-name="Calque 1" xmlns="http://www.w3.org/2000/svg" viewBox="0 0 1024 1024">
  <defs>
    <style>
      .cls-1 {
        stroke-width: 0px;
      }
    </style>
  </defs>
  <path class="cls-1" d="m405.91,306.99c10.8,5.93,31.21,23.96,43.79,23.29,12.87-.69,24.88-25.26,31.25-34.88,15.11-22.82,39.99-64.94,72.99-59.06,15.84,2.83,19.64,13.27,36.35,4.91,13.48-6.75,26.08-18.73,37.15-28.79,6.89-6.26,24.31-31.13,34.08-31.12,13.71.02,36.17,32.31,46.1,41.3,8.84,8,36.04,22.59,40.05,32.95,4.55,11.74-9.27,17.06-17.23,26.4-11.08,13-23.95,26.48-31.63,41.88-9.37,18.77-8.44,40.95-9.63,61.49-4.66,80.48-.8,162.1.69,242.67.72,38.97,1.34,77.99,3.4,116.92,2.35,44.23,8.18,72.57,39.39,105.37,3.44,3.61,22.86,18.19,17.86,25.95-2.93,4.55-25.51-6.43-29.45-8.09-30.69-12.9-58.95-28.39-83.21-51.13-9.37-8.79-23.93-31.29-35.13-36.37-14.39-6.54-31.52,3.73-45.94,6.67-18.23,3.71-38.02,7.61-56.09,1.98-19.8-6.16-35.63-20.27-51.54-32.82-26.88-21.21-58.92-39.88-82.99-64.05-11.6-11.65-17.76-26.65-28.05-39-7.35-8.82-36.75-16.22-31.98-30.62,3.12-9.41,29.11-11.63,37.64-15.92,11.56-5.81,45.6-25.61,50.22-37.18,6.29-15.73-18.89-33.84-28.29-42.88-16.48-15.84-33.35-30.37-45.03-50.41-18.87-32.39-22.9-79.2.15-110.95,19.11-26.32,58.11-41.96,85.09-58.49Zm186.13,81.77c-4.94,6.59,2.06,14.76-1.96,19.77-1.88,2.35-12.28.8-15.05,1.36-18.97,3.81-34.02,6.63-53.8,2.5-17.28-3.6-33.77-13.25-51.66-10.32-18.33,3-36.09,13.42-47.39,27.86-20.35,25.98-28.85,57.28-7.15,85.38,9.99,12.94,26.01,24.91,39.33,34.35,11.21,7.94,45,20.84,50.08,33.86,4.62,11.83-19.76,25.88-28.39,35.26-11.67,12.68-23.73,26.37-34.2,40.01-18.6,24.24-25.94,65.49,13.61,71.53,28.08,4.29,60.55-19.06,79.73-37.47,13.79-13.24,25.22-29.05,32.33-46.85,2.47-6.19,3.12-14.97,7.9-19.86,3.94-4.03,10.44-3.83,14.2-8.11,10.74-12.26,7.01-43.36,7.07-59.1.08-20.54-.95-41.07-1.19-61.61-.27-22.87,1.92-46.21.48-69.02-.6-9.41,1.72-33.15-3.92-39.54Z"/>
  <path class="cls-1" d="m272.67,152.96c12.39-10.57,47.97-3.98,62.35-3.91,19.64.1,44.02-5.11,63.1-.52,17.68,4.25,14.36,21.79,16.61,38.45,1.32,9.81,5.68,32.68-2.8,37.98-11.15,6.97-45.99.63-59.02.62-16.86,0-47.77,4.49-63.72-1.37-21.29-7.84-1.6-53.72-16.52-71.25Z"/>
</svg>