<?xml version="1.0" encoding="UTF-8"?>
<svg id="Calque_1" data-name="Calque 1" xmlns="http://www.w3.org/2000/svg" viewBox="0 0 1024 1024">
  <defs>
    <style>
      .cls-1 {
        stroke-width: 0px;
      }
    </style>
  </defs>
  <path class="cls-1" d="m436.15,843.27c16.96-7.27,33.08-11.54,38.01-31.11,5.66-22.48,1.57-50.63,1.69-73.61.29-53.23,1.4-106.44,1.54-159.69.14-56.02.32-112.05.02-168.07-.15-26.95-.37-53.9-.74-80.84-.34-24.22,2.52-53.89-6.37-76.82-4.25-10.96-10.9-17.97-20.42-24.45-6.11-4.16-24.01-10.35-27.44-16.92-9.54-18.27,30.21-33.59,41.11-42.08,11.04-8.6,28-32.99,41.36-35.89,16.91-3.67,40.08,24.23,50.91,35.45,5.75,5.96,12.76,12.52,16.74,19.84,6.48,11.9,3.13,12.19-.74,23.85-8.44,25.48-6.15,53.21-6.02,79.72.13,27.03.31,54.07.64,81.11.1,8.02-2.93,26.94,2.38,34.2,5.61,7.66,11.28,3.11,20.41,2.75,16.76-.67,100.91,42.79,107.37,19.25,3.69-13.45-26.5-45.26-33.29-55.91-12.57-19.73-27.95-34.22-41.86-52.52-14.79-19.45-15.95-40.29-19.85-63.45-3.98-23.61-11.22-47.37.43-70.12,5.48-10.69,24.54-33.79,37.32-36.14,19.98-3.68,38.25,27.55,51.87,37.94,17.67,13.48,34.34-1.06,51.75,16.61,11.11,11.28,19.53,44.86,36.91,41.55,12.22-2.33,30.04-35,42.61-32.39,14.59,3.04,6.72,50.91,3.39,60.78-6.92,20.48-19.93,33.16-37.52,44.38-18.4,11.74-36.5,22.82-18.67,43.97,13.24,15.71,33.21,30.56,49.08,43.66,15.04,12.42,38.55,18.72,24.39,38.63-13.34,18.76-35.52,37.38-51.6,54.1-20.06,20.87-42.92,39.09-65.53,57.1-22.17,17.65-45.04,34.77-67.5,51.94-18.8,14.38-42.05,20.29-56.87,39.7-7.27,9.53-11.88,19.56-16.82,30.3-3.46,7.52-10.94,12.85-13.66,18.82-5.5,12.09-3.22,30.06-7.06,43.09-3.11,10.57-8.21,17.92-14.89,26.43-25.44,32.37-61.9,97.13-113.1,74.86Zm135.23-161.16c17.29-32.61,39.14-51.42,67.62-74.32,24.68-19.84,44.12-48.57,59.56-76.05-9.29-8.59-31.93-1.88-43.63-2.02-13.18-.16-24.39-2.54-36.79-6.69-12.95-4.33-44.57-23.67-53.13-9.84-4.3,6.95.82,28.18,1.12,36.37.61,16.76.65,33.54.86,50.31.29,23-6.87,61.48,4.38,82.25Z"/>
  <path class="cls-1" d="m397.16,364.07c1.06,54.47-38.69,139.89-99.28,148.91-60.32,8.98-109.37-89.26-119.45-137.32-6.49-30.96,3.59-63.41,22.7-87.81,16.82-21.49,43.92-52.8,73.91-48.66,29.08,4.02,60.3,26.85,82.99,44.54,29.08,22.67,36.25,43.87,39.13,80.34Zm-139.56,62.84c3.49,38.16,24.84,11.97,36.45-7.96,12.79-21.93,26.05-45.58,33.44-69.9,13.56-44.66-31.44-6.89-42.31,8.74-13.42,19.3-27.94,45.08-27.59,69.11Z"/>
  <path class="cls-1" d="m275.94,890.46c-6.08.9-28.45-5.69-28.85-14.74-.38-8.46,14.57-12.53,20.22-15.93,23.13-13.88,38.13-36.93,60.19-51.79,30.93-20.83,28.33,13.79,15.8,34.56-14.65,24.27-38.94,44.25-67.37,47.9Z"/>
</svg>