<?xml version="1.0" encoding="UTF-8"?>
<svg id="Calque_1" data-name="Calque 1" xmlns="http://www.w3.org/2000/svg" viewBox="0 0 1024 1024">
  <defs>
    <style>
      .cls-1 {
        stroke-width: 0px;
      }
    </style>
  </defs>
  <path class="cls-1" d="m673.5,454.76c19.25-16.18,46.43-29.3,72.47-25.47,29.31,4.31,32.89,43.12,46.34,64.9,18.9,30.62,30.78,45.32,32.01,82.69,1.16,35.21.12,70.1-6.08,104.77-19.13-3.4-30.38-48.24-33.73-64.74-5.71-28.12,4-58.55-1.92-86.07-8.52-39.65-101.22-10.99-112.56,19.6-9.24,24.95-3.01,64.32-3.15,90.97-.17,31.47-.14,62.94-.27,94.41-.08,19.79,5.06,180.95-9.76,182.55-25.46-39.66-54.39-79.25-55.81-127.93-1.47-50.45,0-101.16-.08-151.64-.03-19.37,6.55-51.26-1.09-69-4.52-10.51-3.79-8.5-16.35-4.28-11.47,3.85-20.49,7.14-32.63,8.82-11.09,1.53-58.22.52-63.97,8.39-5.56,7.61,6.86,35.32,7.23,48.36,1.08,37.35-7.7,79.01-29.97,109.84-24.28,33.6-74.36,38.73-112.28,30.28-37.96-8.46-71.24-49.16-88.96-81.93-20.49-37.89-20.1-86.5-12.13-127.9,16.03-83.31,92.06-141.26,94.22-228.57.54-21.63.29-43.29.29-64.93,0-12.22-.07-24.45.05-36.67.1-10.55,5.95-33.17,1.86-41.87-6.53-13.87-29.33-7.19-44.87-7.13-26.96.1-54.34-2.03-81.27-.68-18.48.93-24.68,6.24-20.67-14.96,2.56-13.53,5.45-45.21,15.67-54.86,10.96-10.35,48.87-4.04,62.94-4.1,25.88-.1,51.77-.2,77.65-.29,103.59-.36,207.16.03,310.74.69,27.18.17,54.46,1.04,81.63.28,18.06-.5,57.13-11.74,44.49,16.41-5.08,11.3-11.43,21.84-15.25,33.74-1.5,4.68-2.21,15.98-5.21,18.78-12.32,11.52-60.88,2.8-75.87,2.65-29.08-.29-30.91,2.01-29.68,30.2,1.26,29.08,1.26,58.19.95,87.29-.3,29.1-.98,58.2-1.06,87.3-.04,13.32-6.94,63.69,6.05,70.13Zm-287.41,67.36c-19.87,5.91-37.12,17.61-56.5,25.34-18.57,7.41-27.39,17.44-30.8,38.06-6.23,37.66,13.78,90.22,46.65,111.64,30.78,20.05,79.98,5.88,86.95-31.47,6.02-32.29-6.08-87.31-22.48-116.12-8.18-14.36-22.44-25.11,1.96-26.74,19.43-1.3,36.6-5.37,55.87-8.43,21.54-3.42,43.15-4.61,64.89-5.7,16.06-.81,46.23.63,59.95-9.3,13.27-9.61,7.59-32.08,7.28-47.28-.45-21.98.99-44.88-1.46-66.72-2.79-24.85-9.83-28.45-33.21-29.63-21.55-1.09-42.3-2.37-63.74,1.41-33.78,5.97-67.72,40.21-86.87,67.7-10.98,15.76-18.3,34.56-26.1,52.06-7.2,16.14-5.04,27.99-2.39,45.19Zm31.19-304.38c-.19,0-.39.02-.58.03.63,13.68-4.81,62.13,6.76,71.71,8.03,6.65,45.1-11.53,57.17-14.21,26.75-5.95,51.76-5.4,78.73-1.34,22.73,3.42,35.93,10.01,37.01-16.14.6-14.46-.48-29.11-.6-43.59-.06-7.2,3.68-26.01-1.38-31.56-9.99-10.97-58.61-3.22-73.02-3.22-27.15,0-63.72-6.59-89.75.01-18.62,4.72-14.34,21-14.34,38.33Z"/>
</svg>