<?xml version="1.0" encoding="UTF-8"?>
<svg id="Calque_1" data-name="Calque 1" xmlns="http://www.w3.org/2000/svg" viewBox="0 0 1024 1024">
  <defs>
    <style>
      .cls-1 {
        stroke-width: 0px;
      }
    </style>
  </defs>
  <path class="cls-1" d="m807.1,356.7c-53.83,9.18-115.48.99-170.14.71-56.35-.29-112.7-.58-169.04-.99-56.84-.41-113.68-.75-170.52-1.28-13.79-.13-27.84.33-41.57-1.14-17.55-1.88-10.48-.1-15.84-12.43-4.18-9.63-6.51-20.68-9.88-30.63-2.38-7.05-14.04-26.56-13.15-33.39,1.77-13.61,54.26-6.5,68.51-6.48,29.45.05,58.91.09,88.36.13,58.73.08,117.46.14,176.19.2,58.44.05,116.88.1,175.32.18,7.67.01,26.76-3.52,33.8,1.22,6.6,4.44,10.67,19.31,14.43,26.04,10.39,18.56,20.43,41.54,33.53,57.86Z"/>
  <path class="cls-1" d="m323.92,491.13c19.53,10.7,39.67,20.18,59.26,30.75,19.78,10.67,43.78,25.91,67.07,26.94,22.28.98,32.13-17.58,43.64-33.98,14.68-20.92,29.94-46.83,51.18-61.7,22.47-15.73,51.61-14.69,77.7-13.71,15.76.59,57.09-3.14,67.52,10.69,7.89,10.46,3.07,55.7-7.3,63.44-15.4,11.49-54.32,3.57-72.78,4.47-23.15,1.12-40.03,5.88-54.79,24.22-14.28,17.73-32.26,41.41-39.46,63.29-16.66,50.61,72.67,34.03,99,50.32,15.11,9.35,24.11,25.28,27.31,42.45,1.94,10.41.72,57.4-17.17,56.5-7.63-.38-13.54-14.9-20.42-18.92-9.36-5.45-18.64-5.89-29.21-4.62-21.93,2.63-50.52,19.92-61.07-9.42-8.68-24.13,6.46-57.86-16.87-76.81-18.45-14.99-50.93-14.55-72.58-24.26-56.15-25.17-66.77-84.48-101.84-128.52.27-.37.55-.75.82-1.12Z"/>
</svg>