<?xml version="1.0" encoding="UTF-8"?>
<svg id="Calque_1" data-name="Calque 1" xmlns="http://www.w3.org/2000/svg" viewBox="0 0 1024 1024">
  <defs>
    <style>
      .cls-1 {
        stroke-width: 0px;
      }
    </style>
  </defs>
  <path class="cls-1" d="m336.06,234.84c1.07,4.05,9.45,15.12,14.86,12.51,4.94-2.38,3.24-12.07,3.77-16.16,2.72-21.02,6.55-34.96,20.5-51.59,5.55-6.62,20.28-29.62,29.9-26.89,10.13,2.88,32.39,41.79,38.33,51.88,21.64,36.77,5.37,88.26,4.89,128.66-.56,48.12-1.66,96.3-1.28,144.43.13,16.09-4.51,42.46,3.37,57.03,7.7,14.23,30.28,22.82,43,32.14,30.76,22.55,68.71,38.1,106.53,20.17,42.84-20.3,21.07-60.93-1.62-87.43-26.45-30.89-58.16-61.03-59.52-105.17-.69-22.25,8.96-47.73,21.46-65.82,7.96-11.52,28.05-40.43,43.56-37.57,19.43,3.58,20.08,28.41,44.16,25.36,19.13-2.42,34.06-23.38,50.59-24.55-1.19,35.66-55.02,39.22-53.38,78.27,1.45,34.46,38.13,59.69,53.24,88.27,6.37,12.04,16,30,17.6,43.54,2.09,17.65-8.78,24.85-19.59,38.57-24.92,31.65-41.4,68.95-68.78,99.03-11.82,12.99-27.9,28.01-45.46,32.71-16.29,4.36-15.4-8.72-30.74-15.52-15.11-6.69-35.47-5.76-51.54-8.55-9.06-1.57-42.24-14.05-49.93-7.97-8.79,6.94-3.89,40.21-3.89,49.38-.02,21.54-.03,43.09-.01,64.63.03,36.56,2.51,85.18-18.23,117.3-10.27-9.74-16.11-24.06-23.96-35.83-7.71-11.55-18.97-20.48-25.62-32.31-13.71-24.4-7.92-61.15-8.12-87.97-.54-70.23-1.23-140.46-2.17-210.68-.43-32.05-1.1-64.08-1.97-96.12-.84-30.98,3.06-66.88-6.22-96.67-5.44-17.47-13.42-36.77-29.83-46.85-8.3-5.1-23.24-4.26-22.22-17.41.97-12.55,19.66-11.42,28.3-12.82Z"/>
</svg>