<?xml version="1.0" encoding="UTF-8"?>
<svg id="Calque_1" data-name="Calque 1" xmlns="http://www.w3.org/2000/svg" viewBox="0 0 1024 1024">
  <defs>
    <style>
      .cls-1 {
        stroke-width: 0px;
      }
    </style>
  </defs>
  <path class="cls-1" d="m660.51,580.03c-8.77-15.57-11.84-29.84-12.87-47.61-.94-16.13,1.41-36.91-16.82-44.61-21.15,6.71-35.65,30.44-49.93,46.08-13.69,14.99-29.27,25.65-46.29,36.68-6.46,4.19-21.35,8.96-21.99,17.87-.57,7.84,11.71,18.62,16.07,23.68,13.72,15.93,28.03,30.04,45.03,42.34,17.16,12.41,34.8,23.62,52.96,34.55,21.81,13.12,33.1,29.26,48.47,49.12,13.48,17.41,30.24,31.77,43.41,49.17,9.15,12.09,32.4,34.28,35.65,48.37-25.25-10.85-42.59-30.98-67.12-42.21-34.94-16.01-54.03,28.14-78.63,45.45-51.87,36.51-122.86,11.74-171.94-16.93-49.96-29.18-109.26-43.67-155.68-77.5-24.86-18.12-49.81-36.8-71.9-58.22-10.34-10.03-19.24-20.75-32.32-26.84-13.01-6.06-17.06-3.68-21.08-19.65-7.99-31.67-3.14-71.07-3.2-103.66-.07-35.59.56-71.17,1.61-106.74.8-27.18-4.78-71.2,9.94-95.31,15.45-25.32,37.15-18.98,55.76-1.5,22.93,21.55,9.84,54.77,13.35,82.66,2.33,18.51,5.8,24.56,22.46,15.11,15.35-8.71,29.9-20.74,43.88-31.42,49.12-37.52,78.75-86.24,146.15-89.56,42.37-2.09,71.01,10.3,105.26,33.19,28.03,18.74,59.57,38.28,80.72,65.14,19.14,24.3,33.81,54.77,45.93,82.98,6.5,15.12,13.13,30.69,8.23,47.26-4.63,15.65-21.92,24.87-23.31,41.39-.59.23-1.19.47-1.78.7Zm-414.87,104.11c25.56-22.99,78.29,48.93,96.31,61.23,28.24,19.28,68.35,39.98,102.91,30.3,31.19-8.73,58.02-31.21,78.88-55.4,9.33-10.83,30.26-33.22,28.32-48.88-1.76-14.24-16.86-24.62-29.64-26.66-18.92-3.01-39.25,8.72-56.89,14.52-21.59,7.1-44.31,16.22-66.6,20.68-32.28,6.46-78.12,2.53-105.76-16.66-35.54-24.67,5.55-62.06,30.02-73.43,33.59-15.59,93.59,16.43,118.87-12.52-32.48-18.96-74.4-31.25-100.8-58.73-12.48-12.99-18.95-26.75-24.86-43.32-6.97-19.58-15.4-19.82-36.12-13.94-48.85,13.86-44.05,55.88-45.35,97.57-.74,23.51-1.06,47.03-1.66,70.54-.46,18.13-3.64,41.8,12.37,54.7Zm212.29-309.19c-47.43.12-97.24,39.62-91.11,91.44,2.76,23.34,24.42,36,43.19,46.4,17.24,9.57,43.57,27.42,64.09,27.04,22.28-.41,45.95-27.71,60.71-42.12,15.62-15.26,33-31.32,34.72-54.62,2.96-40.2-79.26-69.76-111.58-68.15Z"/>
  <path class="cls-1" d="m729.47,239.63c-45.83,5.77-95.06,1.56-141.22,1.39-47.48-.18-94.98-.93-142.46-.78-45.22.14-90.43,1.87-135.65,2.45-13.82.18-39.72,6.26-47.39-4.16-5.78-7.85-1.29-50.56,5.6-59.35,9.82-12.52,38.26-6.05,52.99-6.13,23.72-.12,47.43-.24,71.15-.36,47.43-.24,94.86-.48,142.29-.77,25.16-.16,50.33-.2,75.48-.49,18.82-.22,37.79-4.8,56.32-4.63,20.62.19,24.94,21.22,34.47,36.93,8.49,14,18.25,23.6,28.43,35.9Z"/>
  <path class="cls-1" d="m795.95,584.36c25.26,9.65,48.24,35.66,74.44,39.9,2.7,30.39,3.83,60.71,1.23,91.17-.66,7.71-1.27,30.34-11.85,31.08-9.04.63-27.14-19.74-34.19-25.56-18.77-15.49-33.46-11.47-35.02-39.15-1.85-32.76,1.3-65.02,5.39-97.44Z"/>
</svg>