<?xml version="1.0" encoding="UTF-8"?>
<svg id="Calque_1" data-name="Calque 1" xmlns="http://www.w3.org/2000/svg" viewBox="0 0 1024 1024">
  <defs>
    <style>
      .cls-1 {
        stroke-width: 0px;
      }
    </style>
  </defs>
  <path class="cls-1" d="m307.04,143.79c116.08,0,232.14.84,348.21,1.51,44.06.26,117.69-15.83,127.32,43.59,2.73,16.88,2.54,33.01-14.55,36.69-27.6,5.95-62.92-1.33-91.07-2.56-57.96-2.54-116.04-2.17-174.04-2.41-14.6-.06-53.82-7.57-65.49,2.48-13.04,11.22-3.27,60.08-2.74,73.96.81,21.66-5.11,58.25,3.28,78.2,5.47,13,5.18,11.38,19.82,4.89,13.79-6.11,26.9-13.74,40.57-20.11,43.6-20.32,91.14-18.56,135.24-.33,86.21,35.63,149.67,183.72,88.42,263.51-27.55,35.89-70.44,53.15-107.27,77.82-40.72,27.28-72.21,65.97-126.13,52.35-12.63-3.19-53.09-27.54-59.48-17.7-2.99,4.6.72,23.3.92,28.17.48,11.85,1.83,23.24-3.49,34.28-9.16,19.01-32.93,40.51-48.67,54.27-17.34,15.16-42.54,21.32-64.22,27.86-16.82,5.07-29.91,4.03-12.21-10.02,21.36-16.96,35.64-30.51,38.88-58.99,6.68-58.74,4.17-119.89,5.82-178.98,1.79-63.95,2.59-127.96,6.58-191.83,2.01-32.21,4.71-64.39,5.69-96.65.94-30.81-1.72-62.55,2.1-93.16,1.13-9,7.64-20.31,1.42-26.28-5.72-5.49-30.28-1.15-37.16-.98-14.22.36-64.59,9.96-74-.04-3.52-3.75-2.22-32.76-3.31-39.69-1.06-6.7-8.78-26.59-7.11-32.37,4.65-16.07,51.56-8.64,66.67-8.64v1.14Zm352.54,471.49c3.14-32.85-22.52-71.94-39.42-98.44-15.86-24.87-36.57-52.01-57.44-72.91-22.79-22.83-52.85-45.58-84.69-29.16-13.53,6.98-33.51,18.88-39.98,33.14-5.99,13.19-3.24,32.97-3.42,47-.44,33.97-2.32,71.09,14.27,101.9,15.03,27.92,39.18,51.01,67.19,65.37,26.15,13.41,65.06,28.07,94.55,21.14,33.27-7.81,45.55-37.48,48.95-68.03Z"/>
</svg>