<?xml version="1.0" encoding="UTF-8"?>
<svg id="Calque_1" data-name="Calque 1" xmlns="http://www.w3.org/2000/svg" viewBox="0 0 1024 1024">
  <defs>
    <style>
      .cls-1 {
        stroke-width: 0px;
      }
    </style>
  </defs>
  <path class="cls-1" d="m366.97,520.48c2.68,23.73,9.24,50.03,6.53,73.85-2.66,23.35-16.57,38.44-30.09,55.97-12.81,16.61-6.86,25.97,14.69,21.86,20.9-3.98,40.47-17.01,56.28-30.87,33.9-29.74,49.43-80.67,87.64-104.69,11.98-7.53,31.51-19.37,46.32-18.66,18.25.87,40.29,17.8,53.66,29.64,14.29,12.65,38.72,31.73,45.14,50.3,6.73,19.47-18.78,47.87-30.85,63.67-12.56,16.44-25.13,36.57-47.34,24.15-16.75-9.37-29.72-29.36-44.96-41.43-12.71-10.07-32.82-36.44-46.38-17.25-15.12,21.41,11.77,48.11,22.7,65.62,9.99,16.01,17.5,35.02,33.94,45.26,7.04,4.39,18.29,4.38,17.81,12.64-.41,6.94-30.46,23.02-36.14,26.8-12.26,8.18-32.14,27.03-47.74,27.36-18.46.39-28.57-27.27-35.25-42.32-9.65-21.76-16.03-41.59-19.61-65.1-1-6.57.63-17.31-6.43-20.65-6.51-3.07-22.54,9.16-26.43,12.76-14.39,13.3-17.94,34.68-23.04,52.78-7.05,25.01-13.07,46.9-27.91,68.49-13.35,19.42-29.43,30.62-50.04,40.67-6.27,3.06-47.39,25.82-46.26,9.66.33-4.73,16.05-17.01,19.11-21.36,5.62-8.01,9.31-16.82,12.72-25.93,10.19-27.21,13.27-56.79,21.14-84.73,13.82-49.03-6.28-96.05-4.93-146.47.65-24.53,1.02-50.55,7.37-74.42,6.26-23.5,22.18-34.28,38.58-50.65,13.26-13.23,30.54-30.27,33.05-49.82,3.4-26.51-24-42.34-24.42-66.63-.36-20.66,22.3-35.52,39.13-38.78,27.09-5.24,59.32,3.75,84.63,12.43,26.75,9.17,38.4,28.06,59.97,43.49,11.63,8.32,17.81,8.5,31.46,7.51,7.61-.55,17.16-4.78,21.2,4.1,4.94,10.86-49.18,49.54-57.87,56.35-21.25,16.64-40.85,32.92-54.69,56.38-5.93,10.06-3.81,12.37-17.11,12.29-13.27-.08-24.51-11.4-38.21-13.25-32.39-4.38-35.63,9.96-37.38,38.97Z"/>
  <path class="cls-1" d="m759.99,498.71c-24.69-17.43-56.99-37.34-76.78-60.14-22.22-25.6-14.17-66.7-20.02-98.27-2.68-14.47-9.96-25.15-14.66-38.93-5.38-15.79-4.31-31.16-1.66-47.68,4.87-30.33,19.71-73.35,46.77-91.48,29-19.44,52.38,23.8,71.58,40.85,6.7,5.95,21.91,9.94,24.83,16.98,5.23,12.57-18.91,38.68-23.44,49.76-13.83,33.86-11.3,75.59-12.44,111.43-1.25,39.39-9.07,78.95,7.27,115.95-.49.51-.97,1.02-1.46,1.52Z"/>
</svg>