<?xml version="1.0" encoding="UTF-8"?>
<svg id="Calque_1" data-name="Calque 1" xmlns="http://www.w3.org/2000/svg" viewBox="0 0 1024 1024">
  <defs>
    <style>
      .cls-1 {
        stroke-width: 0px;
      }
    </style>
  </defs>
  <path class="cls-1" d="m580.63,664.01c0,36.61,8.13,86.24-11.21,118.93-9.21,15.56-23.49,28.09-37.61,39.05-14.71,11.42-21.2,17.03-18.75-3.09,2.4-19.79-.54-30.15-5.45-48.84-5.41-20.55-4.58-42.72-4.63-63.79-.11-46.86-.66-93.73-1.7-140.58-.98-44.16-4.58-88.19-5.7-132.34-1.09-42.9,1.61-87.46-4.95-129.94-6.15-39.84-1.94-58.64,25.85-88.41,8.17-8.75,18.11-27.74,30.66-22.33,10.2,4.4,25.74,29.7,33.33,38.45,11.64,13.4,21.16,28.64,19.21,47.16-2.04,19.36-12.18,37.03-13.96,57.04-3.94,44.11-3.36,90.18.05,134.32,1.77,22.88,10.31,27.67,28.4,40.37,16.98,11.92,33.72,24.15,53.85,30.11,32.52,9.62,63.07,10.45,77.41-25.52,14.3-35.87-10.18-75.21-34.06-100.54-11.86-12.59-26.93-29.08-43.69-34.88-6.48-2.24-35.12,3.22-37.98-1.66-7.16-12.18,60.89-61.1,73.02-64.26,32.38-8.43,72.28,27.29,90.88,50.66,56.97,71.59-11.18,176.04-67.21,228.07-28.69,26.64-71.58,22.62-104.16,6.83-13.17-6.38-35.54-24.96-42.29-7.95-7.31,18.41-.54,53.3-.54,73.13h1.25Z"/>
  <path class="cls-1" d="m300.51,458.48c.86,4.63,11.84,47.01,8.6,48.82-8.68,4.85-36.21-17.25-42.56-22.2-27.05-21.09-50.75-51.57-56.53-86.09-5.86-34.99,12.31-60.9,40.37-80.11,31.25-21.4,55.66-20.67,89.83-6.44,30.4,12.66,62.38,37.08,80.31,64.93,6.13,9.51,22.69,33.39,23.04,45.15.38,12.95-18.34,24.51-30.44,23.6-27.41-2.06-16.91-51.04-50.11-55.12-32.27-3.97-63.03,38.13-61.46,67.27-.35.06-.7.12-1.06.19Z"/>
</svg>