<?xml version="1.0" encoding="UTF-8"?>
<svg id="Calque_1" data-name="Calque 1" xmlns="http://www.w3.org/2000/svg" viewBox="0 0 1024 1024">
  <defs>
    <style>
      .cls-1 {
        stroke-width: 0px;
      }
    </style>
  </defs>
  <path class="cls-1" d="m666.53,860.02c-16.49-11.01-39.37-37.44-45.02-56.84-8.53-29.3-2.89-69.07-3.03-99.43-.31-66.99,6.77-139.33-4.03-205.54-8.27-.49-26.79,15.48-33.68,20.4-16.63,11.89-31.72,25.69-48.21,37.74-37.56,27.43-83.96,19.55-118.04-10.83-62.34-55.58-81.54-173.57-11.17-230.72,22.64-18.39,97.26-47.83,119.17-16.93,19.51,27.52-63.74,59.39-81.09,72.04-33.56,24.46-40.68,75.93-17.82,110.65,26.91,40.85,81.69,14.26,111.54-7.83,16.19-11.98,30.34-26.24,46.82-37.81,18.54-13.01,28.76-9.38,30.25-33.79,1.5-24.45.42-49.27.41-73.76,0-12.7-.03-25.4-.05-38.09-.01-9.66,3.88-31.33-.1-40.59-6.72-15.62-32.14-9.15-47.93-9.14-26.05.02-52.11.01-78.16.34-27.58.34-55.15.9-82.73,1.4-17.87.33-50.66,7.32-66.25-1.92-12.75-7.55-18.06-31.7-23.63-44.29-7.09-16.04-14.02-27.35,8.01-29.28,48.28-4.21,99.03.31,147.52.52,48.93.21,97.87,1.05,146.8.13,16.87-.32,40.07-5.13,56.45-.44,14.47,4.15,43.2,18.14,44.54,35.58,1.59,20.78-24.74,26.71-31.66,41.73-10.34,22.42-2.74,63.96-2.75,88.22-.03,60.03.02,120.07-.07,180.1-.09,63.23-.2,126.46-.47,189.69-.13,29.55-.19,59.06-1.55,88.59-.7,15.09,1.51,61.29-14.05,70.1Z"/>
</svg>