<?xml version="1.0" encoding="UTF-8"?>
<svg id="Calque_1" data-name="Calque 1" xmlns="http://www.w3.org/2000/svg" viewBox="0 0 1024 1024">
  <defs>
    <style>
      .cls-1 {
        stroke-width: 0px;
      }
    </style>
  </defs>
  <path class="cls-1" d="m489.94,759.71c-12.13,7.91-28.74-9.01-39.51-12.92-12.98-4.72-37.81-3.05-45.55-14.98-9.9-15.27,2.59-20.63-20.48-22.97-19.24-1.95-32.62-7.26-48.63-18.89-64.23-46.67-56.77-129.27-95.34-191.8.36-.39.73-.79,1.09-1.18,18.58,9.83,34.3,38.13,45.21,55.73,12.84,20.7,20.65,43.65,32.6,64.85,11.58,20.56,23.4,38.93,45.96,48.39,18.43,7.72,51.05,12.6,67.53-1.8-2.61-19.54-23.76-40.26-33.99-56.41-13.65-21.56-17.95-47.27-21.94-72.16-7.61-47.52,6.61-79.79,42.64-109.29,37.31-30.55,72.69-35.21,106.18,3.15,7.37,8.45,12.7,16.36,21.51,23.9,4.13,3.54,20.54,13.42,19.94,19.71-.93,9.83-16.23-1.07-21.18-2.55-11.73-3.49-22.3-2.53-34.3-2.04-22.72.93-45.09,2.01-66.65,10.47-21.39,8.39-26.04,21.64-29.43,44.19-3.98,26.44,26.01,104.23,60.03,88.97,6.56-2.94,9.41-8.03,17.4-10.73,9.82-3.32,18.86-3.8,28.18-9.35,18.62-11.09,42.42-31.25,53.63-49.72,11.5-18.96,9.04-49.85,9.9-71.95,1.15-29.87.03-59.69-1.22-89.54-1.07-25.48,5.34-41-22.22-41.42-33.02-.5-66.08-.12-99.1-.16-33.03-.03-66.07-.06-99.1-.14-30.11-.07-66.34,4.25-95.73-2.94,10.93-24.2-13.51-61.48-24.14-82.56,5.59-10.59,63.1-3.14,74.62-3.14,25.68,0,51.35-.01,77.03-.02,53.19-.01,106.37-.03,159.56-.05,27.51-.01,55.02-.03,82.53-.04,20.81-.01,46.96-4.72,67-.28,33.19,7.35,59.71,61.42,79.59,86.05-28,1.65-56.86-1.24-84.98-1.1-23.77.11-55.12-6.58-77.67-1.3,5.38,14.81,19.03,23.3,25.99,36.64,7.01,13.43,4.62,32.41,4.99,47.35,1.04,41.69.4,83.47.52,125.17.12,40.62.68,81.2,1.59,121.81.43,19.26,4.12,44.22-.67,63.03-4.59,18.02-20.77,24.48-35.76,33.28-7.41,4.35-30.78,23.64-35.71,10.93-3.58-9.22,6.08-37.08,6.33-47.79.44-18.69,2.68-39.88-.79-58.28-3.87-20.5-10.9-12.32-25.66-5.47-16.86,7.82-34.94,13.52-53.1,16.97-14.6,2.77-28.86,3.51-36.58,18.15-12.85,24.35,9.85,44.26,17.89,64.27Z"/>
</svg>