<?xml version="1.0" encoding="UTF-8"?>
<svg id="Calque_1" data-name="Calque 1" xmlns="http://www.w3.org/2000/svg" viewBox="0 0 1024 1024">
  <defs>
    <style>
      .cls-1 {
        stroke-width: 0px;
      }
    </style>
  </defs>
  <path class="cls-1" d="m553.27,665.05c25.1-38.76,42.27-77.64,39.19-124.59-3.09-47.09-16.16-96.68-27.9-142.4-5.32-20.74-17.32-37.53-30.18-54.54-13.7-18.12-25.69-38.66-42.99-53.63-13.59-11.76-27.64-21.65-24.2-41.65,3.19-18.56,21.42-42.51,33.05-56.79,7.31-8.97,23.83-35.6,36.69-35.55,14.92.05,44.1,38.34,53.14,49.1,14.75,17.56,20.03,23.54,42.33,11.16,5.66-3.14,20.09-18.34,26.21-18.44,8.71-.13,19.19,16.53,25.32,22.18,12.67,11.67,45.7,19.44,50.47,36.46,4.7,16.77-16.42,48.15-25.05,61.29-12.53,19.08-29.74,26.1-43.93,42.28-16.24,18.52-5.48,38.2,5.76,56.85,13.31,22.07,30.1,40.99,22.93,67.68-6.79,25.26-19.61,51.07-32.55,73.65-23.87,41.66-67.66,81.44-107.45,107.84l-.85-.9Z"/>
  <path class="cls-1" d="m380.42,589.85c-.57-47.57-.95-95.13-2.01-142.69-1.04-46.38,4.11-98.71-4.15-144.36-3.29-18.19-12.8-13.04-24.48-24.86-14.19-14.37-22.69-30.23-40.04-41.68-9.65-6.36-28.97-20.04-17.06-34.44,4.8-5.8,21.03-6.96,27.58-9.95,8.79-4.01,16.24-8.75,23.88-14.64,12.08-9.31,29.06-29.32,44.81-27.58,14.29,1.58,39.53,28.02,49.09,38.98,30.11,34.51,13.37,79.41,13.22,121.62-.35,95.49-.94,190.93-1.81,286.41-.5,55.14-.04,110.45-1.93,165.56-.83,24.23-8.84,38.35-22.01,58.52-11.97,18.32-23.42,42-42.29,53.68-6.35-21.87-2.11-50.42-2.15-73.33-.04-23.89-.08-47.79-.1-71.68-.05-46.52-.04-93.04-.04-139.57-.17,0-.33,0-.5,0Z"/>
</svg>