<?xml version="1.0" encoding="UTF-8"?>
<svg id="Calque_1" data-name="Calque 1" xmlns="http://www.w3.org/2000/svg" viewBox="0 0 1024 1024">
  <defs>
    <style>
      .cls-1 {
        stroke-width: 0px;
      }
    </style>
  </defs>
  <path class="cls-1" d="m604.24,484.28c.9,4.48,1.12,16.03,6.62,18.81,8.87-49.25,1.64-105.63,1.58-155.65-.03-24.26-.07-48.53-.11-72.79-.04-20.99,8.83-56.34-16.11-60.63-23.12-3.99-50.95-.05-74.38,0-26.94.05-53.87.1-80.81.15-50.43.1-100.86.17-151.3.36-25.25.09-50.53-.07-75.78.49-29.36.66-28.03,1.66-24.93-26.44,1.35-12.25,4.14-40.9,13.71-48.33,11.56-8.98,60.93-1.31,75.44-1.33,101.12-.09,202.23-2.3,303.36-2.79,53.42-.26,106.89-1.28,160.29.75,31.15,1.18,35.51,10.58,53.08,34.32,13.12,17.72,28.27,33.93,41.62,51.55-36.49-8.25-71.32-7.71-108.78-7.78-12.47-.02-44.93-6.13-55.08-.23-11.07,6.43-.84,17.08.33,30.61,6.72,77.42-1.69,158.5-1.74,236.25-.05,81.83,1.44,163.65,1.44,245.48,0,28.71,8.28,76.95-8.76,101.92-14.55,21.33-43.61,51.58-69.38,39.35,28.82-35.51,19.4-93.23,20.04-136.16.37-24.46.89-48.92,1.14-73.38.22-21.47,4.87-48.52-3.61-68.78-28.39,4.47-59.2,13.15-88.05,8.12-31.03-5.41-54.86-27.54-71.56-52.97-17.64-26.86-18.51-53.44-28.04-82.92-7.86-24.32-23.81-58.61-52.22-37.88-53.96,39.36-37.17,110.32-22.99,164.78,16.71,64.19,41.58,121.74,69.99,181.39,13.83,29.04,27,58.57,44.63,85.57,20.36,31.19.69,36.7-29.44,29.4-54.76-13.27-83.2-79.61-94.69-128.95-15.23-65.44-18.71-135.27-24.05-202.26-5.01-62.8-3.68-128.35,47.86-173.09,23.81-20.67,57.75-25.9,79.86-.23,21.68,25.17,25.19,58.15,31.62,89.23,5.18,25,25.39,53.73,54.15,50.36,25.79-3.02,61.67-12.29,73.75-36.43.43.05.87.1,1.3.15Z"/>
  <path class="cls-1" d="m603.4,438.93c-5.13-12.83-1.68-24.95-.56-37.24,3.27,5.6,3.76,28.76.56,37.24Z"/>
</svg>