<?xml version="1.0" encoding="UTF-8"?>
<svg id="Calque_1" data-name="Calque 1" xmlns="http://www.w3.org/2000/svg" viewBox="0 0 1024 1024">
  <defs>
    <style>
      .cls-1 {
        stroke-width: 0px;
      }
    </style>
  </defs>
  <path class="cls-1" d="m318.07,872.22c6.1-10.02,17.44-15.02,22.46-26.33,5.14-11.58,3.13-26.68,3.17-39.15.11-32.49,0-64.99-.43-97.47-.84-63.28-1.32-126.45-.58-189.73.76-64.78,3.73-129.58.28-194.29-1.47-27.51-5.93-48.76-25.18-70.23-6.33-7.06-31.34-17.47-33.81-24.47-4.5-12.76,7.3-15.81,17.03-22.75,17.25-12.3,32.99-26.52,49.36-39.92,9.29-7.6,13.78-14.18,24.4-12.17,8.51,1.61,28.22,23.83,35.2,30.46,23.6,22.41,24.33,38.88,20.06,69.3-4.37,31.15-1.51,63.37-.77,94.75,1.26,53.56-5.61,124.35,20.12,172.62,11.15,20.91,26.46,43.19,46.44,56.53,21.9,14.62,47.65,22.58,70.45,35.37,10.72,6.01,11.97,10.54,23.3,8.2,9.48-1.96,18.59-13,22.64-21.31,11.48-23.54,1.49-50.11-6.48-72.81-9.11-25.93-17.85-47.54-32.07-71.13-15.7-26.04-22.59-52.37-29.31-81.71-2.49-10.88-4.11-26.2-11.15-35.1-5.17-6.53-16.2-13.26-22.56-19.18-19.03-17.69-48.97-36.08-59.06-60.92-8.99-22.12,4.62-48.55,19.7-64.92,10.87-11.79,36.15-47.81,51.12-44.78,19.13,3.87,33.73,37.14,50.84,46.24,17.11,9.11,41.3-12.6,56.77-23.67,18.47-13.23,29.7-34.72,50.63-15.25,9.72,9.04,18.74,18.89,28.56,27.9,6.51,5.97,25.15,14.23,29.72,21.48,9.82,15.59-17.78,41.92-25.93,53.85-16.78,24.57-42.88,38.7-62.04,61.05-19.29,22.5-1.27,44.99,11.93,66.32,15.68,25.36,28.27,49.67,38.85,77.64,7.2,19.04,19.85,53.38,9.94,72.12-14.14,26.74-48.39,48.19-70.8,67.36-36.06,30.85-96.75,100.44-150.89,81.23-14.19-5.04-52.28-37.28-61-22.87-4.04,6.67,3.01,39.14,3.16,46.93.31,16.09,1.11,33.09-.61,49.08-3.23,29.89-25.78,46.72-44.69,68.14-18.31,20.73-39.29,40.63-68.12,44.79-.21-.4-.42-.79-.63-1.19Z"/>
</svg>