<?xml version="1.0" encoding="UTF-8"?>
<svg id="Calque_1" data-name="Calque 1" xmlns="http://www.w3.org/2000/svg" viewBox="0 0 1024 1024">
  <defs>
    <style>
      .cls-1 {
        stroke-width: 0px;
      }
    </style>
  </defs>
  <path class="cls-1" d="m747.97,424.04c-52.99,8.63-108.94.81-162.47.99-14.2.05-28.41.04-42.61.07-8.59.02-31.23-3.73-38.31,1.27-16.93,11.96.68,44.44,9.56,56.33,28.42,38.05,88.28,43.61,128.71,64.35,45.06,23.12,67.85,58.88,64.13,109.45-3.77,51.27-24.25,96.41-55.57,136.7-31.72,40.79-74.69,51.9-124.32,56.06-21.91,1.84-48.91,7.01-70.32.9-23.08-6.59-41.29-27.11-55.04-45.75-30.83-41.79-56.79-89.57-78.47-136.71-42.26-91.91-89.34-206-3.74-289.54,7.85-7.66,28.37-30.67,33.52-12.18,3.92,14.07-20.41,53.08-25.97,68.23-18.85,51.32-10.45,96.88,18.93,142.45,28.19,43.73,55.45,88.92,86,131,14.2,19.56,28.26,39.13,42,59.03,18.29,26.49,29.18,34.55,62.12,33.99,45.51-.77,83.78-49.14,91.9-92.32,9.14-48.61-39.67-90.29-76.24-113.52-46.27-29.38-78.46-79.17-99.94-129.63-11.42-26.84-19-54.88-20.2-84.06-.37-9.09-3.55-27.62,4.65-33.85,7.35-5.58,31.7,2.89,40.15,3.72,31.37,3.07,64.33-1.27,95.9-1.57,32.59-.31,65.18-.09,97.77.27,13.94.16,76.87-6.27,81.87,7.76,2.37,6.66-6.95,19.95-7.6,27.94-1.04,12.74,1.93,26.08,3.6,38.61Z"/>
  <path class="cls-1" d="m740.61,255.54c-60.88,7.61-126.92.42-188.32.05-30.64-.19-61.3-.04-91.93-.69-12.52-.27-64.91,5.86-72.25-4.31,9.49-15.58,3.56-61.08-6.42-76.61,71.53-6.28,145.7-.89,217.51-.89,18.4,0,36.81,0,55.21,0,10.06,0,38.99-4.93,47.67,2.06,8.25,6.65,14.01,28.27,18.48,37.82,6.66,14.21,13.74,28.19,20.03,42.57Z"/>
</svg>